<?xml version="1.0" encoding="utf-8"?>
<!-- Generator: Adobe Illustrator 27.5.0, SVG Export Plug-In . SVG Version: 6.00 Build 0)  -->
<svg version="1.1" id="Layer_1" xmlns="http://www.w3.org/2000/svg" xmlns:xlink="http://www.w3.org/1999/xlink" x="0px" y="0px"
	 viewBox="0 0 162.732 171.5" style="enable-background:new 0 0 162.732 171.5;" xml:space="preserve">
<g>
	<path style="fill:#5E2C00;" d="M143.681,110.935c-2.76-7.359-7.725-13.693-10.92-20.854c-2.006-4.498-3.059-9.335-3.031-14.258
		c0.029-5.102,1.664-8.741,4.457-12.564c1.051-1.063,2.965-2.319,3.529-3.694c1.035-2.521-0.326-4.878-3.121-4.471
		c-2.805,0.41-5.262,4.015-6.678,6.112c-2.252,3.337-3.549,7.332-4.23,11.264c-1.68,9.683,1.738,19.712,6.012,28.26
		c2.195,4.389,5.113,8.235,6.803,12.885c1.18,3.254,1.766,6.571,1.123,10.009c-0.148,0.792-2.955,6.925-4.926,5.936
		c-0.371-2.849-1.055-5.665-1.918-8.338c-2.672-8.301-8.254-14.884-15.016-20.193c-6.549-5.141-14.156-8.511-21.066-13.08
		c-8.328-5.508-13.566-14.25-16.09-23.78c-0.029-0.116-0.16-0.053-0.244,0.043c-0.264-0.536-0.574-1.06-0.979-1.564
		c-2.603-3.244-6.943-2.635-10.353-1.514C58.175,64.04,56.644,71.665,55.28,79.601c-0.477,1.303-1.018,2.595-1.35,3.861
		c-0.732,2.805-1.053,5.683-1.275,8.567c-0.42,5.449,0.088,10.646,1.449,15.926c1.424,5.524,4.219,10.661,8.25,14.389
		c-0.174,5.572,1.029,11.291,1.844,16.763c0.73,4.898,2.197,9.926,3.996,14.678c-0.961,0.18-1.895,0.888-2.621,1.459
		c-1.361,1.07-2.51,2.354-3,4.045c-0.814,2.818,2.189,5.445,4.514,3.906c0.42,0.395,0.93,0.715,1.5,0.955
		c1.518,0.639,4.838,0.314,6.459-1.092c1.039,1.071,2.686,1.429,4.027,0.657c1.135,1.223,3.281,1.503,4.49,0.359
		c0.121,0.157,0.258,0.313,0.434,0.461c1.514,1.279,3.961,0.815,5.641,0.215c1.982-0.707,3.693-2.299,4.58-4.167
		c0.482,1.245,1.547,2.078,2.988,2.095c0.777,0.01,1.656,0.006,2.41-0.244c1.195,1.555,3.465,1.363,5.166,0.515
		c0.197,0.233,0.432,0.463,0.717,0.688c1.371,1.074,3.711,0.543,5.217,0.16c3.299-0.836,6.344-2.291,9.717-2.875
		c3.129-0.541,9.508,0.722,11.209-3.204c1.787-4.121-0.213-7.125-4.352-7.646c1.228-1.188,2.309-2.554,3.086-3.977
		c0.729-1.336,1.709-3.381,1.758-5.148c0.1-0.373,0.189-0.749,0.273-1.126c1.619,0.109,3.539-1.47,4.781-2.199
		c2.873-1.69,4.6-3.623,6.244-6.51C147.233,124.437,146.294,117.908,143.681,110.935z"/>
	<path style="fill:#F6EED4;" d="M74.042,160.207c-0.045,0.604,0.049,1.156,0.236,1.646c-1.66,0.847-3.814,0.977-5.342-0.155
		c-0.861-0.638-1.48-2.092-1.291-3.153c0.09-0.504,0.416-0.905,0.498-1.405c0.029-0.176-0.24-0.051-0.285,0.011
		c-0.869,1.184-1.904,1.695-1.92,3.355c-0.004,0.471,0.076,0.9,0.221,1.295c-1.017-0.397-1.678-1.286-1.758-2.603
		c-0.139-2.291,2.521-3.378,4.115-4.6c0.074,0.193,0.154,0.383,0.232,0.572c0.512-0.527,0.816-1.198,0.994-1.947
		c-2.312-9.996-4.635-19.959-6.451-30.065c2.887,2.4,6.342,4.112,10.34,4.784c0.469,9.125,1.369,18.206,3.621,27.137
		c-0.354,0.196-0.693,0.418-1.033,0.691C74.923,156.814,74.159,158.581,74.042,160.207z"/>
	<path style="fill:#F6EED4;" d="M94.833,157.378c-0.107-1.121-0.566-2.227-1.498-3.212c-0.016-0.016-0.035-0.023-0.055-0.033
		c0.588-2.158,1.051-4.35,1.408-6.563c0.598,2.282,1.568,4.439,2.977,6.302c0.234,0.308,0.482,0.588,0.738,0.855
		c-0.768,0.301-1.521,0.753-2.16,1.254C95.776,156.349,95.261,156.83,94.833,157.378z"/>
	<path style="fill:#F6EED4;" d="M99.011,161.055c-1.229,0.056-2.41,0.018-3.129-1.275c-1.172-2.105,1.248-3.493,3.176-4.443
		c0.719,0.619,1.498,1.123,2.334,1.498c-0.393,0.275-0.756,0.605-1.084,0.918C99.356,158.662,98.794,159.838,99.011,161.055z"/>
	<path style="fill:#F6EED4;" d="M104.243,162.099c-1.209,0.141-2.484-0.101-3.275-1.026c-1.119-1.313-0.008-2.645,0.965-3.581
		c0.123-0.119,0.264-0.21,0.408-0.293c1.199,0.406,2.473,0.62,3.781,0.674C104.583,158.902,103.573,160.517,104.243,162.099z"/>
	<path style="fill:#F6EED4;" d="M130.423,143.724c-0.438,0.815-0.92,1.587-1.309,2.247c-1.318,2.241-2.885,4.271-4.82,6.021
		c-0.203,0.184-0.105,0.489,0.176,0.313c0.848-0.532,1.676-1.173,2.455-1.885c0.625,0.896,2.328,1.506,3.068,2.151
		c3.035,2.649-1.361,6.635-4.422,6.641c-2.418,0.005-4.766,0.299-7.125,0.84c-2.131,0.488-4.184,1.383-6.256,2.065
		c-2.016,0.663-4.256,1.277-6.123-0.266c-1.572-1.299,0.316-2.974,1.359-3.974c3.098-0.097,6.279-0.928,8.914-1.881
		c0.262-0.096,0.594-0.765,0.111-0.658c-5.426,1.187-11.812,1.576-16.162-2.518c-3.697-3.479-4.27-9.624-4.057-14.362
		c0.27-6.015,2.838-11.863,6.744-16.377c4.428-5.116,14.088-9.601,20.609-6.161c0.219,0.116,0.621-0.301,0.381-0.471
		c-5.58-3.955-14.012-0.904-18.904,2.796c-4.367,3.301-7.408,7.807-9.234,12.85c-0.035-3.456-0.371-6.894-0.816-10.321
		c-0.498-3.827-1.158-8.549-2.799-12.055c-0.088-0.188-0.404,0.06-0.357,0.22c1.037,3.513,0.898,7.644,1.264,11.282
		c0.426,4.272,0.734,8.528,0.756,12.824c0.037,7.607-0.75,15.22-1.658,22.762c-0.047,0.394,0.574,0.032,0.639-0.18
		c0.004-0.009,0.006-0.019,0.008-0.029c0.289,1.13,0.697,2.181,0.455,3.442c-0.338,1.754-1.654,3.186-3.227,3.939
		c-1.34,0.641-2.881,0.825-4.307,0.367c-1.777-0.569-1.531-2.809-1.102-4.167c0.059-0.189-0.215-0.086-0.264,0.011
		c-0.615,1.179-1.475,2.57-1.301,3.831c-1.006,0.132-2.176-0.327-2.66-1.2c-0.857-1.543-0.066-3.495,0.705-4.89
		c0.1-0.178-0.119-0.209-0.225-0.106c-1.338,1.304-3.121,3.642-2.543,5.683c-1.486-0.166-2.467-2.019-2.385-3.519
		c0.129-2.355,2.236-3.466,4.146-4.205c0.088-0.034,0.305-0.304,0.096-0.317c-0.619-0.041-1.023-0.255-1.668-0.006
		c-0.221,0.086-0.434,0.172-0.639,0.265c-0.938-9.308-1.699-18.643-2.32-27.977c-0.557-8.377-0.949-16.896-2.566-25.152
		c-0.039-0.206-0.41,0.048-0.402,0.202c0.451,8.364,0.524,16.773,0.926,25.148c-9.973-2.301-15.438-12.124-17.877-21.404
		c-1.342-5.104-1.488-10.342-1.25-15.585c0.166-3.682,1.262-7.388,1.762-11.054c0.557-1.847,1.055-3.706,1.525-5.593
		c1.314-5.284,4.145-8.751,9.242-10.725c4.443-1.72,8.879-0.547,10.867,3.948c0.576,1.304,1.137,2.607,1.701,3.907
		c1.613,5.642,4.406,10.649,8.754,15.026c5.645,5.685,13.52,8.753,20.199,12.978c7.291,4.61,13.838,10.323,18.037,17.952
		C130.958,124.417,133.407,134.833,130.423,143.724z"/>
	<path style="fill:#F4912E;" d="M123.636,119.266c-3.584,1.211-4.65,5.809-4.459,9.187c0.225,3.965,1.553,8.989,5.324,11.067
		c2.016,1.11,4.541,1.734,6.709,1.191c1.311-6.609,0.01-13.776-2.617-20.051C127.224,119.385,125.513,118.632,123.636,119.266z"/>
	<path style="fill:#F4912E;" d="M82.425,140.896c1.031-1.648,1.676-3.661,2.043-5.575c0.863-4.506,1.315-9.978,0.055-14.477
		c-0.488-1.75-1.051-3.577-2.047-5.114c-2.059-3.176-5.258-1.893-6.133,1.263c-0.486,1.754-0.855,3.616-0.992,5.486
		c0.092,1.426,0.182,2.851,0.277,4.271c0.389,5.852,0.842,11.706,1.35,17.553C78.624,145.131,81.94,141.668,82.425,140.896z"/>
	<path style="fill:#F6EED4;" d="M142.679,129.971c-1.223,2.38-2.504,4.343-4.734,5.971c-1.227,0.895-3.766,2.956-5.348,2.899
		c0.469-2.646,0.506-5.373,0.24-8.084c2.986-0.01,5.941-6.948,6.08-8.728c0.711-9.225-5.285-16.702-9.051-24.556
		c-4.547-9.48-7.555-20.624-3.904-30.827c0.922-2.578,2.395-4.874,4.115-6.985c1.061-1.299,4.174-4.556,6.223-2.779
		c1.926,1.672-1.242,4.25-2.23,5.373c-1.596,1.815-3.293,4.008-3.982,6.413c-1.178,2.778-1.475,6.036-1.615,8.998
		c-0.34,7.148,2.689,13.911,6.041,20.033c3.463,6.326,7.199,12.217,9.189,19.219C144.989,121.443,144.835,125.771,142.679,129.971z"
		/>
	<path style="fill:#CDCFD0;" d="M143.681,110.935c-2.76-7.359-7.725-13.693-10.92-20.854c-2.006-4.498-3.059-9.335-3.031-14.258
		c0.029-5.102,1.664-8.741,4.457-12.564c1.051-1.063,2.965-2.319,3.529-3.694c0.551-1.341,0.418-2.63-0.242-3.487
		c-0.231,0.619-0.506,1.192-0.815,1.646c-3.301,4.845-7.416,7.798-8.752,13.916c-1.201,5.506-1.068,10.949,0.928,16.256
		c2.266,6.029,5.664,10.86,8.988,16.298c2.258,3.689,4.189,7.714,4.453,12.109c0.221,3.66-1.182,12.298-5.846,9.966
		c-1.031,1.862-2.535,3.892-3.732,3.29c-0.371-2.849-1.055-5.665-1.918-8.338c-2.672-8.301-8.254-14.884-15.016-20.193
		c-6.549-5.141-14.156-8.511-21.066-13.08c-8.328-5.508-13.566-14.25-16.09-23.78c-0.029-0.116-0.16-0.053-0.244,0.043
		c-0.264-0.536-0.574-1.06-0.979-1.564c-2.603-3.244-6.943-2.635-10.353-1.514C58.175,64.04,56.644,71.665,55.28,79.601
		c-0.477,1.303-1.018,2.595-1.35,3.861c-0.732,2.805-1.053,5.683-1.275,8.567c-0.104,1.336-0.148,2.656-0.141,3.967
		c0.369-0.709,0.791-1.388,1.303-2.006c5.361-6.486,11.527,0.102,14.021,5.821c2.037,4.667,3.734,9.601,4.102,14.72
		c0.172,2.415,1.307,6.935-1.459,8.293c-1.982,0.974-6.094-1.053-7.848-1.963c-1.516-0.786-2.824-1.74-3.98-2.828
		c1.088,1.572,2.314,3.029,3.701,4.311c-0.006,0.17,0.002,0.341-0.002,0.512c0.436-0.203,1.068-0.094,1.361,0.331
		c6.336,9.143,8.545,19.515,10.228,30.34c0.539,3.455,0.092,8.234-2.291,10.855c1.264-0.164,2.555-0.597,3.395-1.324
		c0.031,0.033,0.07,0.06,0.104,0.092c-0.523-1.039-0.611-2.289-0.492-3.474c0.088-0.849,0.66-1.8,1.314-2.348
		c1.398-1.169,1.691-2.6,1.603-4.105c-0.689-4.338-1.371-8.678-1.939-13.034c-0.373-2.867-1.092-5.762-1.162-8.651
		c-0.352-0.101-0.623-0.375-0.566-0.861c0.693-5.973,0.225-11.89-0.045-17.872c-0.111-2.477-0.281-5.527,0.689-7.886
		c1.844-4.482,5.867-2.681,8.043,0.783c3.82,6.079,3.701,13.449,4.4,20.351c0.957,9.44,2.098,18.981,0.465,28.397
		c3.479,1.652,3.855,5.553,1.07,8.615c-0.854,0.938-1.885,1.661-3.006,2.173c1.354,0.281,2.924-0.063,4.113-0.487
		c1.982-0.707,3.693-2.299,4.58-4.167c0.482,1.245,1.547,2.078,2.988,2.095c0.777,0.01,1.656,0.006,2.41-0.244
		c1.195,1.555,3.465,1.363,5.166,0.515c0.197,0.233,0.432,0.463,0.717,0.688c1.371,1.074,3.711,0.543,5.217,0.16
		c3.299-0.836,6.344-2.291,9.717-2.875c3.129-0.541,9.508,0.722,11.209-3.204c1.787-4.121-0.213-7.125-4.352-7.646
		c1.228-1.188,2.309-2.554,3.086-3.977c0.729-1.336,1.709-3.381,1.758-5.148c0.1-0.373,0.189-0.749,0.273-1.126
		c1.619,0.109,3.539-1.47,4.781-2.199c2.873-1.69,4.6-3.623,6.244-6.51C147.233,124.437,146.294,117.908,143.681,110.935z
		 M115.241,147.638c-3.627,2.577-10.373,4.972-14.479,2c-3.375-2.443-4.326-6.916-4.551-10.888
		c-0.547-9.655,6.646-19.759,15.959-22.639c4.521-2.729,9.609-3.438,12.553,2.324C129.126,127.051,122.548,142.448,115.241,147.638z
		"/>
	<path style="fill:#764401;" d="M78.503,68.027c-5.748,10.158-6.248,24.055,3.467,32.025c5.773,4.737,28.619,13.046,32.057,2.246
		c-1.771-1.366-3.617-2.648-5.518-3.851c-6.68-4.225-14.555-7.294-20.199-12.978c-4.348-4.377-7.141-9.385-8.754-15.026
		C79.206,69.64,78.854,68.833,78.503,68.027z"/>
	<path style="fill:#5E2C00;" d="M107.835,45.229c3.48-6.271,6.707-13.785,4.598-20.089c-1.24-3.707-7.824-2.714-10.59-2.318
		c-2.645,0.379-5.293,1.22-7.797,2.113c-0.545,0.194-1.086,0.432-1.623,0.68c-6.15-6.298-15.434-8.369-24.016-8.33
		c-4.895,0.022-9.504,0.838-14.111,2.476c-0.656,0.233-4.055,1.742-6.074,3.01c-1.496-2.683-3.377-4.907-5.502-7.291
		c-1.633-1.831-4.961-6.238-7.941-5.252c-2.73,0.902-3.768,5.584-4.426,7.89c-1.342,4.711-1.287,9.744,0.186,14.386
		c-1.486,1.029-2.99,2.041-4.318,3.191c-3.016,2.612-5.18,5.952-6.949,9.493c-3.158,6.321-3.26,13.631-0.717,20.139
		c5.252,13.435,21.609,20.746,34.75,23.244c15.48,2.942,32.43,1.198,45.176-8.78C107.718,72.559,111.438,56.936,107.835,45.229z"/>
	<path style="fill:#F6EED4;" d="M96.183,79.726c-12.451,9.732-30.313,9.927-44.936,6.298c-11.924-2.957-24.059-9.525-29.922-20.778
		c-3.529-6.775-2.605-14.664,0.559-21.366c1.781-3.775,4.576-6.897,7.633-9.675c0.287-0.258,0.592-0.505,0.892-0.753
		c0.834-0.883,1.668-1.765,2.481-2.668c-0.277,0.215-0.551,0.435-0.836,0.642c-0.139-2.584-0.205-5.166-0.139-7.758
		c0.033-1.232,1.207-13.698,5.066-11.264c4.051,2.557,7.387,7.035,10.44,10.912c-0.395,0.304-0.646,0.573-0.695,0.785
		c0.752-0.302,1.514-0.57,2.283-0.824c2.514-1.399,5.865-2.127,8.307-2.837c4.219-1.228,8.727-1.298,13.084-1.172
		c7.363,0.213,15.258,2.151,21.127,6.777c-0.178,0.085-0.355,0.171-0.529,0.255c-0.658,0.318-0.932,0.652-1.166,0.995
		c1.297-0.202,2.641-0.651,3.908-0.78l0.08-0.011c2.434-0.754,4.926-1.293,7.486-1.688c4.908-0.758,8.9-0.257,8.859,5.19
		c-0.033,4.453-1.34,8.939-3.025,13.228c-0.481-1.209-1.051-2.363-1.707-3.45c0.43,1.861,0.539,3.854,0.707,5.665
		c0.072,0.789,0.148,1.571,0.223,2.351c0.016-0.025,0.029-0.048,0.045-0.074C108.513,59.272,105.278,72.613,96.183,79.726z"/>
	<path style="fill:#F4912E;" d="M90.997,26.3c0.174-0.084,0.352-0.17,0.529-0.255c-3.451-2.72-7.602-4.504-11.932-5.562
		c-7.711,3.632-14.717,9.063-18.654,16.474c-5.811,10.937-3.627,25.467,6.154,33.546c9.992,8.251,23.676,7.886,35.019,2.503
		c4.48-7.253,5.848-16.752,4.293-25.28c-0.016,0.026-0.029,0.049-0.045,0.074c-0.074-0.779-0.15-1.562-0.223-2.351
		c-0.168-1.811-0.277-3.804-0.707-5.665c0.656,1.087,1.226,2.241,1.707,3.45c1.685-4.289,2.992-8.774,3.025-13.228
		c0.041-5.447-3.951-5.948-8.859-5.19c-2.561,0.394-5.053,0.934-7.486,1.688l-0.08,0.011c-1.268,0.129-2.611,0.578-3.908,0.78
		C90.065,26.952,90.339,26.618,90.997,26.3z"/>
	<path style="fill:#5E2C00;" d="M58.3,62.528c-1.207-1.294-3.551-1.712-5.141-2.224c-2.414-0.779-4.56-1.286-7.103-1.478
		c-1.162-0.087-6.324-0.698-6.844,1.354c-0.688,2.721,3.432,5.553,5.572,6.374C52.3,69.436,60.728,65.131,58.3,62.528z"/>
	<g>
		<path style="fill:#5E2C00;" d="M49.407,45.573c-0.445,1.886-1.953,3.144-3.365,2.81c-1.412-0.334-2.197-2.134-1.752-4.02
			c0.447-1.888,1.955-3.145,3.367-2.811C49.069,41.888,49.853,43.687,49.407,45.573z"/>
	</g>
	<g>
		<path style="fill:#FFFFFF;" d="M47.157,43.637c-0.137,0.573-0.596,0.955-1.023,0.854c-0.43-0.103-0.668-0.648-0.533-1.222
			c0.137-0.575,0.594-0.956,1.023-0.855C47.056,42.516,47.294,43.063,47.157,43.637z"/>
	</g>
	<g>
		<path style="fill:#5E2C00;" d="M87.606,53.324c-0.445,1.886-1.953,3.143-3.365,2.81c-1.412-0.335-2.197-2.134-1.75-4.021
			c0.445-1.887,1.953-3.145,3.367-2.81C87.269,49.639,88.054,51.438,87.606,53.324z"/>
	</g>
	<g>
		<path style="fill:#FFFFFF;" d="M85.356,51.387c-0.137,0.573-0.594,0.955-1.023,0.854c-0.43-0.102-0.668-0.648-0.531-1.221
			c0.135-0.575,0.592-0.957,1.023-0.855C85.255,50.266,85.493,50.813,85.356,51.387z"/>
	</g>
	<path style="fill:#5E2C00;" d="M60.237,71.517c-0.115,1.587-0.736,2.896-1.496,4.283c-1.684,3.088-4.77,2.526-6.875,0.546
		c-1.701-1.6-2.721-4.942-3.123-7.667c0.029-0.689,0.039-1.382,0.027-2.081c-0.014-0.854,0.055-1.747,0.049-2.625
		c0.059-0.64,0.119-1.277,0.176-1.907c0.049-0.517-0.728-0.028-0.814,0.228c-1.1,3.312-0.898,7.41-0.963,10.885
		c-0.033,1.802-0.381,6.859-3.41,4.233c-1.16-1.006-1.924-2.441-2.279-3.938c-0.217,1.285,0.232,2.885,0.734,3.835
		c1.139,2.161,3.35,2.598,5.398,1.791c0.969-1.071,1.186-2.429,1.246-4.046c0.914,2.425,2.594,4.337,5.461,4.636
		c3.191,0.333,6.293-2.969,6.758-6.188C60.978,72.772,60.675,72.094,60.237,71.517z"/>
	<g>
		<path style="fill:#5E2C00;" d="M90.394,65.086c-2.26-0.835-4.668-0.468-7.006-0.162c-1.064,0.139-2.115,0.346-3.16,0.59
			c-1.451,0.547-2.814,1.219-4.031,2.034c1.824,0.111,3.902-0.602,5.717-0.834c2.641-0.339,5.297-0.313,7.934-0.63
			C90.142,66.048,90.935,65.286,90.394,65.086z"/>
		<path style="fill:#5E2C00;" d="M83.476,70.492c0.998,0.266,1.994,0.539,2.99,0.81c1.031,0.173,2.059,0.354,3.086,0.544
			c0.332,0.062,0.863-0.503,0.512-0.761c-1.869-1.372-4.537-1.337-6.766-1.546c-1.525-0.144-3.08-0.291-4.611-0.237
			C80.249,69.79,81.884,70.069,83.476,70.492z"/>
		<path style="fill:#5E2C00;" d="M81.901,75.33c0.945,0.659,1.92,1.27,2.9,1.87c0.512,0.235,1.033,0.44,1.568,0.58
			c0.488,0.128,1.387-0.509,1.01-1.05c-0.994-1.425-2.688-2.031-4.215-2.743c-1.52-0.709-3.26-1.736-4.961-1.954
			C79.052,73.38,80.835,74.584,81.901,75.33z"/>
	</g>
	<g>
		<path style="fill:#5E2C00;" d="M23.097,62.616c2.26-0.836,4.67-0.468,7.006-0.163c1.064,0.139,2.117,0.347,3.16,0.59
			c1.451,0.547,2.812,1.22,4.029,2.035c-1.824,0.11-3.9-0.603-5.715-0.835c-2.641-0.338-5.297-0.313-7.934-0.629
			C23.347,63.578,22.556,62.816,23.097,62.616z"/>
		<path style="fill:#5E2C00;" d="M30.015,68.022c-0.998,0.266-1.994,0.539-2.992,0.81c-1.027,0.173-2.057,0.354-3.084,0.544
			c-0.332,0.062-0.863-0.503-0.512-0.761c1.867-1.372,4.537-1.338,6.766-1.546c1.525-0.144,3.08-0.292,4.611-0.237
			C33.239,67.32,31.606,67.6,30.015,68.022z"/>
		<path style="fill:#5E2C00;" d="M31.589,72.859c-0.945,0.66-1.92,1.271-2.9,1.87c-0.512,0.236-1.033,0.441-1.568,0.581
			c-0.488,0.128-1.387-0.509-1.008-1.051c0.992-1.424,2.686-2.03,4.213-2.743c1.52-0.708,3.258-1.735,4.961-1.953
			C34.438,70.909,32.655,72.113,31.589,72.859z"/>
	</g>
	<path style="fill:#5E2C00;" d="M44.948,25.046c-0.898-2.345-2.266-4.572-4.047-6.345c-1.252-1.248-3.063-2.689-4.842-1.594
		c-1.637,1.009-1.883,3.005-2.043,4.737c-0.231,2.503,0.049,5.024,0.908,7.388c0.082,0.228,0.43-0.075,0.404-0.248
		c-0.258-1.803-0.166-3.536,0.053-5.335c0.098-0.809,0.281-5.446,2.043-4.597c2.83,1.367,4.844,4.215,6.965,6.407
		C44.587,25.663,45.04,25.284,44.948,25.046z"/>
	<path style="fill:#5E2C00;" d="M107.763,28.521c-2.826-4.367-10.227-0.277-13.469,1.422c-0.273,0.144-0.219,0.563,0.117,0.369
		c0.094-0.057,0.189-0.111,0.285-0.166c0.064-0.036,0.172-0.203,0.039-0.222c3.24,0.439,9.451-4.043,11.377,0.645
		c1.496,3.64-2.203,8.324-3.682,11.376c-0.168,0.346,0.271,0.318,0.426,0.111C104.956,39.246,110.249,32.366,107.763,28.521z"/>
	<path style="fill:#CDCFD0;" d="M34.208,13.134c4.574,1.258,8.162,8.025,9.738,12.821c1.148-1.351,2.518-2.586,4.016-3.606
		c-1.453-2.491-3.233-4.615-5.242-6.869c-1.633-1.831-4.961-6.238-7.941-5.252c-1.52,0.502-2.514,2.175-3.211,3.956
		C32.294,13.29,33.163,12.847,34.208,13.134z"/>
	<path style="fill:#CDCFD0;" d="M112.433,25.141c-1.24-3.707-7.824-2.714-10.59-2.318c-2.645,0.379-5.293,1.22-7.797,2.113
		c-0.545,0.194-1.086,0.432-1.623,0.68c-6.15-6.298-15.434-8.369-24.016-8.33c-2.748,0.013-5.404,0.284-8.022,0.802
		c6.231,0.423,12.371,1.431,18.148,4.127c7.475,3.488,14.174,9.714,17.824,17.207c6.438,13.212-2.115,28.548-13.436,36.075
		c-13.27,8.822-31.098,11.585-46.08,5.697c-7.158-2.813-12.695-8.27-16.125-15.086c-1.713-3.403-3.287-6.884-3.549-10.743
		c-0.074-1.082-0.098-2.163-0.102-3.243c-0.693,4.412-0.166,8.977,1.486,13.204c5.252,13.435,21.609,20.746,34.75,23.244
		c15.48,2.942,32.43,1.198,45.176-8.78c9.238-7.23,12.959-22.854,9.355-34.56C111.315,38.958,114.542,31.444,112.433,25.141z
		 M101.097,37.539c-2.342-0.803-4.391-2.426-5.172-4.836c-0.127-0.396-0.186-0.763-0.195-1.108
		c-1.047,0.376-1.902-1.159-0.842-1.714c0.873-0.456,1.828-0.907,2.824-1.322c1.035-0.598,2.365-0.994,3.717-1.249
		c1.322-0.322,2.648-0.505,3.906-0.454c0.145,0.006,0.271,0.026,0.406,0.041c0.438-0.005,0.824,0.002,1.137,0.018
		c0.475,0.024,0.766,0.321,0.879,0.676c1.816,1.305,1.635,4.099,0.039,6.422C106.421,36.017,103.819,38.473,101.097,37.539z"/>
</g>
</svg>
