<?xml version="1.0" encoding="utf-8"?>
<!-- Generator: Adobe Illustrator 27.5.0, SVG Export Plug-In . SVG Version: 6.00 Build 0)  -->
<svg version="1.1" id="Layer_1" xmlns="http://www.w3.org/2000/svg" xmlns:xlink="http://www.w3.org/1999/xlink" x="0px" y="0px"
	 viewBox="0 0 438.905 684.127" style="enable-background:new 0 0 438.905 684.127;" xml:space="preserve">
<g>
	<g>
		<path style="fill:#353536;" d="M139.805,586.7c0,0,0,8.859-25.398,10.633c-25.398,1.771-67.629-17.426-69.992-70.584
			c-2.361-53.16,31.01-82.986,35.734-88.303c0,0-2.637-1.809-9.619,2.479c0,0,3.088-5.732,5.855-7.326c0,0-4.385,1.006-6.688,3.039
			c0,0,0.514-2.23,2.572-3.357c0,0-5.223,0.465-17.389,10.59c-12.168,10.125-31.293,34.457-35.793,63.957
			c-5.076,33.285,4.012,64.305,12,79c10.125,18.625,42,69.625,104.625,33.375C135.713,620.202,145.019,601.823,139.805,586.7z"/>
		<path style="opacity:0.2;fill:#424143;" d="M139.805,586.7c0,0,0,8.859-25.398,10.633c-25.398,1.771-67.629-17.426-69.992-70.584
			c-2.361-53.16,31.01-82.986,35.734-88.303c0,0-2.637-1.809-9.619,2.479c0,0,3.088-5.732,5.855-7.326c0,0-4.385,1.006-6.688,3.039
			c0,0,0.279-1.168,1.207-2.24c-10.023,10.615-20.965,20.455-28.678,32.936c2.66-2.32,5.441-4.492,8.693-5.936
			c0.414-0.186,0.99,0.223,0.684,0.684c-12.537,18.795-18.871,40.238-20.941,62.533c0.719-1.879,1.563-3.695,2.744-5.373
			c0.287-0.404,0.904-0.262,0.932,0.254c0.498,9.16,0.6,18.502,2.988,27.424c2.404,8.986,6.475,17.685,11.283,25.633
			c2.189,3.617,4.43,7.23,7.4,10.266c2.598,2.654,5.42,5.061,8.244,7.469c5.133,4.377,10.522,8.871,13.684,14.955
			c0.178,0.346-0.045,0.734-0.432,0.754c-8.48,0.434-14.707-5.732-22.043-8.898c2.279,4.742,6.395,8.441,7.857,13.6
			c0.1,0.348-0.25,0.742-0.615,0.615c-2.516-0.883-4.99-1.904-7.355-3.141c-13.674-7.141-23.227-19.457-29.59-33.232
			c1.608,4.344,3.4,8.34,5.328,11.889c10.125,18.625,42,69.625,104.625,33.375C135.713,620.202,145.019,601.823,139.805,586.7z"/>
		<path style="opacity:0.3;fill:#424143;" d="M139.805,586.7c0,0,0,8.859-25.398,10.633c-25.398,1.771-67.629-17.426-69.992-70.584
			c-2.051-46.137,22.805-74.684,32.5-84.902c-10.451,8.572-19.25,19.242-25.689,31.109c-6.691,12.326-11.115,26.02-11.635,40.103
			c-0.582,15.742,3.113,31.256,9.313,45.662c5.361,12.457,13.297,23.836,23.148,33.156c8.307,7.855,18.549,11.381,27.906,17.506
			c1.814,1.19,3.877,2.752,5.234,4.424c0.18,0.221,0.223,0.648-0.1,0.785c-7.645,3.266-16.127,1.635-24.105,0.555
			c2.545,3.041,6.314,4.85,8.283,8.428c0.172,0.313-0.037,0.779-0.432,0.754c-1.623-0.111-3.238-0.266-4.852-0.471
			c-27.146-3.435-44.516-22.281-56.635-44.902c1.174,2.805,2.42,5.449,3.736,7.871c10.125,18.625,42,69.625,104.625,33.375
			C135.713,620.202,145.019,601.823,139.805,586.7z"/>
	</g>
	<path style="fill:#353536;" d="M400.006,631.085c-1.584-3.666-6.25-8.332-15.168-4.5c0,0-2.582-6.582-11-4.75
		c0,0-7.25-1.166-4.25-18.416s22.5-111.5,26.25-135.75s7.75-54.5,0.5-105.25s-11.5-64.25-28.75-97s-26.258-46.914-26.879-59.332
		c0,0-21.816,22.391-41.719,26.986c0,0-30.293,8.455-48.547-3.482c-18.256-11.936-21.707-17.037-21.707-17.037
		s-4.648,15.115-14.398,36.115s-25,56-28.75,77s1,24.5-8.25,48.5c-9.25,24-22.5,47.25-52.25,86.25s-42.25,61-30.5,94.25
		s29.463,52.867,27.381,66.572c-0.078,0.516-9.932,17.297-6.547,27.678c2.639,8.092,7.584,10.332,21.166,7.5
		c0,0,12.168,6.332,21.918-2.5c0,0,15.834,7.75,23.166-10.25c0,0,13.666-2.5,20.166-3s16.168,1.168,18.5,0.168
		c0,0-4.332,12.227,0.5,17.779c4.834,5.553,15.5,6.221,19,4.053c0,0,14.168,4.334,21.168-3.166c0,0,10.957,6.166,18.02-1.584
		s2.813-18.188,2.813-18.188s4.725,2.508,12.715-0.565c0,0,5.119,5.336,16.035,0.336c0,0,7.154,5.59,16.168-2.5
		c0,0,5.332,5.166,10.082-1.084c0,0-2.063,12,10.313,18.813s24.25,4.125,27.125,0.563c0,0,4.563,2.75,10.875-0.813
		c0,0,7.688,4.313,12.938-1.063S401.59,634.753,400.006,631.085z M337.195,584.677c-0.035,0.189-0.15,0.291-0.285,0.332
		c0.264,2.328-0.016,4.625-0.057,6.992c-0.053,2.977,0.34,5.949-0.016,8.918c-0.029,0.252-0.205,0.523-0.5,0.5
		c-2.266-0.18-3.484,0.637-4.957,2.164c-0.365,0.377-1.158,1.389-1.793,1.336c-1.064-0.09-1.762-0.656-2.603-1.285
		c-1.299-0.973-2.77-1.572-4.397-1.715c-2.455-0.217-4.881,0.227-7.023,1.5c-1.338,0.797-2.146,1.979-3.359,2.893
		c-1.871,1.408-4.07,0.174-6.125-0.16c-0.389-0.065-0.457-0.588-0.221-0.836c1.935-2.021,4.598-3.055,6.883-4.609
		c3.123-2.129,6.201-4.307,9.248-6.545c3.189-2.342,6.553-4.582,9.482-7.248c1.615-1.469,3.023-3.07,5.108-3.852
		c0.24-0.09,0.568,0.098,0.615,0.35C337.307,584.001,337.307,584.085,337.195,584.677z M342.98,428.622
		c-0.631,2.367-0.211,5.185-0.514,7.639c-0.348,2.824-0.783,5.639-1.111,8.465c-0.633,5.469-1.125,10.953-1.555,16.441
		c-0.256,3.26,0.535,7.623-3.207,8.957c-2.201,0.783-4.353,1.363-6.352,2.648c-1.885,1.211-3.646,2.588-5.455,3.906
		c-0.297,0.217-0.783-0.072-0.752-0.432c0.315-3.787,1.99-7.107,3.367-10.588c1.617-4.094,3.146-8.225,4.754-12.324
		c3.223-8.217,7.045-16.213,9.504-24.711c0.063-0.215,0.223-0.318,0.393-0.342C342.281,427.771,343.139,428.028,342.98,428.622z"/>
	<g>
		<path style="fill:#231F20;" d="M204.973,497.825c-2.881-14.008-5.855-29.359-13.996-41.393
			c-3.725-5.504-6.973-11.191-13.318-14.047c-5.803-2.609-12.236-0.69-17.178,2.674c-0.121,0.082-0.24,0.162-0.359,0.244
			c-0.369,0.186-0.734,0.377-1.086,0.592c-1.602,0.982-3.064,2.25-4.566,3.377c-3.008,2.256-5.975,4.645-8.691,7.244
			c-5.273,5.049-10.037,10.635-14.598,16.32c-4.73,5.895-9.094,12.254-11.957,19.275c-1.492,3.656-3.115,7.221-4.451,10.945
			c-1.039,2.893-1.51,6.014-2.35,8.973c-0.217,0.766,0.549,1.441,1.252,0.943c1.209-0.861,2.396-1.703,3.596-2.523
			c-0.824,1.422-1.553,2.889-2.188,4.428c-2.105,5.096-3.918,10.385-5.357,15.707c-1.316,4.871-1.873,9.867-2.203,14.891
			c-0.32,4.869-0.172,10.025,1.223,14.732c2.969,10.021,6.432,20.119,10.482,29.756c2.172,5.17,3.652,10.469,4.455,16.021
			c0.57,3.935,1.424,7.65,1.209,11.572c-0.822,0.607-1.543,1.25-2.088,1.857c-4.699,5.252-7.49,11.787-8.803,18.67
			c-1.188,6.217-0.207,14.035,5.316,17.926c5.125,3.607,12.268,3.25,17.603,0.348c6.549,4.492,16.125,4.242,21.227-2.604
			c1.244,1.566,3.854,2.014,5.682,2.404c3.287,0.699,7.314,0.287,10.201-1.598c3.357-2.193,5.631-4.809,7.342-8.424
			c1.686-3.563,3.26-8.596,3.08-12.574c-0.191-4.223-0.348-8.191-2.012-12.141c-1.318-3.133-3.76-5.381-6.701-6.885
			c-0.736-3.279-1.033-6.475-1.051-9.836c-0.029-5.557,1.563-11.42,2.678-16.836c1.25-6.06,3.92-11.434,6.426-17.043
			c2.268-5.082,4.256-10.324,6.648-15.34c5.109-10.713,7.068-21.705,6.41-33.541c-0.326-5.875-0.797-11.766-1.385-17.619
			c-0.555-5.531-2.178-10.836-3.818-16.121c-0.113-0.365-0.719-0.186-0.641,0.184c1.223,5.697,2.74,11.223,3.262,17.047
			c0.527,5.875,0.889,11.789,1.174,17.68c0.314,6.479-0.178,13.186-1.818,19.471c-1.443,5.52-4.1,10.631-6.209,15.904
			c-2.17,5.43-4.762,10.787-7.195,16.111c-1.168,2.555-2.322,5.074-3.18,7.754c-0.838,2.621-1.279,5.326-1.947,7.986
			c-1.287,5.125-2.221,10.938-2.08,16.219c0.063,2.383,0.35,4.775,0.781,7.152c-5.789-1.832-13.875,1.361-15.834,7.271
			c-0.977-3.158-2.193-5.021-3.041-6.191c-1.307-1.805-3.117-3.346-5.264-4.025c-2.453-0.777-4.873-0.072-7.271,0.602
			c-2.463,0.688-4.627,2.643-6.348,4.441c-0.203,0.211-0.377,0.443-0.57,0.662c-2.342-2.67-6.293-1.611-9.365,0.271
			c0.273-2.553,0.027-5.104-0.375-7.723c-0.783-5.086-1.674-9.916-3.125-14.861c-1.436-4.889-3.748-9.52-5.324-14.373
			c-1.734-5.344-4.078-10.488-5.563-15.914c-1.43-5.232-2.6-9.982-2.562-15.465c0.037-5.521,0.678-11.131,1.91-16.51
			c1.287-5.615,3.33-11.092,5.316-16.488c0.625-1.693,4.633-9.355,4.699-9.537c0.125-0.367,0.25-0.732,0.377-1.096
			c-0.598,0.795-5.283,4.428-6.914,5.594c0.498-1.926,0.955-3.861,1.463-5.787c1.004-3.805,2.854-7.43,4.408-11.021
			c3.117-7.195,7.219-13.58,12.088-19.723c4.615-5.822,9.512-11.439,14.82-16.641c2.492-2.443,5.258-4.688,7.979-6.869
			c1.262-1.012,2.502-2.051,3.777-3.045c4.508-2.719,9.115-4.955,14.666-4.127c7.639,1.139,11.445,7.838,15.346,13.701
			c8.139,12.228,11.051,27.088,14.094,41.238c3.014,14.02,2.426,28.922,0.682,43.064c-0.9,7.303-1.723,14.926-3.926,21.967
			c-1.148,3.674-2.654,7.633-4.775,10.852c-1.643,2.492-4.756,8.727-4.318,8.283c1.955-1.986,3.313-4.504,4.957-6.738
			c2.209-3.002,3.623-6.57,4.957-10.031c2.703-7.018,3.58-14.893,4.518-22.313C207.164,528.208,208.035,512.712,204.973,497.825z
			 M164.01,616.364c2.449-1.117,5.24-1.815,7.918-1.229c1.77,0.389,3.57,0.949,5.039,2.039c0.129,0.096,0.254,0.195,0.377,0.299
			c0.918,0.775,1.658,1.738,2.277,2.762c1.426,2.35,2.162,4.973,2.496,7.682c0.191,1.549,0.303,3.113,0.373,4.672
			c0.15,3.348-0.775,6.35-1.66,9.553c-0.867,3.143-2.445,6.352-4.856,8.572c-2.162,1.994-4.527,3.094-7.361,3.783
			c-2.332,0.568-7.979,0.057-9.404-2.393c1.324-2.451,1.527-5.018,1.705-7.813c0.223-3.527,0.193-7.117-0.037-10.644
			c-0.267-4.096-1.16-7.973-2.537-11.705C159.478,619.464,161.553,617.485,164.01,616.364z M145.838,612.345
			c4.926-0.924,8.551,3.393,10.334,7.777c0.307,0.859,0.59,1.723,0.846,2.59c0.008,0.033,0.02,0.068,0.027,0.102
			c0.002,0.012,0.01,0.018,0.012,0.029c2.176,7.459,2.553,15.234,1.951,23.143c-0.451,5.943-4.08,10.035-9.867,11.439
			c-5.719,1.389-12.355-1.666-15.313-6.66c-2.539-4.289-3.104-9.44-3.098-14.318c0.004-5.236,0.727-10.539,3.514-15.066
			C137.078,616.774,140.326,613.378,145.838,612.345z M130.363,616.157c0.805-0.219,1.672-0.27,2.488-0.088
			c0.209,0.047,2.199,0.879,2.172,0.912c-3.434,4.16-5.186,9.428-5.816,14.719c-0.725,6.063-0.313,12.758,2.299,18.342
			c0.982,2.102,2.406,3.881,4.102,5.311c-1.859,0.568-3.654,1.203-5.637,1.5c-2.852,0.428-5.896-0.258-8.523-1.441
			c-5.895-2.66-6.891-10.539-6.094-16.207c0.787-5.584,2.961-11.238,6.15-15.891c0.648-0.945,1.557-2.051,2.615-3.113
			c0.281-0.281,0.52-0.602,0.809-0.873C126.41,617.935,128.389,616.694,130.363,616.157z"/>
		<path style="fill:#231F20;" d="M228.232,358.294c-4.229-8.893-8.131-19.025-11.699-28.168c-2.236-5.729-2.766-11.096-0.301-16.789
			c1.979-4.566,5.117-8.363,7.977-12.383c0.719-1.008-0.338-2.598-1.555-1.979c-4.09,2.076-8.488,4.559-11.906,7.879
			c3.082-9.221,9.857-18.443,16.936-24.291c0.289-0.238-0.053-0.67-0.357-0.455c-9.303,6.586-17.277,17.742-19.867,28.936
			c-0.248,1.068,1.291,1.537,1.889,0.762c2.445-3.178,5.813-5.674,9.336-7.754c-3.842,5.303-7.449,11.197-6.803,17.813
			c0.969,9.902,6.145,20.203,10.479,29.043c11.811,24.09,26.436,47.916,33.816,55.414
			C257.113,407.271,238.994,380.935,228.232,358.294z"/>
		<path style="fill:#231F20;" d="M345.221,317.073c-2.027-7.23-12.436-16.422-20.217-11.453c-0.242,0.154-0.045,0.52,0.209,0.486
			c7.143-0.971,13.736,3.527,17.576,9.301c-2.959-1.688-5.885-3.146-9.588-2.486c-0.565,0.1-0.984,0.732-0.711,1.283
			c0.666,1.342,2.379,2.057,3.48,3.002c3.656,3.135,5.549,8.252,3.094,12.85c-0.166,0.309,0.307,0.541,0.512,0.293
			c2.029-2.48,1.853-6.32,1.051-9.244c-0.361-1.318-1.133-2.494-1.914-3.594c-0.779-1.094-2.385-1.922-3.504-2.855
			c3.213,0.119,6.258,1.832,9.137,3.105C344.754,317.94,345.353,317.55,345.221,317.073z"/>
		<path style="fill:#231F20;" d="M355.367,350.94c-0.355-0.176-0.594-0.107-1.018-0.09c-1.186,0.053-2.289,0.402-3.527,0.344
			c-2.873-0.139-6.111-1.621-8.484-3.16c-0.301-0.195-0.584,0.195-0.33,0.436c2.48,2.361,6.893,4.328,10.416,3.93
			c0.063-0.006,0.123-0.016,0.186-0.021c-0.377,0.24-0.748,0.49-1.129,0.717c-2.635,1.572-5.811,1.549-8.746,1.137
			c-0.631-0.088-0.742,0.734-0.26,1.004c2.615,1.473,5.693,1.529,8.391,0.236c1.521-0.73,4.404-2.232,4.82-3.992
			C355.74,351.249,355.559,351.034,355.367,350.94z"/>
		<path style="fill:#231F20;" d="M299.359,386.009c-4.307,0.916-7.73,4.318-9.492,8.322c-0.033-1.568-0.016-3.049,0.414-4.607
			c0.898-3.262,2.68-5.23,5.229-7.361c0.139-0.117-0.027-0.328-0.174-0.221c-2.963,2.17-4.408,3.891-5.719,7.311
			c-0.615,1.603-0.594,3.283-0.641,4.975c-0.021,0.834-0.285,1.912,0.055,2.697c0.168,0.387,0.811,0.428,0.951-0.01
			c0.752-2.332,1.963-4.285,3.582-6.109c1.76-1.982,3.717-3.022,6.023-4.207C299.984,386.595,299.844,385.907,299.359,386.009z"/>
		<path style="fill:#231F20;" d="M282.779,374.237c-3.596,3.223-8.031,5.805-12.879,3.291c-0.453-0.236-1.037,0.346-0.781,0.797
			c2.188,3.865,6.289,6.717,10.775,6.83c0.305,0.008,0.361-0.416,0.057-0.473c-3.332-0.623-6.586-2.59-8.701-5.318
			c4.441,1.27,9.455-0.777,11.855-4.807C283.23,374.349,282.99,374.05,282.779,374.237z"/>
		<path style="fill:#231F20;" d="M275.621,363.327c-3.23-3.617-3.707-7.363-3.068-12.01c0.063-0.445-0.533-0.846-0.889-0.5
			c-1.939,1.887-3.752,3.967-5.777,5.77c-0.43-2.152-0.289-4.566-0.105-6.676c0.143-1.666,1.049-3.457,0.932-5.1
			c-0.027-0.383-0.453-0.664-0.814-0.602c-0.496,0.088-0.645,0.186-1.059,0.504c-1.037,0.799-2.402,1.205-3.602,1.713
			c-1.854,0.785-3.565,0.855-5.514,0.531c-0.455-0.074-2.102-0.197-3.107-0.488c4.551-1.932,9.101-4.32,11.572-8.859
			c0.162-0.299-0.301-0.527-0.498-0.283c-3.432,4.223-7.746,6.535-12.75,8.359c-0.35,0.127-0.498,0.574-0.355,0.9
			c0.857,1.959,5.971,2.035,7.668,2.045c1.508,0.008,2.977-0.645,4.334-1.219c0.699-0.297,1.404-0.572,2.094-0.887
			c0.123-0.055,0.252-0.145,0.383-0.246c-0.111,0.357-0.23,0.705-0.291,0.978c-0.322,1.432-0.473,2.861-0.467,4.326
			c0.008,2.174-0.074,4.418,0.576,6.52c0.129,0.418,0.73,0.522,1.041,0.264c1.92-1.6,3.75-3.502,5.402-5.443
			c-0.15,4.084,0.934,7.469,4.063,10.586C275.52,363.642,275.752,363.472,275.621,363.327z"/>
		<path style="fill:#231F20;" d="M309.24,350.186c-1.377-0.867-2.66-1.832-3.908-2.877c-1.541-1.291-2.227-2.609-3.316-4.191
			c-0.193-0.281-0.734-0.156-0.734,0.205c-0.006,1.459,0.18,2.986,0.574,4.389c0.416,1.469,1.293,2.672,1.945,4.004
			c-3.672,0.119-7.022-0.717-9.693,2.59c-0.367,0.455,0.066,1.119,0.617,1.039c1.754-0.25,3.721-0.324,5.465,0.006
			c0.793,0.15,1.68,0.287,2.488,0.293c0.254,0-0.967,2.113-1.162,2.451c-1.693,2.934-2.002,6.291-1.353,9.561
			c0.031,0.166,0.246,0.232,0.355,0.09c0.818-1.078,1.517-2.016,2.629-2.84c1.51-1.119,3.447-1.488,5.184-2.088
			c0.316-0.109,0.145-0.551-0.15-0.529c-2.799,0.197-5.426,1.436-7.258,3.574c-0.191,0.225-0.359,0.51-0.432,0.799
			c0.172-0.676,0.066-1.578,0.15-2.281c0.242-1.986,0.961-3.951,1.83-5.74c0.547-1.125,2.555-3.377,0.471-4.016
			c-1.979-0.605-4.27-0.826-6.434-0.738c2.406-1.518,5.449-0.67,8.342-0.955c0.385-0.039,0.685-0.531,0.49-0.885
			c-1.391-2.494-2.639-4.645-3.086-7.381c2.016,2.309,3.992,4.176,6.846,5.77C309.242,350.515,309.379,350.272,309.24,350.186z"/>
		<path style="fill:#231F20;" d="M329.504,370.505c-0.93,4.006-2.854,7.553-5.334,10.75c0.709-3.633,0.68-7.277-0.984-10.772
			c-0.105-0.219-0.43-0.078-0.344,0.148c1.496,3.947,1.352,8.629-0.191,12.516c-0.234,0.59,0.529,0.965,0.922,0.525
			c3.252-3.623,6.313-8.088,6.809-13.063C330.439,370.03,329.631,369.962,329.504,370.505z"/>
		<path style="fill:#231F20;" d="M402.861,635.944c-0.693-3.869-2.273-7.486-4.949-9.69c-3.482-2.863-8.293-1.635-12.266-0.723
			c-4.863-4.43-10.662-6.223-15.945-1.332c-1.652-1.908-3.553-4.314-6.158-4.879c-2.691-0.582-5.086,1.191-6.814,3.059
			c-0.758,0.82-7.689,11.566-5.42,12.078c0.854,0.191,2.471-3.209,2.77-3.719c1.225-2.084,2.367-4.301,3.986-6.113
			c3.078-3.447,6.611-2.309,9.129,1.158c1.891,2.607,2.963,5.768,3.725,8.865c1.277,5.195,2.486,10.748,1.584,16.104
			c-0.361,2.137-1.164,4.27-3.244,5.232c-6.086,2.816-12.887-0.461-18.195-3.494c-7.441-4.25-11.535-10.744-12.397-19.27
			c-1.584-7.414-0.699-15.658-0.668-23.189c0.057-13.48-0.06-26.949,0.57-40.418c0.602-12.869,0.76-25.715,1.002-38.594
			c0.24-12.893-0.365-25.895,0.6-38.76c1.828-24.361,0.188-50.129,7.051-73.824c2.029-4.695,4.031-9.488,5.461-14.293
			c0.996-3.342,1.816-8.156,0.728-11.771c2.199-3.201,4.129-6.584,5.688-10.188c4.234-9.791,5.629-20.883,6.004-31.449
			c0.404-11.457-0.941-22.488-3.02-33.738c-1.193-6.465-3.902-15.008-9.045-20.037c1.715,0.443,3.357,1.109,4.977,2.217
			c0.76,0.522,1.863-0.232,1.447-1.137c-3.449-7.516-10.539-13.668-17.447-17.852c-0.32-0.193-0.625,0.207-0.35,0.461
			c4.832,4.436,11.703,9.104,14.893,15.297c-2.291-1.168-4.611-1.494-7.592-1.83c-1.244-0.141-1.563,1.506-0.527,2.035
			c9.461,4.84,10.727,19.172,12.168,28.27c1.59,10.025,2.117,19.721,1.619,29.873c-0.438,8.975-2.074,18.58-5.645,26.859
			c-3.17,7.35-7.945,13.881-13.604,19.565c0.104-3.141,0.283-6.268,0.133-9.453c-0.057-1.19-1.906-1.092-2.045,0.031
			c-0.596,4.85-3.484,8.781-6.273,12.574c-2.756,3.748-5.133,6.287-7.918,9.459c-0.621,0.705,7.322-5.682,10.668-10.41
			c1.004-1.416,2.063-3.002,2.998-4.664c-0.148,1.852-0.275,3.699-0.277,5.504c-0.002,1.033,1.195,2.098,2.152,1.211
			c3.668-3.4,7.014-7.086,9.924-11.074c0.201,5.779-2.902,12.209-5.113,17.1c-3.318,7.342-6.4,14.826-9.301,22.359
			c-5.469,14.209-11.189,28.311-16.105,42.719c-3.953,11.582-9.094,24.396-8.855,36.818c0.139,7.17,1.639,14.387,2.152,21.555
			c0.406,5.682-0.363,2.186-1.17-0.301c-0.969-2.994-1.938-5.857-3.522-8.559c-0.965-4.336-2.775-8.5-5.996-11.367
			c-0.482-0.43-1.182,0.31-0.781,0.797c5.906,7.195,6.074,18.44,3.82,26.955c-2.139,8.08-8.041,14.639-13.766,20.371
			c-5.818,5.826-12.326,10.873-18.26,16.568c-2.147,2.063-4.432,4.6-6.012,7.404c-0.051-1.393-0.09-2.783-0.105-4.166
			c-0.203-17.621,0.275-35.404,0.846-53.018c0.551-16.934,1.254-32.959-2.332-49.664c-1.496-6.971-3.85-14.033-6.135-20.789
			c-1.094-3.229-2.635-6.285-4.406-9.186c-0.715-1.17-1.678-2.225-2.631-3.287c1.904,1.145,3.838,2.229,6.035,2.947
			c1.146,0.375,2.25-0.885,1.449-1.92c-7.922-10.248-18.141-31.66-20.094-36.309c-1.891-4.498-2.893-9.297-4.889-13.732
			c-0.162-0.361-0.789-0.209-0.685,0.195c1.082,4.199,1.797,8.33,3.299,12.414c5.123,13.928,13.336,28.93,17.537,34.922
			c-2.223-1.313-4.34-2.805-6.621-4.008c-1.201-0.635-2.121,0.818-1.799,1.84c0.664,2.105,1.953,3.389,3.41,4.977
			c2.826,3.074,4.664,6.803,6.293,10.602c3.135,7.313,5.301,15.725,6.947,23.512c3.713,17.551,2.078,35.014,1.57,52.768
			c-0.49,17.131-1.076,34.498-0.609,51.627c0.232,8.461,1.256,17.104,2.871,25.406c0.869,4.467,2.566,8.555,4.406,12.604
			c-0.332-0.145-0.676-0.27-1.031-0.365c-5.566-1.486-11.102,1.953-12.895,7.272c-1.082-2.461-2.439-4.693-4.695-6.225
			c-1.219-0.977-2.631-1.715-4.248-2.088c-5.242-1.209-10.855,0.289-14.16,4.693c-0.947,1.264-1.75,2.59-2.445,3.957
			c-0.039-0.049-0.09-0.086-0.131-0.133c1.898-6.875,2.875-14.223,3.563-20.828c0.111-1.078,0.205-2.158,0.299-3.236
			c0.08-0.18,0.172-0.355,0.242-0.539c0.121-0.309,0.051-0.637-0.115-0.904c0.81-10.178,0.846-20.371,0.596-30.592
			c-0.6-24.602-6.758-49.436-15.48-72.297c-9.139-23.957-19.543-47.492-26.336-72.23c-3.268-11.902-6.68-23.529-8.926-35.695
			c-1.104-5.971-1.594-12.053-2.875-17.986c-1.094-5.051-0.926-10.432-2.451-15.34c-0.131-0.42-0.859-0.213-0.744,0.215
			c1.141,4.228-0.039,9.285,0.631,13.75c0.896,5.977,1.451,11.99,2.379,17.963c1.814,11.713,4.672,23.031,8.043,34.375
			c3.529,11.879,6.707,23.455,11.424,34.965c4.619,11.273,8.754,22.727,13.242,34.057c4.758,12.01,9.627,24.037,12.014,36.771
			c2.252,12.014,4.9,24.004,5.754,36.229c0.891,12.773,0.545,25.256-0.881,37.627c-3.033,2.918-6.082,5.603-9.557,8.15
			c-2.453,1.799-5.039,3.424-7.676,4.943c-2.426,1.398-6.027,3.748-8.924,3.752c-0.674,0-0.814,0.928-0.127,1.055
			c4.504,0.83,10.875-2.824,14.473-5.119c3.398-2.168,7.791-4.613,11.16-7.707c-0.787,5.645-1.785,11.273-2.998,16.898
			c-2.063-0.326-3.75,0.756-5.154,2.229c-4.209,4.418-7.342,10.469-7.551,16.652c-0.221,6.496,1.822,11.922,7.854,14.988
			c2.555,1.301,5.51,2.188,8.396,2.018c1.971-0.115,4.631-0.891,6.121-2.34c4.389,1.492,9.83,1.236,13.943,0.018
			c2.422-0.717,4.393-1.719,5.873-3.182c1.813,2.672,5.324,2.998,8.23,3.381c3.26,0.43,6.77-0.969,9.221-3.07
			c5.826-4.996,6.307-12.227,5.111-19.35c-0.084-0.5-0.18-0.994-0.287-1.484c3.055,2.789,7.564,1.963,11.463,1.045
			c0.043-0.01,0.07-0.035,0.108-0.049c0.594,0.42,1.23,0.816,1.973,1.17c1.459,0.693,3.549,0.727,5.131,0.9
			c2.209,0.242,4.57-0.189,6.699-0.736c0.764-0.195,1.502-0.516,2.213-0.912c1.26,1.516,4.021,1.846,5.809,1.877
			c3.387,0.059,6.596-1.096,9.357-3.018c0.4-0.279,0.772-0.6,1.131-0.938c1.68,2.867,7.605,2.928,9.607,0.344
			c0.193,0.869,0.414,1.713,0.676,2.518c1.627,4.967,4.264,9.037,8.377,12.037c6.158,4.49,16.074,7.756,23.711,5.947
			c1.848-0.438,3.859-1.783,4.885-3.418c3.242,2.281,7.248,0.959,10.584-0.338c3.391,1.523,7.047,2.961,10.684,1.336
			c3.703-1.652,6.096-5.547,7.25-9.287C403.338,644.491,403.603,640.075,402.861,635.944z M328.361,465.729
			c2.412-6.935,6.184-13.352,8.434-20.334c1.565-4.85,3.295-9.637,5.154-14.375c-1.49,7.959-2.107,16.113-2.627,24.201
			c-0.293,4.535-0.604,9.08-0.908,13.629c-4.459,1.455-9.719,3.541-13.539,6.805C326.027,472.335,327.215,469.028,328.361,465.729z
			 M227.48,662.067c-5.223-2.313-7.844-7.172-7.605-12.795c0.18-4.232,1.377-8.082,3.535-11.723c1.266-2.137,2.787-4.185,4.713-5.77
			c1.211-0.996,3.414-1.191,4.213,0.422c0.846,1.379-0.02,5.131-0.984,8.348c-0.297,1.68-0.5,3.387-0.605,5.117
			c-0.361,6.014,1.402,12.231,6.607,15.754c0.449,0.303,0.928,0.568,1.424,0.815C235.229,664.108,231.164,663.698,227.48,662.067z
			 M256.217,660.396c-4.525,1.885-10.916,2.418-15.521,0.57c-10.406-4.174-9.236-18.203-5.539-27.164
			c0.143-0.107,0.232-0.291,0.207-0.488c0.229-0.529,0.465-1.043,0.709-1.531c2.596-5.186,7.287-8.131,13.072-7.535
			c3.293,0.34,5.658,2.227,7.537,4.633c1.24,1.857,2.084,3.979,2.977,6.32c1.816,4.768,2.603,9.5,2.328,14.611
			C261.74,654.409,260.787,658.493,256.217,660.396z M278.014,657.44c-1.635,2.037-4.479,3.404-6.98,3.889
			c-2.852,0.553-7.385-0.277-9.238-2.631c-0.084-0.106-0.176-0.178-0.271-0.234c0.816-1.182,1.404-2.596,1.738-4.309
			c1.129-5.789,0.967-12.164-1.244-17.688c-0.549-1.373-1.047-2.783-1.592-4.152c1.174-1.973,2.223-3.926,4.059-5.414
			c2.328-1.887,6.225-2.701,8.9-1.106c3.477,2.074,5.229,5.69,6.344,9.438c0.57,1.914,1.025,3.861,1.395,5.824
			C282.236,647.003,281.906,652.587,278.014,657.44z M306.982,640.05c-3.207,0.826-6.93,0.729-10.117-0.188
			c-3.543-1.018-5.102-4.498-7.147-7.16c-0.33-0.43-1.078-0.006-0.824,0.492c1.154,2.273,2.203,4.188,3.74,5.752
			c-3.463,0.762-7.219,1.232-10.264-0.877c-0.748-2.879-1.869-5.605-3.186-8.318c-0.412-0.852-0.928-1.691-1.521-2.475
			c-2.207-5.932-4.609-11.758-5.76-18.031c-1.09-5.932-1.822-12.027-2.225-18.111c3.242-7.479,10.725-12.75,16.725-17.894
			c1.172-1.004,2.379-2.041,3.594-3.107c-4.84,8.188-8.057,18.475-8.568,27.707c-0.039,0.707,1.053,1.088,1.273,0.332
			c1.463-5.012,2.377-10.072,4.164-15.008c1.643-4.543,3.721-8.824,6.117-13.025c5.758-10.094,16.332-16.006,24.121-24.266
			c0.266-0.281-0.186-0.707-0.475-0.467c-3.814,3.178-8.162,5.58-12.029,8.668c3.711-6.117,6.998-13.066,6.779-20.404
			c-0.043-1.44-0.152-2.945-0.34-4.467c1.232,3.543,1.99,7.229,3.486,10.602c0.096,0.215,0.445,0.297,0.582,0.07
			c2.545-4.232,1.295-9.848,1.068-14.518c-0.348-7.121-2.143-14.248,0.057-21.252c0.869-2.77,1.15-5.697,2.074-8.478
			c1.137-3.43,2.355-6.781,3.391-10.25c0.303-1.016,0.635-2.027,0.957-3.039c1.141-1.348,2.141-2.77,3.529-3.965
			c1.533-1.322,3.264-2.389,4.93-3.533c2.041-1.404,4.877-2.123,7.127-3.389c-0.691,10.518-1.313,21.055-1.504,31.559
			c-0.285,15.566-0.262,31.145-0.467,46.715c-0.141,10.746-0.688,21.461-1.027,32.191c-8.473,7.863-18.982,15.185-28.943,20.844
			c-9.272,5.268-18.908,9.996-22.397,20.832c-0.211,0.654,0.729,1.309,1.117,0.637c1.377-2.379,2.756-4.646,4.471-6.801
			c1.363-1.711,3.266-3.037,5.111-4.357c-1.973,2.654-3.121,5.789-2.736,8.979c0.043,0.365,0.543,0.314,0.611-0.01
			c1.439-6.875,6.289-13.203,13.596-14.313c3.816-0.58,7.785,2.252,9.236,5.658c1.332,3.125,1.141,6.938,1.125,10.252
			C316.402,630.333,314.393,638.138,306.982,640.05z M334.982,600.399c-2.205-0.59-5.426,1.713-6.26,4.027
			c-1.059-1.037-2.283-1.934-3.699-2.617c-2.305-1.111-5.941-0.676-8.25,0.137c-1.227,0.432-2.551,1.299-3.428,2.252
			c-0.66,0.717-1.236,1.496-1.898,2.215c-0.152,0.164-0.238,0.283-0.291,0.379c-1.453-0.654-3.021-1.006-4.563-0.873
			c-0.148,0.014-0.299,0.047-0.447,0.064c1.365-0.699,2.709-1.435,3.978-2.307c8.135-5.582,18.451-10.982,25.029-18.744
			c-0.121,4.422-0.199,8.846-0.184,13.275C334.975,598.938,334.98,599.669,334.982,600.399z M320.353,640.073
			c-1.564,0.584-3.254,0.684-4.904,0.664c-0.879-0.012-2.701-0.338-3.664-1.033c1.734-1.332,3.219-3.102,4.273-4.805
			c2.432-3.926,2.186-9.039,2.178-13.461c-0.006-3.662-0.236-7.85-2.453-10.924c-0.855-1.186-2.022-2.232-3.334-3.039
			c1.008-2.143,4.152-3.828,6.188-4.271c2.52-0.547,5.377-0.074,7.477,1.367c4.848,3.328,6.014,9.766,5.715,15.205
			c-0.287,5.199-1.752,11.519-5.072,15.656C324.949,637.683,323.064,639.063,320.353,640.073z M335.611,636.108
			c-1.484,0.547-2.447,1.656-4.078,2.018c-0.951,0.211-2.033-0.16-2.906-0.506c-0.266-0.127-0.525-0.27-0.781-0.416
			c1.336-1.709,2.35-3.748,3.205-5.611c1.738-3.779,2.48-8.42,2.711-12.533c0.26-4.644-0.896-9.519-3.701-13.143
			c0.119-0.184,0.227-0.375,0.354-0.559c0.33-0.475,0.908-0.941,1.352-1.31c0.92-0.77,2.066-1.152,3.232-1.006
			c0.035,5.945,0.078,11.891,0.047,17.834c-0.025,4.598-0.107,10.18,0.605,15.225C335.637,636.104,335.625,636.104,335.611,636.108z
			 M374.893,653.216c1.395-4.742,0.703-9.689-0.266-14.604c-0.576-2.91-1.844-8.303-4.006-12.666
			c6.922-5.635,13.768,2.318,16.51,8.537c1.697,3.848,1.19,8.404,0.295,12.361C386.045,652.958,380.285,654.534,374.893,653.216z
			 M398.881,647.771c-1.767,5.764-6.711,6.768-11.822,6.217c0.15-0.127,0.301-0.256,0.434-0.385
			c4.547-4.449,4.775-12.563,3.412-18.412c-0.631-2.701-2.105-5.729-4.115-8.281c2.766-0.777,5.301-0.219,7.963,1.066
			c3.402,1.645,3.828,5.268,4.44,8.533C399.908,640.347,400.045,643.974,398.881,647.771z"/>
	</g>
	<path style="fill:#353536;" d="M236.131,218.577c19.955,13.211,41.498,14.484,64.666,9.406c11.81-2.59,25.709-8.924,35.625-16.141
		c0.93-0.676,2.813-1.836,3.705-2.553c-0.002-3.168-1.734-9.854-1.754-12.42c-0.021-3.033-0.059-6.068-0.143-9.102
		c-0.074-2.674-0.186-5.348-0.355-8.018c-0.223-3.479-0.223-7.578-0.992-11.289c-2.697,1.756-5.484,3.373-8.363,4.811
		c-11.463,5.719-23.58,8.494-36.373,8.818c-13.371,0.34-27.133,0.078-40.369-1.977c-5.432-0.844-10.658-2.26-15.961-3.656
		c-1.188-0.314-2.838-0.627-4.422-1.125c-0.459,3.475,0.809,22.545,1.068,24.443C232.916,203.099,235.248,215.31,236.131,218.577z"
		/>
	<path style="opacity:0.2;fill:#424143;" d="M338.373,196.87c-0.008-1.234-0.023-2.469-0.039-3.703
		c-4.027,3.674-8.586,6.811-13.203,9.75c-4.135,2.635-8.732,5.283-13.621,6.182c-2.326,0.428-2.818-1.52-2.838-3.43
		c-0.033-3.461-0.539-7.498,2.365-9.994c1.615-1.391,3.736-2.131,5.23-3.676c1.545-1.598,2.365-3.568,3.613-5.369
		c0.795-1.148,2.117-2.205,3.566-2.301c2.385-0.158,4.619,0.033,6.98-0.512c2.426-0.561,5.178-1.275,7.527-2.537
		c-0.027-0.51-0.049-1.02-0.08-1.529c-0.223-3.479-0.223-7.578-0.992-11.289c-2.697,1.756-5.484,3.373-8.363,4.811
		c-11.463,5.719-23.58,8.494-36.373,8.818c-13.371,0.34-27.133,0.078-40.369-1.977c-5.432-0.844-10.658-2.26-15.961-3.656
		c-1.188-0.314-2.838-0.627-4.422-1.125c-0.191,1.451-0.082,5.619,0.129,10.121c1.164,0.52,2.336,1.021,3.523,1.488
		c2.436,0.957,5.365,1.537,7.613,2.873c1.871,1.109,3.027,2.854,4.635,4.267c1.959,1.723,4.178,2.449,6.568,3.363
		c1.547,0.594,3.33,1.25,4.055,2.896c0.748,1.697,0.807,3.449,1.045,5.264c0.281,2.139,2.561,6.725,0.26,8.48
		c-2.85,2.17-7.635,0.102-10.313-1.432c-3.775-2.162-6.85-4.992-9.258-8.629c-2.199-3.318-3.785-7.033-6.289-10.143
		c-0.332-0.414-0.854-1.057-1.473-1.736c0.236,3.803,0.475,6.918,0.572,7.629c0.453,3.322,2.785,15.533,3.668,18.801
		c19.955,13.211,41.498,14.484,64.666,9.406c11.81-2.59,25.709-8.924,35.625-16.141c0.93-0.676,2.813-1.836,3.705-2.553
		C340.125,206.122,338.393,199.436,338.373,196.87z"/>
	<path style="opacity:0.2;fill:#424143;" d="M399.787,642.032c-2.438,0.473-3.488-2.912-4.156-5.006
		c-0.5-0.897-0.83-1.934-1.033-2.615c-0.057-0.193-0.119-0.383-0.18-0.574c-1.604-3.68-3.986-7.236-8.217-7.768
		c-0.441,0.15-0.893,0.314-1.363,0.516c0,0-0.865-2.178-3.199-3.68c3.535,3.031,5.435,8.199,6.035,12.525
		c0.279,2.012,0.721,11.037-3.805,8.16c-2.322-1.477-2.336-5.002-3.615-7.154c-1.457-2.447-4.065-3.955-5.525-6.393
		c-1.129-1.885-1.545-4.301-0.221-6.242c1.125-1.654,2.232-1.996,3.615-2.047c-0.02-0.045-0.033-0.094-0.041-0.143
		c-1.215-0.166-2.617-0.131-4.244,0.223c0,0-3.807-0.619-4.76-7.529c-2.131-2.746-3.648-6.197-4.801-8.984
		c-3.027-7.316-5.111-15.211-6.447-23.004c-2.574-15.023-2.432-30.318-1.752-45.496c0.719-16.029,1.654-32.035,3.369-47.992
		c1.689-15.727,3.949-31.398,6.988-46.924c0.836-4.279,1.729-8.549,2.674-12.807c1.713-20.42,6.426-40.486,8.164-60.912
		c1.84-21.633,0.609-44.473-12.367-62.766c-0.285-0.402,0.281-0.973,0.686-0.684c2.147,1.537,4.465,2.564,7.1,2.465
		c-2.508-9.379-8.191-17.693-13.682-25.563c-2.676-3.834-5.316-7.695-7.994-11.527c-2.445-3.5-5.215-6.889-7.119-10.732
		c-3.783-7.635-2.709-14.93,0.892-22.387c1.229-2.545,2.574-5.082,3.719-7.66c-4.865-9.813-7.475-16.771-7.799-23.246
		c0,0-21.816,22.391-41.719,26.986c0,0-30.293,8.455-48.547-3.482c-18.256-11.936-21.707-17.037-21.707-17.037
		s-3.365,10.936-10.367,27.123c0.445,3.381,1.135,6.703,2.049,10.098c2.338,8.672,1.858,16.496-1.545,24.813
		c-7.205,17.615-22.436,34.037-21.883,54.033c2.559-1.006,4.34-3.32,7.049-4.102c0.326-0.094,0.617,0.164,0.633,0.482
		c0.445,8.68,0.875,17.395,2.197,25.994c1.287,8.375,3.307,16.695,5.842,24.779c4.572,14.592,10.803,28.557,16.826,42.59
		c4.682,5.537,9.504,10.973,13.988,16.617c0.211,0.266,0.188,0.758-0.221,0.836c-2.66,0.512-5.305-0.078-7.975-0.016
		c2.33,4.307,5.943,7.693,8.461,11.879c3.748,6.229,6.779,13.125,9.363,19.914c2.635,6.914,4.654,13.998,5.639,21.344
		c2.16,16.135,0.119,31.932-2.439,47.871c-2.547,15.871-7.34,30.137-6.766,46.359c1,28.25-7.434,40.422-10.117,37.928
		c-2.361-2.191,7.617-45.428-8.436-92.178c-2.559-7.449-5-14.936-7.666-22.346c-2.66-7.389-5.877-14.557-8.645-21.906
		c-5.537-14.711-10.225-29.727-14.416-44.871c-4.205-15.195-8.195-30.49-11.5-45.906c-1.721-8.023-3.348-16.076-4.561-24.193
		c-0.586-3.93-1.074-7.76-1.988-11.471c-0.656,3.154-1.637,6.721-3.115,11.008c-2.424,20.891-6.52,41.742-18.227,59.484
		c-7.832,11.867-18.435,21.482-28.451,31.447c-10.234,10.182-19.834,21.129-26.986,33.744c-7.02,12.377-11.588,26.455-11.664,40.789
		c-0.041,7.643,1.225,15.174,3.226,22.535c1.024,3.77,2.174,7.502,3.377,11.219c0.373,1.15,0.787,2.295,1.195,3.439
		c10.639,23.133,22.045,38.197,20.355,49.346c3.025-3.223,8.463-8.248,9.59-4.557c0.303,0.994-0.533,2.268-0.957,3.074
		c-1.068,2.031-2.115,4.113-2.715,6.342c-0.69,2.559-0.834,5.416-1.986,7.826c-1.5,3.137-5.467,3.76-6.621,0
		c-0.504-1.639-0.73-3.752-0.578-5.811c-2.543,5.945-5.324,14.539-3.281,20.807c2.639,8.092,7.584,10.332,21.166,7.5
		c0,0,12.168,6.332,21.918-2.5c0,0,15.834,7.75,23.166-10.25c0,0,13.666-2.5,20.166-3c6.443-0.494,15.986,1.135,18.428,0.189
		c1.498-2.336,2.762-4.875,4.596-6.914c1.221-1.357,2.953-3.268,4.83-3.686c1.516-0.336,2.338,0.455,2.6,1.918
		c0.617,3.426-2.947,5.137-3.516,8.223c-0.641,3.482,0.971,14.445-5.736,13.418c-3.338-0.514-4.355-3.182-4.279-6.033
		c-0.459,3.721-0.309,8.09,2.078,10.832c4.834,5.553,15.5,6.221,19,4.053c0,0,14.168,4.334,21.168-3.166
		c0,0,10.957,6.166,18.02-1.584s2.813-18.188,2.813-18.188s4.725,2.508,12.715-0.565c0,0,5.119,5.336,16.035,0.336
		c0,0,7.154,5.59,16.168-2.5c0,0,5.332,5.166,10.082-1.084c0,0-2.063,12,10.313,18.813s24.25,4.125,27.125,0.563
		c0,0,4.563,2.75,10.875-0.813c0,0,7.688,4.313,12.938-1.063c2.746-2.811,3.57-7.777,3.512-12.406
		C401.178,641.509,400.598,641.876,399.787,642.032z M131.492,598.683c-4.16-16.779-17.5-29.803-19.961-47.422
		c-0.965-6.908-0.523-14.068,0.875-20.889c1.358-6.625,3.211-13.283,7.063-18.93c1.592-2.334,3.371-4.52,5.209-6.658
		c-2.871,1.314-5.637,2.873-8.254,4.648c-0.334,0.229-0.73-0.08-0.752-0.432c-0.59-9.441,6.639-17.971,11.549-25.395
		c5.15-7.787,10.711-15.772,17.941-21.791c4.348-3.619,10.555-8.209,16.516-5.859c4.547,1.793,7.127,6.955,8.764,11.234
		c2.83,7.404,4.107,15.344,5.113,23.174c1.5,11.678,2.209,23.254,0.824,35c-1.531,12.988-4.857,25.803-8.93,38.213
		c-3.219,9.805-9.846,21.18-6.598,31.752c1.332,4.336,5.766,8.313,5.424,13.1c-0.525,7.379-9.078,3.719-12.217,0.793
		c-2.557-2.383-5.844-3.654-9.072-1.654c-1.898,1.178-3.73,2.508-5.963,2.988c-3.674,0.791-5.613-1.225-6.318-4.715
		C132.228,603.47,132.074,601.032,131.492,598.683z M151.801,643.429c-3.805,1.74-8.951,0.736-12.221-1.723
		c-3.539-2.66-5.486-6.541-6.084-10.885c-0.773-5.615,2.008-15.004,7.438-17.719c2.604-1.992,6.158-3.131,9.109-1.898
		c4.291,1.791,6.887,6.363,8.051,10.69C160.025,629.069,159.623,639.853,151.801,643.429z M181.9,635.374
		c-1.143,3.027-4.359,6.273-7.899,5.654c-3.517-0.617-5.598-4.061-6.971-7.059c-1.631-3.561-4.156-7.424-4.873-11.291
		c-0.607-3.279,0.746-5.904,3.736-7.096c2.832-1.678,6.631-2.041,9.621-0.619c3.461,1.644,5.479,5.098,6.412,8.713
		C182.9,627.435,183.299,631.675,181.9,635.374z M259.727,642.417c-0.402,4.465-2.863,8.146-7.207,9.652
		c-4.492,1.557-9.777,0.982-13.496-2.139c-5.32-4.467-5.932-11.279-3.418-17.008c-0.225-0.121-0.369-0.391-0.199-0.674
		c2.457-4.084,6.629-8.842,11.404-8.99c2.131-0.371,4.316-0.063,6.174,1.375c2.645,2.047,4.267,5.402,5.217,8.539
		c0.039,0.129,0.076,0.264,0.113,0.396C259.453,636.454,259.986,639.56,259.727,642.417z M279.322,649.913
		c-2.559,1.865-7.207,2.184-9.463-0.391c-1.238-1.416-1.815-3.063-2.17-4.889c-0.348-1.789-0.096-3.727-0.699-5.465
		c-0.508-1.465-1.344-2.43-2.273-3.635c-1.045-1.352-1.77-3.199-1.773-4.965c-0.066-0.1-0.107-0.223-0.088-0.367
		c0.068-0.494,0.197-0.969,0.371-1.424c0.117-0.346,0.273-0.676,0.473-0.988c1.342-2.301,4.006-3.809,6.764-3.582
		c3.939,0.322,6.492,3.277,7.941,6.754C280.289,635.478,284.559,646.099,279.322,649.913z M337.195,584.677
		c-0.035,0.189-0.15,0.291-0.285,0.332c0.264,2.328-0.016,4.625-0.057,6.992c-0.053,2.977,0.34,5.949-0.016,8.918
		c-0.029,0.252-0.205,0.523-0.5,0.5c-2.266-0.18-3.484,0.637-4.957,2.164c-0.365,0.377-1.158,1.389-1.793,1.336
		c-0.105-0.01-0.193-0.043-0.291-0.061c1.299,1.846,2.184,4.01,2.602,6.318c0.361,2.004-0.127,7.73-3.397,7.191
		c-7.867-1.299-4.816-17.598-15.244-12.936c-0.022,0.01-0.041,0.008-0.063,0.016c-0.313,0.299-0.633,0.594-0.99,0.863
		c-1.871,1.408-4.07,0.174-6.125-0.16c-0.389-0.065-0.457-0.588-0.221-0.836c1.935-2.021,4.598-3.055,6.883-4.609
		c3.123-2.129,6.201-4.307,9.248-6.545c3.189-2.342,6.553-4.582,9.482-7.248c1.615-1.469,3.023-3.07,5.108-3.852
		c0.24-0.09,0.568,0.098,0.615,0.35C337.307,584.001,337.307,584.085,337.195,584.677z M342.98,428.622
		c-0.631,2.367-0.211,5.185-0.514,7.639c-0.348,2.824-0.783,5.639-1.111,8.465c-0.555,4.789-0.99,9.588-1.381,14.393
		c0.02,1.844,0.053,3.691,0.131,5.545c0.221,5.215,0.148,10.492-1.877,15.393c-1.668,4.037-4.334,7.129-7.387,10.184
		c-2.705,2.707-5.625,6.313-9.492,7.354c-5.326,1.434-4.225-5.084-3.316-8.207c1.355-4.666,3.619-8.883,6.027-13.035
		c-0.006-0.035-0.029-0.066-0.025-0.103c0.315-3.787,1.99-7.107,3.367-10.588c1.617-4.094,3.146-8.225,4.754-12.324
		c3.223-8.217,7.045-16.213,9.504-24.711c0.063-0.215,0.223-0.318,0.393-0.342C342.281,427.771,343.139,428.028,342.98,428.622z
		 M343.441,402.022c-0.297,0.262-0.699,0.141-0.836-0.221c-0.904-2.416-1.682-4.879-2.439-7.35
		c-0.453,1.053-0.928,2.096-1.439,3.125c-2.27,4.57-5.113,8.586-8.521,12.369c-2.428,2.697-5.305,5.984-9.117,6.473
		c-0.27,0.033-0.5-0.254-0.5-0.5c0.037-6.217,0.723-12.408,0.947-18.609c-2.318,4.051-4.832,8.002-7.016,12.111
		c-1.916,3.605-3.602,7.467-6.578,10.352c-0.242,0.234-0.604,0.166-0.785-0.102c-2.43-3.598-2.184-8.512-3.051-12.619
		c-0.898-4.266-1.959-8.482-3.289-12.623c-0.961,3.977-2.078,7.916-3.357,11.809c-1.543,4.689-3.277,9.314-4.91,13.975
		c-1.113,3.182-2.396,6.246-4.52,8.848c0.012,0.076,0.029,0.15,0.041,0.227c0.074,0.467-0.436,0.734-0.746,0.584
		c-0.045,0.049-0.086,0.104-0.133,0.152c-0.443,0.469-1.148-0.24-0.707-0.707c0.17-0.18,0.316-0.371,0.475-0.557
		c-1.168-6.699-3.65-13.064-6.344-19.285c-2.266-5.229-4.105-11.1-7.939-15.432c-2.164,4.227-0.385,10.238,0.162,14.627
		c0.045,0.361-0.463,0.645-0.752,0.432c-8.955-6.619-13.859-16.998-20.746-25.475c-7.596-9.348-14.666-19.203-19.684-30.205
		c-4.596-10.078-12.627-25.113-10.26-36.09c4.223-19.57,11.82-4.162,20.449-17.906c1.402-2.232,7.842-11.188,9.225-13.445
		c2.682-4.379,5.098-8.912,7.797-13.297c2.418-3.928,6.793-10.76,9.84-3.553c2.254,5.334,5.793,29.816,6.174,29.09
		c3.008-5.748,3.846-12.311,5.158-18.578c0.313-1.5,0.996-5.773,3.047-5.975c2.613-0.258,3.184,5.324,3.566,7.051
		c1.342,6.051,1.609,12.422,3.17,18.395c1.996,7.635,2.969,16.277,6.781,23.293c1.041-2.022,1.182-4.471,1.418-6.688
		c0.639-5.986-0.584-13.348,1.68-19.014c1.416-3.547,2.586-2.691,4.57,0.256c0.445,0.66,4.875,7.643,4.619,8.188
		c1.75-3.734,1.924-8.041,2.158-12.096c0.205-3.512,0.432-6.998,0.465-10.516c0.035-3.467-2.186-22.182,4.297-21.281
		c3.668,0.51,5.527,7.369,6.582,10.162c1.859,4.922,3.885,9.539,6.318,14.227c1.148,2.211,2.428,4.893,4.613,6.272
		c1.602-4.512,0.168-12.07-0.06-16.777c-0.125-2.586-1.793-8.518,2.879-6.313c2.543,1.201,3.711,5.799,4.932,8.088
		c2.523,4.732,6.555,6.742,10.311,10.496c2.531,2.527,5.115,5.389,6.186,8.877c0.103,0.334-0.256,0.762-0.615,0.615
		c-2.957-1.221-5.904-2.762-8.91-3.215c5.244,6.223,9.117,13.252,11.387,21.152c2.799,9.744,4.451,20.018,4.973,30.143
		C365.502,366.29,359.926,387.495,343.441,402.022z M374.299,646.741c-1.389,3.535-4.93,0.541-6.549-1.209
		c-1.514-1.637-2.693-3.305-3.639-5.334c-1.057-2.27-1.439-6.332-3.381-8.068c-1.971-1.766-4.162,1.227-5.949-0.928
		c-0.754-0.908-0.641-2.445-0.365-3.639c-0.066-0.129-0.084-0.285,0.002-0.449c0.08-0.15,0.17-0.303,0.256-0.455
		c0.953-2.789,3.535-5.328,6.488-5.721c1.445-0.404,2.977-0.307,4.494,0.617c4.486,2.73,6.313,8.148,7.344,13.029
		c0.48,2.275,0.889,4.572,1.24,6.871C374.49,643.085,374.926,645.149,374.299,646.741z"/>
	<path style="opacity:0.3;fill:#424143;" d="M229.775,235.589c3.992,4.527,9.234,7.674,14.717,10.086
		c20.33,8.941,44.4,10.424,65.732,4.168c10.514-3.084,20.842-8.217,28.248-16.486c3.031-3.385,5.221-7.184,6.67-11.213
		c-2.711-6.246-4.195-11.285-4.434-16.057c0,0-21.816,22.391-41.719,26.986c0,0-30.293,8.455-48.547-3.482
		c-18.256-11.936-21.707-17.037-21.707-17.037s-1.414,4.592-4.313,12.225C225.307,228.728,227.004,232.448,229.775,235.589z"/>
	<path style="opacity:0.3;fill:#424143;" d="M396.078,650.778c-2.904,0.504-5.725-0.779-7.496-2.91
		c-3.281,3.445-8.178,5.094-12.635,3.619c-0.863,0.648-1.773,1.236-2.75,1.732c-7.096,3.604-15.479,1.496-20.283-4.918
		c-3.906-5.217-6.25-11.533-7.311-17.938c-1.264-7.619-1.92-15.051-1.615-22.789c0.32-8.133,1.197-16.242,1.371-24.383
		c0.174-8.143,0.332-16.287,0.517-24.432c0.74-32.709,1.826-65.479,5.729-97.988c1.293-10.773,2.805-21.289,5.725-31.74
		c2.758-9.877,5.813-19.676,8.152-29.664c3.33-14.213,7.143-33.834-0.973-47.189c-0.41,18.811-6.443,36.955-21.068,49.844
		c-0.297,0.262-0.699,0.141-0.836-0.221c-0.037-0.103-0.07-0.209-0.107-0.313c-1.545,14.193-11.266,26.65-16.637,39.633
		c1.443-0.887,2.887-1.77,4.391-2.553c0.473-0.244,0.883,0.234,0.686,0.686c-9.52,21.629-20.004,42.895-26.951,65.547
		c-0.172,0.566-0.926,0.414-0.98-0.133c-0.631-6.242,1.508-13.707-1.207-19.609c-7.518,13.008-5.531,28.853-8.813,43.074
		c-0.113,0.5-0.826,0.457-0.963,0c-3.871-12.822-0.094-26.74-4.268-39.445c-2.676,5.723-4.539,11.762-6.435,17.779
		c-0.158,0.506-0.783,0.445-0.965,0c-2.01-4.922-1.789-10.299-2.107-15.512c-0.393-6.414-1.514-12.818-2.635-19.141
		c-2.172-12.246-3.914-24.873-7.924-36.682c-0.131-0.389,0.385-0.834,0.734-0.564c2.205,1.699,3.865,3.932,5.852,5.857
		c0.982-4.154-4.023-12.658-5.436-16.4c-4.473-11.848-10.549-22.912-18.031-33.121c-6.52-8.895-13.521-17.742-18.986-27.348
		c-5.725-10.057-14.039-30.041-13.525-42.043c0.215-4.99,1.146-10.078,3.652-14.461c2.381-4.164,5.602-7.912,7.33-12.418
		c-3.373,0.869-6.539,2.314-9.809,3.516c-0.363,0.133-0.713-0.271-0.615-0.615c1.766-6.186,6.867-10.713,8.928-16.711
		c-0.85,0.912-1.713,1.818-2.609,2.717c-6.404,6.414-11.83,13.336-15.479,21.693c-0.717,1.639-1.352,3.307-1.943,4.988
		c3.238-2.766,6.842-5.02,10.523-6.584c0.045-0.074,0.086-0.148,0.131-0.223c0.18-0.291,0.504-0.281,0.723-0.129
		c0.082-0.033,0.162-0.07,0.244-0.102c0.15-0.057,0.279-0.041,0.379,0.022c0.438-0.053,0.853,0.478,0.439,0.814
		c-0.639,0.522-1.274,1.055-1.906,1.594c-4.121,7.457-5.721,15.852-4.131,24.34c1.635,8.723,5.629,16.779,10.123,24.359
		c7.645,12.891,17.756,25.207,23.229,39.338c2.252,2.6,5.043,5.766,5.445,9.209c0.195,1.689-0.191,4.455-2.229,4.92
		c-2.113,0.482-4.338-0.816-6.006-1.979c-2.43-1.691-4.645-3.727-6.594-5.961c2.754,16.482,12.295,30.977,20.814,45.24
		c0.219,0.365-0.143,0.871-0.565,0.734c-2.072-0.672-4.074-1.547-6.002-2.574c2.793,5.055,5.414,10.209,7.498,15.594
		c1.758,4.541,3.063,9.145,4.02,13.842c1.297,4.502,2.363,9.07,3.189,13.686c2.482,13.871,3.15,28.027,2.391,42.09
		c-0.852,15.781-3.023,31.43-3.121,47.262c-0.053,8.309-0.373,16.777,0.869,25.02c0.719,4.771,2.121,8.894,3.859,13.35
		c1.57,4.019,3.201,8.092,4.26,12.291c1.326,1.217,2.338,2.834,3.068,4.586c0.934,2.236,2.451,5.975,3.109,9.639
		c0.281,0.188,0.547,0.393,0.805,0.609c-0.258-0.932-0.48-1.479-0.48-1.479s4.725,2.508,12.715-0.565c0,0,5.119,5.336,16.035,0.336
		c0,0,7.154,5.59,16.168-2.5c0,0,5.332,5.166,10.082-1.084c0,0-2.063,12,10.313,18.813s24.25,4.125,27.125,0.563
		c0,0,4.563,2.75,10.875-0.813c0,0,7.688,4.313,12.938-1.063c1.512-1.549,2.426-3.758,2.947-6.197
		C399.824,648.987,398.225,650.405,396.078,650.778z M337.195,584.677c-0.035,0.189-0.15,0.291-0.285,0.332
		c0.264,2.328-0.016,4.625-0.057,6.992c-0.053,2.977,0.34,5.949-0.016,8.918c-0.029,0.252-0.205,0.523-0.5,0.5
		c-2.266-0.18-3.484,0.637-4.957,2.164c-0.365,0.377-1.158,1.389-1.793,1.336c-0.105-0.01-0.193-0.043-0.291-0.061
		c1.299,1.846,2.184,4.01,2.602,6.318c0.361,2.004-0.127,7.73-3.397,7.191c-7.867-1.299-4.816-17.598-15.244-12.936
		c-0.022,0.01-0.041,0.008-0.063,0.016c-0.313,0.299-0.633,0.594-0.99,0.863c-1.871,1.408-4.07,0.174-6.125-0.16
		c-0.389-0.065-0.457-0.588-0.221-0.836c1.935-2.021,4.598-3.055,6.883-4.609c3.123-2.129,6.201-4.307,9.248-6.545
		c3.189-2.342,6.553-4.582,9.482-7.248c1.615-1.469,3.023-3.07,5.108-3.852c0.24-0.09,0.568,0.098,0.615,0.35
		C337.307,584.001,337.307,584.085,337.195,584.677z M342.98,428.622c-0.631,2.367-0.211,5.185-0.514,7.639
		c-0.348,2.824-0.783,5.639-1.111,8.465c-0.555,4.789-0.99,9.588-1.381,14.393c0.02,1.844,0.053,3.691,0.131,5.545
		c0.08,1.885,0.117,3.779,0.043,5.66c0.127,0.109,0.211,0.271,0.172,0.478c-0.139,0.768-0.258,1.539-0.389,2.309
		c-0.125,1.107-0.297,2.205-0.547,3.291c-0.131,0.848-0.25,1.697-0.371,2.547c0.025,0.773,0.06,1.545,0.078,2.318
		c0.25,10.584,0.227,21.594-2.59,31.883c-1.211,4.42-2.928,8.69-5.668,12.395c-2.121,2.867-5.365,6.18-9.074,6.719
		c-6.576,0.957-7.799-9.508-8.016-13.867c-0.193-3.902-0.002-7.852,1.08-11.621c0.949-3.309,2.113-6.549,3.232-9.803
		c-1.367-1.658-0.65-5.43-0.023-7.586c1.355-4.666,3.619-8.883,6.027-13.035c-0.006-0.035-0.029-0.066-0.025-0.103
		c0.315-3.787,1.99-7.107,3.367-10.588c1.617-4.094,3.146-8.225,4.754-12.324c3.223-8.217,7.045-16.213,9.504-24.711
		c0.063-0.215,0.223-0.318,0.393-0.342C342.281,427.771,343.139,428.028,342.98,428.622z"/>
	<path style="opacity:0.3;fill:#424143;" d="M224.861,633.944c1.221-1.357,2.953-3.268,4.83-3.686
		c0.68-0.15,1.213-0.064,1.627,0.199c2.219-4.018,4.018-8.24,5.078-12.768c1.904-8.145,2.09-16.746,2.17-25.08
		c0.113-11.451,0.387-23.035-0.424-34.506c-1.428-9.322-3.67-19.172-7.107-29.185c-2.559-7.449-5-14.936-7.666-22.346
		c-2.66-7.389-5.877-14.557-8.645-21.906c-5.537-14.711-10.225-29.727-14.416-44.871c-4.205-15.195-8.195-30.49-11.5-45.906
		c-1.246-5.809-2.438-11.633-3.463-17.486c1.07,14.738,3.445,29.35,7.123,43.668c1.977,7.69,4.252,15.297,6.33,22.959
		c1.088,4.008,2.143,8.027,3.047,12.082c0.576,2.582,1.516,5.447,1.201,8.129c-0.379,3.238-3.787,0.797-5.025-0.348
		c-0.73-0.678-5.234-2.766-5.934-3.475c6.267,13.611,11.645,29.223,12.285,44.309c0.061,1.43,0.631,6.223-1.402,6.568
		c-2.496,0.428-3.885-6.092-4.566-7.662c-1.471-3.387-2.625-6.908-4.156-10.27c-0.408-0.895-4.283-6.518-4.16-6.945
		c-0.33,1.139-0.277,7.998-0.154,17.211c0.154,11.389,1.281,23.094-1.879,34.205c-5.418,19.049-24.742,32.842-22.766,53.969
		c0.439,4.68,1.713,9.246,3.309,13.652c0.727,2.002,2.637,9.348,5.031,9.883c0.65,0.146,1.287,0.34,1.887,0.625
		c3.461,1.644,5.479,5.098,6.412,8.713c0.855,3.305,1.264,6.982,0.4,10.336c-0.092,3.578-1.217,6.928-3.92,9.131
		c-5.385,4.383-14.342,4.533-18.869-0.988c-2.895,4.141-7.617,7.143-12.646,8.424c-5.553,1.414-12.467,0.834-15.617-3.615
		c-0.733,0.178-1.481,0.318-2.258,0.369c-5.467,0.355-10.598-2.258-14.109-6.307c-0.34,2.785-0.264,5.508,0.514,7.893
		c2.639,8.092,7.584,10.332,21.166,7.5c0,0,12.168,6.332,21.918-2.5c0,0,15.834,7.75,23.166-10.25c0,0,13.666-2.5,20.166-3
		c6.443-0.494,15.986,1.135,18.428,0.189C221.764,638.523,223.027,635.983,224.861,633.944z"/>
	<path style="opacity:0.3;fill:#424143;" d="M279.518,655.679c-8.19,4.982-15.258-2.482-18.768-9.793
		c-0.381,1.43-0.893,2.803-1.568,4.082c-2.617,4.963-7.736,8.178-13.434,7.986c-5.648-0.191-10.471-3.215-13.047-7.885
		c-0.416,1.621-0.982,3.182-1.779,4.637c-1.442,2.635-3.645,4.353-6.75,4.129c-1.82-0.133-3.328-1.031-4.6-2.279
		c0.328,0.748,0.734,1.449,1.266,2.06c4.834,5.553,15.5,6.221,19,4.053c0,0,14.168,4.334,21.168-3.166c0,0,10.957,6.166,18.02-1.584
		c1.107-1.215,1.936-2.496,2.547-3.791C280.928,654.718,280.232,655.243,279.518,655.679z"/>
	<g>
		<path style="fill:#BE6E29;" d="M314.764,213.392c-9.574,5.148-20.729,9.605-29.697,9.939c-17.285,0.643-29.088-2.256-36.541-6.787
			c-12.424-7.557-13.805-18.803-15.979-19.518c-0.883-0.289-2.111,0.262-2.217,1.42c-2.422,4.777-4.436,15.771-3.041,20.389
			c1.967,6.504,26.037,29.148,61.611,24.162c12.76-1.787,22.926-5.393,30.822-9.439
			C318.236,226.794,316.627,220.061,314.764,213.392z"/>
		<path style="fill:#9D5023;" d="M343.01,200.294c-1.148-9.334-5.107-1.932-16.322,5.834c-3.152,2.183-6.934,4.529-11.023,6.771
			c1.869,6.672,3.486,13.408,4.977,20.174c14.277-7.547,20.838-16.414,21.678-17.908
			C343.629,212.831,343.998,208.343,343.01,200.294z"/>
		<path style="fill:#853E1D;" d="M343.172,200.669c-1.166-9.334-4.492-1.303-15.898,6.463c-3.234,2.201-7.119,4.555-11.322,6.797
			c1.852,6.705,3.451,13.475,4.935,20.271c14.686-7.572,21.428-16.529,22.285-18.031
			C344.506,213.835,344.178,208.716,343.172,200.669z"/>
		<path style="opacity:0.3;fill:#853E1D;" d="M342.154,210.8c-1.902-1.115-1.936-5.389-2.52-7.273
			c-0.855-2.764-2.922-2.924-5.289-1.941c-1.922,1.688-4.25,3.625-7.072,5.547c-0.744,0.506-1.525,1.021-2.334,1.541
			c-0.185,0.176-0.353,0.338-0.498,0.475c-0.139,0.131-0.297,0.154-0.441,0.119c-2.465,1.551-5.18,3.133-8.049,4.662
			c1.852,6.705,3.451,13.475,4.935,20.271c14.686-7.572,21.428-16.529,22.285-18.031c0.641-1.121,0.895-2.891,0.879-5.311
			C343.502,211.169,342.867,211.218,342.154,210.8z"/>
		<path style="fill:#9D5023;" d="M315.045,214.409c-9.719,5.086-21.02,9.471-30.105,9.926c-47.84,2.391-49.434-23.334-52.66-26.781
			c-3.225-3.449-8.107,15.781-6.107,22.285c2,6.504,26.484,29.148,62.666,24.162c12.859-1.771,23.129-5.326,31.129-9.326
			C318.488,227.88,316.891,221.114,315.045,214.409z"/>
		<path style="opacity:0.3;fill:#9D5023;" d="M315.045,214.409c-1.695,0.887-3.441,1.75-5.213,2.578
			c-0.189,0.463-0.383,0.924-0.568,1.389c-2.002,4.996-4.906,8.441-9.842,10.814c-5.377,2.584-11.498,4.354-17.44,4.947
			c-6.435,0.641-13.178-0.135-19.531-1.242c-14.166-2.467-32.523-10.832-35.68-25.871c-1.035,4.734-1.471,9.98-0.6,12.814
			c2,6.504,26.484,29.148,62.666,24.162c12.859-1.771,23.129-5.326,31.129-9.326C318.488,227.88,316.891,221.114,315.045,214.409z"
			/>
		<path style="opacity:0.3;fill:#9D5023;" d="M304.205,235.628c-5.406,2.426-11.762,3.408-17.623,3.943
			c-6.301,0.574-12.572,0.27-18.836-0.566c-11.098-1.482-21.982-5.133-30.994-11.904c-4.152-3.121-8.59-7.563-11.006-12.631
			c-0.1,2.123,0.012,4.023,0.426,5.369c2,6.504,26.484,29.148,62.666,24.162c12.859-1.771,23.129-5.326,31.129-9.326
			c-0.978-4.496-2.018-8.98-3.139-13.441C313.902,227.153,310.545,232.782,304.205,235.628z"/>
		<path style="fill:#9D5023;" d="M318.611,227.189c0.574,2.141,1.273,4.246,2.053,6.322c9.1-3.064,15.736-7.223,20.045-10.609
			c-0.09-0.996-1.481-13.93-3.414-18.982c-0.701,0.459-9.732,5.922-21.184,9.867C316.865,218.269,317.434,222.798,318.611,227.189z"
			/>
		<path style="opacity:0.3;fill:#9D5023;" d="M329.613,216.56c-3.906,0.553-7.096-1.334-9.233-4.365
			c-1.381,0.545-2.795,1.082-4.27,1.592c0.754,4.482,1.322,9.012,2.5,13.402c0.574,2.141,1.273,4.246,2.053,6.322
			c9.1-3.064,15.736-7.223,20.045-10.609c-0.049-0.543-0.486-4.646-1.188-9.08C336.273,215.066,332.935,216.091,329.613,216.56z"/>
		<path style="opacity:0.3;fill:#9D5023;" d="M328.658,225.601c-2.619,0.359-4.865-0.723-5.951-3.182
			c-1.381-3.133-2.35-6.543-3.256-9.865c-1.088,0.42-2.191,0.836-3.34,1.232c0.754,4.482,1.322,9.012,2.5,13.402
			c0.574,2.141,1.273,4.246,2.053,6.322c9.1-3.064,15.736-7.223,20.045-10.609c-0.018-0.205-0.094-0.928-0.217-1.984
			C336.922,223.316,332.879,225.02,328.658,225.601z"/>
		<path style="fill:#BE6E29;" d="M337.295,203.919c0,0-9.58,5.641-15.924,7.892l-2.752,0.139l8.602-3.734l8.779-4.297H337.295z"/>
		<path style="fill:#858B96;" d="M313.822,238.145c0.369,1.182,12.852-4.99,12.6-5.664c-0.252-0.674-4.541-20.934-4.873-22.438
			c-0.334-1.502-12.592,4.51-12.41,5.707C309.318,216.948,313.455,236.962,313.822,238.145z"/>
		<path style="opacity:0.5;fill:#858B96;" d="M315.279,236.89c-1.404-0.859-1.748-3.635-2.035-5.045
			c-1.139-5.604-2.428-11.176-3.604-16.773c-0.338,0.289-0.525,0.525-0.502,0.68c0.18,1.197,4.316,21.211,4.684,22.394
			c0.117,0.373,1.449,0.01,3.205-0.682C316.428,237.398,315.842,237.235,315.279,236.89z"/>
		<path style="fill:#979EA3;" d="M312.945,223.144c0.379,1.574,0.736,3.158,1.244,4.695c0.424,1.289,0.967,2.553,1.721,3.686
			c0.871,1.307,2.127,2.604,3.809,2.553c2.031-0.061,3.941-1.875,4.66-3.688c0.775-1.947,0.414-4.361,0.16-6.381
			c-1.291-5.99-2.799-13.098-2.99-13.965c-0.254-1.143-7.385,2.055-10.717,4.182c0.348,2.445,1.047,4.824,1.682,7.205
			C312.666,221.999,312.807,222.571,312.945,223.144z"/>
	</g>
	<g>
		<path style="fill:#353536;" d="M276.838,18.919c-10.227,0.836-30.086,2.463-45,13.75c-12.332,9.332-15,4.979-25,7
			c-11.547,2.332-11.75,7.75-16.25,32.5s-7,39.25-28.5,70.25c-21.5,31-30.75,58.25-13.5,72s46.25-1.5,50-54.75
			s1.168-70.277,2.168-67.027s8.832,28.002,3.582,44.027c-5.25,16.023-4.5,20-1.75,24.25s21.25,17.5,48,29.25c0,0,2,9,31.25,7.25
			s32.75-10,35.5-14.25c0,0,24-6.25,33.75-17.25s8-26.25,2.75-39.25s-5-30-2.75-36s2.727-8.209,4,8
			c1.6,20.32,5.518,53.291,6.75,59.5c2.6,13.086,6.127,58.738,40.5,55.75c34.5-3,13.75-38.75,1.25-58.5s-27.5-59.75-32.25-85
			s-14.75-33.5-26-33.5s-12,2.25-25.5-7S286.522,18.128,276.838,18.919z"/>
		<path style="opacity:0.2;fill:#424143;" d="M313.643,53.149c-1.785-1.551-3.951-2.775-6.346-1.885
			c-0.16,0.06-0.293,0.033-0.395-0.037c-1.225,0.336-2.379,0.906-3.41,1.875c-0.939,0.883-2.268,2.078-2.463,3.436
			c-0.473,3.275,4.854,0.652,5.887,0.486c1.168-0.185,2.145-0.129,3.246,0.324c1.402,0.576,3.207,2.135,4.853,1.494
			C317.602,57.837,314.756,54.118,313.643,53.149z"/>
		<path style="opacity:0.2;fill:#424143;" d="M246.68,55.792c-1.236-0.555-2.559-0.895-3.824-0.979
			c-1.678-0.111-3.557,0.023-4.957,1.068c-1.707,1.273-3.758,5.767-0.041,5.74c1.828-0.014,3.625-0.406,5.422,0.115
			c1.283,0.373,2.852,1.115,4.211,0.98c2.27-0.225,2.762-1.852,1.822-3.662C248.605,57.692,247.705,56.603,246.68,55.792z"/>
		<path style="opacity:0.2;fill:#424143;" d="M398,208.929c-9.262-4.297-16.184-13.426-20.166-22.611
			c-5.623-12.967-8.586-26.969-9.94-40.998c-1.461-15.127-1.85-30.369-4.461-45.371c-1.283-7.369-2.998-14.697-5.58-21.729
			c-2.777-7.563-6.215-15.029-9.682-22.301c-1.613-3.387-3.629-6.568-5.248-9.936c-0.83-1.728-1.596-3.994-0.352-5.754
			c1.438-2.035,3.301-2.818,5.334-3.154c-0.848-0.101-1.703-0.156-2.568-0.156c-10.828,0-11.934,2.08-24.039-6.014
			c4.652,5.527,8.41,12.104,10.92,18.791c2.213,5.895,3.74,12.373,3.727,18.684c-0.012,5.461-0.416,12.65-3.363,17.432
			c-1.299,2.104-4.025,4.484-6.48,5.119c-4.266,1.105-4.846-2.568-5.426-5.934c-0.904-5.268-3.354-13.264-9.209-14.854
			c-13.152-3.568-9.949,17.92-21.418,18.049c-7.934,0.09-15.463-1.02-23.4,0.082c-7.557,1.049-14.457-3.793-16.24-10.854
			c-2.928-11.6-11.982-12.205-16.102-2.586c-2.16,5.047-2.674,11.021-6.047,15.328c-2.199,2.809-6.008,5.613-9.32,2.727
			c-3.287-2.863-4.615-7.537-5.205-11.697c-0.965-6.83,0.438-14.025,2.496-20.529c3.93-12.416,11.108-23.43,21.281-31.654
			c0.094-0.076,0.191-0.146,0.285-0.223c-2.047,1.148-4.043,2.434-5.959,3.883c-8.973,6.789-12.83,6.336-18.117,6.363
			c0.646,0.484,1.109,1.143,1.256,2.045c0.24,1.49-0.855,3.16-1.725,4.246c-2.004,2.502-4.022,4.99-5.873,7.609
			c-7.434,10.52-11.355,22.117-13.766,34.697c-2.67,13.941-3.705,28.127-4.207,42.295c-0.445,12.555-0.115,25.186-1.373,37.695
			c-1.316,13.092-4.418,26.088-11.799,37.174c-5.274,7.92-15.315,15.754-25.014,11.42c17.416,10.342,43.803-5.914,47.367-56.545
			c3.75-53.25,1.168-70.277,2.168-67.027c0.566,1.842,3.322,10.59,4.65,20.74c0.477,2.334,0.9,11.686,0.201,17.818
			c-6.963,21.379-5.555,25.799-3.02,29.719c2.75,4.25,21.25,17.5,48,29.25c0,0,0.623,2.754,6.125,4.92
			c-2.553-1.939-6.687-5.682-5.922-9.104c0.881-3.938,5.473-3.398,8.459-2.494c5.791,1.756,11.072,3.746,17.256,3.947
			c6.816,0.225,13.682-0.807,20.355-2.146c3.268-0.658,6.586-1.471,9.584-2.973c2.139-1.072,4.185-3.188,6.596-3.521
			c3.281-0.453,3.434,3.615,3.029,6.361c0.482-0.723,0.883-1.396,1.268-1.99c0,0,24-6.25,33.75-17.25
			c9.014-10.168,8.197-23.967,3.875-36.264c0.953,4.994-5.768-19.356-4.646-16.647c-1.336-9.375-0.734-18.324,0.771-22.34
			c2.25-6,2.727-8.209,4,8c1.6,20.32,5.518,53.291,6.75,59.5c2.6,13.086,6.127,58.738,40.5,55.75
			c9.527-0.828,14.834-4.158,17.273-8.953C413.596,209.911,405.348,212.339,398,208.929z M222.451,104.462
			c-0.023-1.73,1.643-2.734,2.977-3.459c2.193-1.191,4.404-2.318,6.855-2.871c2.656-0.6,6.42-1.158,8.959,0.176
			c1.822,0.959,3.287,2.838,1.844,4.777c-1.482,1.992-4.449,1.305-6.379,0.627c-2.643-0.928-4.645-0.756-7.082,0.666
			c-1.203,0.703-2.596,1.691-4.012,1.91c-1.344,0.207-3.086-0.047-3.16-1.748C222.451,104.515,222.451,104.487,222.451,104.462z
			 M271.039,169.321c-0.563,0.793-1.232,1.619-1.979,2.395c-0.598,1.066-1.434,2.025-2.543,2.799
			c-10.404,7.252-23.346-3.428-31.111-9.959c-3.979-3.346-9.725-8.174-9.785-13.891c-0.041-3.971,1.59-7.576,3.627-10.938
			c0.348-0.783,0.732-1.555,1.189-2.303c0.41-0.672,1.111-2.018,1.973-3.129c0.859-1.803,1.773-3.58,3.074-5.105
			c0.264-0.307,0.723-0.105,0.836,0.221c1.459,4.162,2.529,9.303,6.037,12.295c3.082,2.627,7.004,3.695,10.859,4.645
			c5.885,1.449,13.238,3.223,17.346,8.084C274.445,159.028,274.451,164.503,271.039,169.321z M276.484,131.171
			c-0.145-0.064-0.281-0.152-0.424-0.227c-0.123,0.227-0.379,0.355-0.641,0.156c-4.973-3.787-10.902-5.789-16.357-8.725
			c-4.424-2.381-10.053-5.988-11.254-11.285c-1.293-5.691,2.58-9.785,7.18-12.5c5.334-3.15,11.041-4.799,17.197-4.9
			c0.73-0.09,1.469-0.135,2.205-0.148c0.074-0.025,0.156-0.037,0.248-0.023c0.043,0.008,0.088,0.012,0.131,0.02
			c0.736-0.004,1.471,0.025,2.193,0.086c2.441,0.205,5.127,0.41,7.744,0.891c2.553,0.232,5.09,0.549,7.568,1.193
			c3.383,0.883,7.406,2.172,9.555,5.168c3.383,4.713,0.391,10.57-2.701,14.582c-3.77,4.895-8.557,9.342-13.807,12.627
			C282.805,129.659,279.709,132.583,276.484,131.171z M329.807,149.936c-1.441,3.127-3.965,5.682-6.137,8.309
			c-2.268,2.742-4.549,5.494-7.084,7.994c-4.459,4.4-10.242,8.977-16.715,9.646c-1.084,0.113-2.139,0.104-3.152-0.016
			c-1.109,0.105-2.227,0.111-3.332-0.068c-5.375-0.869-10.41-5.426-11.449-10.6c-0.986-4.906-0.332-10.238,3.478-14
			c4.311-4.254,11.898-5.967,16.52-9.801c4.197-3.482,6.49-7.686,8.465-12.607c0.799-1.992,2.039-6.408,4.66-6.662
			c1.17-0.113,1.846,1.436,2.037,2.314c0.166,0.775,0.141,1.594,0.121,2.4c2.358,1.66,4.328,3.951,6.473,5.803
			c1.082,0.932,1.949,1.979,2.658,3.088C329.883,139.519,332.152,144.849,329.807,149.936z M329.449,106.165
			c-1.807-0.646-3.295-1.98-5.145-2.588c-2.16-0.713-4.102-0.785-6.295-0.215c-2.205,0.574-4.895,1.389-6.799-0.287
			c-1.625-1.43,0.373-4.383,1.566-5.359c2.336-1.914,5.467-2.777,8.469-2.512c0.049,0.006,0.096,0.02,0.145,0.025
			c2.133,0.006,4.221,0.52,6.283,1.473c2.529,1.174,5.633,3.027,5.969,6.15C333.934,105.558,331.949,107.06,329.449,106.165z"/>
		<g style="opacity:0.4;">
			<path style="opacity:0.3;fill:#424143;" d="M352.922,86.388c-0.643-1.988-1.01-4.041-1.477-6.092
				c-0.65-2.846-1.676-5.555-2.707-8.283c-2.043-5.395-4.092-10.877-6.658-16.064c-0.393-0.43-0.805-0.84-1.248-1.215
				c2.793,10.225,4.848,20.727,5.188,31.34c0.129,4.053,0.963,12.471-4.182,14.285c-3.727,1.316-8.029-0.953-11.428-2.293
				c-1.438-0.566-3.307-1.373-5.09-1.686c4.557,2.27,7.447,7.045,12.223,9.385c2.186,1.07,4.541,0.654,6.793,1.336
				c2.984,0.904,4.859,3.199,5.98,5.908c-1.336-9.375-0.734-18.324,0.771-22.34C351.883,88.548,352.457,86.913,352.922,86.388z"/>
			<path style="opacity:0.3;fill:#424143;" d="M324.941,33.565c1.758,1.563,3.445,3.211,5.168,4.814
				c2.115,1.973,4.166,4.029,5.871,6.35c-0.309-2.527-0.535-5.182,0.018-7.586c-3.955-0.129-7.238-1.25-14.699-6.238
				c0.104,0.123,0.199,0.254,0.303,0.377C322.748,32.001,323.935,32.669,324.941,33.565z"/>
			<path style="opacity:0.3;fill:#424143;" d="M218.1,43.233c-0.404,1.625-0.82,3.379-1.324,5.127
				c2.271-3.094,4.836-5.982,7.516-8.723c2.316-2.367,4.666-4.59,7.359-6.525c1.59-1.142,3.186-2.273,4.711-3.49
				c-1.547,0.928-3.059,1.938-4.523,3.047c-6.795,5.141-10.656,6.127-14.426,6.316C218.348,40.163,218.465,41.757,218.1,43.233z"/>
			<path style="opacity:0.3;fill:#424143;" d="M210.225,105.542c-3.893-3.297-5.713-9.242-6.164-14.156
				c-0.609-6.643,0.789-13.234,3.27-19.383c1.178-2.924,2.795-6.955,5.648-8.863c-7.557,2.779-11.293,11.307-12.813,18.887
				c-2.361,11.789-2.551,24.088-2.945,36.066c-0.506,15.352-1.092,30.815-3.311,46.031c-1.092,7.488-2.773,14.752-5.057,21.965
				c-2.045,6.463-4.17,13.012-7.33,19.033c-3.148,6-8.02,10.59-13.818,13.219c14.215-3.982,28.342-22.594,30.883-58.672
				c3.75-53.25,1.168-70.277,2.168-67.027c0.566,1.842,3.322,10.59,4.65,20.74c0.656-1.221,1.498-2.301,2.598-3.156
				c3.006-2.334,7.219-1.457,10.139-3.584C215.418,106.837,212.506,107.474,210.225,105.542z"/>
			<path style="opacity:0.3;fill:#424143;" d="M250.734,186.401c-2.002-3.482-2.445-6.881,2.271-7.766
				c3.721-0.697,7.609-0.295,11.367-1.033c3.857-0.756,7.232-2.131,10.682-3.994c1.609-0.871,3.713-2.113,5.635-1.598
				c1.49,0.398,2.574,1.385,3.479,2.549c0.375,0.051,0.742,0.143,1.1,0.258c-5.611-5.512-8.43-14.596-5.52-21.611
				c1.428-3.441,3.736-6.266,6.529-8.703c3.035-2.65,6.607-5.047,8.883-8.436c3.75-5.588,4.975-12.764,2.648-18.971
				c-3.541,4.244-7.83,8.074-12.486,10.988c-2.518,1.574-5.613,4.498-8.838,3.086c-0.145-0.064-0.281-0.152-0.424-0.227
				c-0.123,0.227-0.379,0.355-0.641,0.156c-4.973-3.787-10.902-5.789-16.357-8.725c-2.633-1.416-5.684-3.271-7.982-5.652
				c-0.6,3.373-1.107,7.025-0.229,10.385c1.064,4.063,3.707,7.102,7.102,9.484c5.002,3.51,9.666,6.439,12.69,11.928
				c4.129,7.496,7.109,19.85-2.457,24.449c-0.471,0.566-1.018,1.09-1.668,1.545c-10.404,7.252-23.346-3.428-31.111-9.959
				c-3.979-3.346-9.725-8.174-9.785-13.891c-0.041-3.971,1.59-7.576,3.627-10.938c0.348-0.783,0.732-1.555,1.189-2.303
				c0.41-0.672,1.111-2.018,1.973-3.129c0.357-0.748,0.73-1.488,1.131-2.211c-4.207,4.658-9.434,9.56-10.383,15.824
				c-1.322,8.742,6.432,14.305,12.078,19.521c4.961,4.582,9.611,9.803,9.479,17.01c-0.021,1.183-0.307,2.057-0.76,2.705
				c2.15,1.014,4.359,2.024,6.633,3.024c0,0,0.623,2.754,6.125,4.92C254.264,193.228,250.369,189.708,250.734,186.401z"/>
			<path style="opacity:0.3;fill:#424143;" d="M330.74,156.77c1.945-4.019,3.469-9.26,1.783-13.637
				c-0.977-2.531-2.783-4.156-4.647-5.83c0.082,0.207,0.168,0.416,0.238,0.621c2.434,3.51,3.613,7.842,1.691,12.012
				c-1.441,3.127-3.965,5.682-6.137,8.309c-2.268,2.742-4.549,5.494-7.084,7.994c-4.459,4.4-10.242,8.977-16.715,9.646
				c-1.084,0.113-2.139,0.104-3.152-0.016c-1.109,0.105-2.227,0.111-3.332-0.068c-1.027-0.166-2.043-0.471-3.021-0.885
				c-0.166,0.715-0.336,1.426-0.533,2.133c1.152,0.627,2.387,1.107,3.707,1.387c3.369,0.174,6.73-0.316,10.07-1.215
				c3.342-0.9,6.855-2.611,10.313-2.914c5.896-0.52,3.381,6.33,2.236,10.111c-0.025,0.254-0.053,0.502-0.088,0.74
				c0.482-0.723,0.883-1.396,1.268-1.99c0,0,4.828-1.26,11.027-3.637c-4.147-0.215-9.154-1.914-8.502-6.863
				C320.793,165.636,327.859,162.724,330.74,156.77z"/>
			<path style="opacity:0.3;fill:#424143;" d="M315.719,86.909c-1.762-2.641-2.221-5.609-3.688-8.361
				c-0.799-1.5-2.904-4.066-4.654-2.006c-0.996,1.172-1.414,2.658-1.947,4.072c-4.57,12.139-20.557,12.328-31.432,12.309
				c-6.184-0.012-13.076,0.623-18.976-1.625c-3.764-1.434-5.1-4.297-6.791-7.799c-0.773-1.602-4.103-10.377-6.889-8.648
				c-1.934,1.199-2.27,4.732-2.639,6.764c-0.324,1.781-0.49,3.637-1.25,5.297c-2.344,5.113-6.18,9.811-10.875,12.779
				c-0.004,0.029-0.008,0.059-0.014,0.088c1.537-0.844,3.141-1.539,4.764-2.027c2.426-0.729,6.811-1.016,9.461,0.535
				c3.115,0.053,5.787,0.756,5.303,5.111c-0.461,4.125-4.164,7.293-5.193,11.301c-0.154,0.601-0.285,1.205-0.395,1.809
				c1.992-4.248,4.643-8.105,7.816-11.199c1.232-2.807,3.809-5.029,6.668-6.717c5.334-3.15,11.041-4.799,17.197-4.9
				c0.73-0.09,1.469-0.135,2.205-0.148c0.074-0.025,0.156-0.037,0.248-0.023c0.043,0.008,0.088,0.012,0.131,0.02
				c0.736-0.004,1.471,0.025,2.193,0.086c2.441,0.205,5.127,0.41,7.744,0.891c2.553,0.232,5.09,0.549,7.568,1.193
				c3.383,0.883,7.406,2.172,9.555,5.168c0.029,0.041,0.051,0.084,0.078,0.125c0.803,0.703,1.557,1.465,2.264,2.234
				c2.299,2.504,4.598,5.025,6.791,7.623c1.238,1.467,2.457,2.967,3.631,4.502c-0.32-0.463-0.641-0.928-0.955-1.396
				c-2.184-3.256-5.108-7.42-4.932-11.541c0.123-2.848,2.406-4.33,4.816-5.381c1.992-1.205,4.486-1.891,6.232-1.92
				c0.947-0.016,1.82,0.082,2.643,0.248c0.889-0.232,1.889-0.232,2.949-0.082C321.541,93.12,318.039,90.386,315.719,86.909z"/>
			<path style="opacity:0.5;fill:#7F5437;" d="M380.742,205.64c-8.389-10.4-12.768-22.906-14.957-35.947
				c-2.563-15.242-3.625-30.707-5.853-45.998c-0.924-6.346-1.897-12.563-2.451-18.951c-0.449-5.188-0.879-10.924-3.328-15.65
				c0.287,1.973,0.58,5.057,0.936,9.576c1.6,20.32,5.518,53.291,6.75,59.5c2.156,10.855,4.953,44.119,25.465,53.438
				C384.889,210.001,382.672,208.032,380.742,205.64z"/>
		</g>
		<ellipse style="opacity:0.3;fill:#424143;" cx="243.199" cy="85.312" rx="5.272" ry="12.27"/>
		<g>
			<path style="fill:#070707;" d="M246.998,83.874c0.121,5.93-1.488,10.793-3.584,10.861c-2.092,0.064-3.893-4.686-4.016-10.617
				c-0.123-5.934,1.48-10.795,3.576-10.865C245.076,73.185,246.873,77.94,246.998,83.874z"/>
			<path style="fill:#FFFFFF;" d="M243.855,77.552c-0.199,1.873-1.121,3.338-2.049,3.266c-0.922-0.076-1.514-1.652-1.314-3.529
				c0.201-1.873,1.121-3.336,2.049-3.262C243.469,74.097,244.053,75.677,243.855,77.552z"/>
		</g>
		<path style="opacity:0.3;fill:#424143;" d="M314.641,85.312c0,6.777-2.361,12.27-5.271,12.27c-2.914,0-5.273-5.492-5.273-12.27
			c0-6.775,2.359-12.27,5.273-12.27C312.279,73.042,314.641,78.536,314.641,85.312z"/>
		<g>
			<path style="fill:#070707;" d="M313.168,83.874c0.121,5.93-1.49,10.793-3.584,10.861c-2.094,0.064-3.893-4.686-4.016-10.617
				c-0.123-5.934,1.48-10.795,3.576-10.865C311.244,73.185,313.043,77.94,313.168,83.874z"/>
			<path style="fill:#FFFFFF;" d="M310.025,77.552c-0.199,1.873-1.121,3.338-2.049,3.266c-0.922-0.076-1.514-1.652-1.314-3.529
				c0.201-1.873,1.121-3.336,2.049-3.262C309.639,74.097,310.223,75.677,310.025,77.552z"/>
		</g>
		<g>
			<path style="fill:#231F20;" d="M212.791,62.896c-2.914,0.4-5.418,3.979-7.064,6.176c-2.174,2.904-3.848,7.201-4.762,10.688
				c-2.168,8.281-1.662,17.225-2.102,25.723c-0.473,9.102-0.348,18.309-0.281,27.424c0.064,9.203-0.551,18.373-0.055,27.594
				c0.012,0.211,0.359,0.203,0.371-0.006c0.232-4.305,0.199-8.627,0.258-12.936c0.055-4.186,0.746-8.316,0.781-12.496
				c0.074-8.6,0.352-17.203,0.336-25.797c-0.014-7.998,0.377-16.084,0.965-24.061c0.287-3.893,1.729-7.623,3.27-11.164
				c0.863-1.982,1.818-3.939,3.188-5.619c1.393-1.709,3.092-4.232,5.281-4.885C213.35,63.423,213.158,62.845,212.791,62.896z"/>
			<path style="fill:#231F20;" d="M355.162,91.403c-0.635-4.18-1.934-8.223-2.822-12.351c-1.826-8.469-5.82-16.879-10.688-24
				c-0.139-0.203-0.414,0.031-0.295,0.232c2.445,4.09,4.135,8.424,5.98,12.795c1.721,4.076,3.178,8.51,3.992,12.857
				c0.732,3.896,2.023,7.676,2.674,11.6c0.754,4.549,1.162,9.148,2.119,13.666c0.057,0.273,0.465,0.217,0.432-0.066
				C355.98,101.233,355.906,96.286,355.162,91.403z"/>
			<path style="fill:#231F20;" d="M269.361,197.142c-5-1.289-10.988-1.572-15.127-4.994c-2.26-1.865-3.746-3.998-4.875-6.703
				c-0.969-2.322-1.055-4.842-1.855-7.18c-0.068-0.197-0.375-0.1-0.344,0.098c0.205,1.27,0.02,2.504,0.244,3.777
				c0.268,1.529,0.641,3.037,1.191,4.488c0.979,2.582,2.672,4.877,4.848,6.563c4.375,3.392,10.492,4.553,15.924,4.338
				C269.609,197.519,269.553,197.191,269.361,197.142z"/>
			<path style="fill:#231F20;" d="M317.445,170.259c-0.076-0.285-0.512-0.236-0.463,0.07c0.951,6.086,0.432,12.33-3.697,17.139
				c-4.008,4.666-10.244,5.879-16.01,7.158c-0.531,0.119-0.416,0.875,0.127,0.834c3.316-0.242,6.557-1.299,9.654-2.457
				c2.553-0.953,4.926-2.217,6.746-4.305c2.039-2.336,3.666-4.742,4.23-7.836C318.654,177.446,318.328,173.571,317.445,170.259z"/>
			<path style="fill:#231F20;" d="M313.719,113.62c-2.213-3.607-4.525-6.891-7.488-9.947c-2.867-2.959-6.352-5.09-10.082-6.803
				c-2.047-0.941-4.166-1.826-6.277-2.615c-1.896-0.709-3.978-0.793-5.963-1.109c-4.709-0.752-9.418-0.549-14.137-0.121
				c-8.465,0.77-16.711,5.836-22.67,11.66c-6.227,6.084-9.326,14.484-10.551,22.949c-0.045,0.318,0.463,0.461,0.555,0.145
				c2.361-8.004,4.942-15.801,10.977-21.848c5.754-5.766,13.791-10.271,21.949-11.182c4.275-0.477,8.483-0.434,12.756,0.029
				c4.301,0.467,7.947,1.719,11.904,3.4c4.055,1.723,7.66,4.049,10.777,7.154c2.764,2.75,5.022,5.887,7.488,8.885
				C313.365,114.712,314.039,114.14,313.719,113.62z"/>
			<path style="fill:#231F20;" d="M336.576,105.011c-2.375-6-8.455-10.74-14.938-10.981c-5.838-0.217-12.504,2.522-15.311,7.906
				c-0.127,0.246,0.234,0.52,0.434,0.328c4.168-3.996,8.74-6.623,14.672-6.527C328.154,95.847,336.746,105.442,336.576,105.011z"/>
			<path style="fill:#231F20;" d="M248.273,100.175c-4.225-2.422-8.109-4.217-13.178-3.916c-5.525,0.326-11.834,2.875-14.816,7.801
				c-0.215,0.357,0.186,0.834,0.549,0.537c4.51-3.691,9.063-6.699,15.133-6.775c2.422-0.029,5.129,0.313,7.363,1.246
				c1.488,0.623,3.156,1.295,4.729,1.654C248.34,100.786,248.531,100.325,248.273,100.175z"/>
			<path style="fill:#231F20;" d="M328.656,137.671c-1.623-2.383-3.506-4.299-5.707-6.162c-1.166-0.984-2.361-1.932-3.512-2.938
				c-0.895-0.783-1.988-1.379-2.266-2.656c-0.053-0.25-0.059-2.061-0.066-2.537c-0.006-0.314-0.49-0.279-0.535,0.008
				c-0.309,2.049-0.477,3.176,0.703,4.879c1.316,1.898,3.795,3.434,5.508,4.975c3.51,3.152,8.23,8.729,7.617,13.768
				c-0.633,5.188-5.666,9.492-8.764,13.313c-3.396,4.188-7.844,8.008-12.113,11.264c-4.799,3.66-10.371,5.152-16.207,3.375
				c-5.346-1.627-9.711-5.775-13.309-9.842c-3.848-4.35-3.078-10.355-2.945-15.813c0.129-5.385,0.524-10.732,0.234-16.117
				c-0.043-0.807-1.373-0.777-1.416,0.021c-0.33,6.178-0.635,12.389-0.705,18.576c-0.014,1.104-0.01,2.209,0.01,3.313
				c-0.014,0.043-0.031,0.08-0.033,0.129c-0.045,1.748-0.045,3.502-0.273,5.238c-0.271,2.063-1.32,3.756-2.199,5.59
				c-1.615,3.371-4.041,6.52-7.086,8.689c-3.656,2.604-8.967,1.111-12.729-0.287c-3.535-1.314-6.518-3.355-9.521-5.576
				c-3.154-2.332-6.51-4.143-9.438-6.797c-2.83-2.564-6.627-6.467-7.594-10.258c-0.977-3.834,1.797-7.154,3.318-10.414
				c1.551-3.324,3.625-6.324,4.434-9.951c0.088-0.393-0.533-0.537-0.674-0.174c-1.59,4.105-4.199,7.729-6.131,11.676
				c-1.578,3.221-3.59,6.211-2.211,10.012c1.332,3.672,4.488,7.146,7.281,9.797c3.664,3.479,8.021,5.854,11.973,8.955
				c5.74,4.504,15.498,8.518,22.344,4.357c3.1-1.885,5.717-5.461,7.213-8.725c0.709-1.549,1.82-3.125,2.191-4.814
				c0.676,1.6,1.854,2.986,2.996,4.275c3.543,4.008,7.76,7.652,12.826,9.607c2.777,1.07,5.318,1.201,8.23,1.141
				c2.766-0.059,5.045-1.475,7.48-2.553c2.406-1.064,4.445-3.092,6.461-4.725c2.271-1.84,4.432-4.031,6.385-6.207
				c3.832-4.269,8.148-8.301,10.6-13.609C333.24,145.685,331.412,141.714,328.656,137.671z"/>
			<path style="fill:#231F20;" d="M308.908,50.835c-3.045-0.047-7.736,2.648-7.732,6.102c0,0.309,0.26,0.559,0.576,0.43
				c1.082-0.443,1.58-1.385,2.51-2.088c1.139-0.861,2.727-1.061,4.102-1.162c2.791-0.207,4.389,3.037,6.305,4.4
				c0.537,0.381,1.24,0.064,1.348-0.572C316.639,54.257,312.309,50.888,308.908,50.835z"/>
			<path style="fill:#231F20;" d="M242.988,54.12c-3.084-0.736-8.299,0.354-8.447,4.307c-0.043,1.113,1.025,1.641,1.938,1.088
				c0.893-0.541,1.447-1.324,2.385-1.846c1.586-0.887,3.506-0.629,5.008,0.275c1.645,0.988,2.887,2.514,4.461,3.574
				c0.414,0.279,0.93-0.029,0.885-0.525C248.936,57.964,245.934,54.823,242.988,54.12z"/>
			<path style="fill:#231F20;" d="M243.779,25.366c-6.594,2.199-11.563,6.408-16.709,10.961c-2.936,2.598-6.16,5.258-8.395,8.518
				c-2.277,3.32-4.094,6.914-5.416,10.723c-0.113,0.326,0.342,0.51,0.492,0.201c1.717-3.52,3.637-6.982,5.922-10.166
				c2.414-3.363,5.695-6.076,8.771-8.803c2.621-2.318,4.982-4.547,7.988-6.391c1.461-0.895,2.535-2.133,4.125-2.926
				c1.219-0.607,2.242-1.08,3.371-1.865C244.078,25.517,243.93,25.316,243.779,25.366z"/>
			<path style="fill:#231F20;" d="M336.615,45.716c-2.061-3.514-4.289-6.58-7.406-9.205c-3.215-2.709-6.463-5.152-10.102-7.309
				c-0.184-0.109-0.373,0.125-0.203,0.268c2.734,2.285,5.832,4.275,8.361,6.76c1.598,1.57,3.355,2.926,4.766,4.682
				c1.369,1.701,2.637,3.451,4.07,5.109C336.314,46.267,336.795,46.022,336.615,45.716z"/>
		</g>
		<path style="fill:#640C29;" d="M285.898,173.349c-3.092-3.029-6.525-6.588-8.147-10.688c-0.504-1.275-0.857-2.578-1.117-3.898
			c-0.615,2.395-1.682,4.688-2.857,6.861c-1.709,3.164-3.609,6.109-6.305,8.531c-0.027,0.023-0.059,0.045-0.086,0.07
			c2.147,3.717,4.842,7.508,8.324,9.816c3.834,2.541,9.455,3.264,13.801,1.633c3.012-1.131,5.252-3.119,6.975-5.561
			C292.31,178.657,289.064,176.45,285.898,173.349z"/>
		<path style="fill:#9F2829;" d="M276.084,170.78c2.236,0.391,4.281-0.203,5.902-1.537c-1.738-2.016-3.295-4.205-4.234-6.582
			c-0.504-1.275-0.857-2.578-1.117-3.898c-0.615,2.395-1.682,4.688-2.857,6.861c-0.555,1.029-1.135,2.029-1.752,3.002
			C273.057,169.704,274.41,170.487,276.084,170.78z"/>
		<path style="fill:#231F20;" d="M295.207,112.241c-3.406-3.225-8.479-4.146-12.979-4.539c-5.211-0.453-10.465-0.111-15.643,0.559
			c-4.492,0.582-8.996,1.563-12.609,4.471c-2.053,1.652-3.023,3.951-3.482,6.48c-0.51,2.811,1.369,5.412,2.889,7.555
			c1.727,2.432,4.008,4.314,6.096,6.412c2.252,2.262,5.037,4.52,7.715,6.264c4.779,3.113,10.793,3.869,15.938,1.27
			c5.725-2.895,10.563-7.756,13.801-13.299C300.084,122.017,299.9,116.681,295.207,112.241z"/>
		<path style="fill:#070707;" d="M291.744,125.726c-1.105-1.004-2.75-0.17-3.813,0.5c-3.027,1.912-5.379,7.057-5.303,10.533
			c0.012,0.51,0.697,0.484,0.834,0.061c0.68-2.092,1.545-4.18,2.746-6.025c0.557-0.855,1.142-1.66,1.826-2.416
			c0.336-0.373,2.428-2.078,2.316-0.867c-0.061,0.645,0.656,1.102,1.154,0.59C292.074,127.517,292.478,126.394,291.744,125.726z"/>
		<path style="fill:#070707;" d="M264.197,125.796c-0.973-0.805-2.465-2.336-3.9-1.623c-1.166,0.58-1.42,2.037-1.34,3.207
			c0.055,0.807,1.301,0.807,1.525,0.105c0.316-0.99,0.527-1.975,1.768-1.039c1.221,0.92,2.213,2.059,3.281,3.141
			c1.858,1.883,3.807,4.645,4.609,7.191c0.186,0.582,0.967,0.416,0.92-0.188C270.742,132.581,267.17,128.247,264.197,125.796z"/>
		<g>
			<path style="fill:#E8828A;" d="M303.377,198.472c-0.447-4-1.01-7.953-2.074-11.842c-0.789-2.889-1.479-6.615-3.428-8.977
				c-1.469-1.779-3.713-2.199-5.813-2.832c-3.664-1.104-7.576-2.506-10.336,1.268c-0.922-0.768-1.945-1.41-3.199-1.979
				c-2.811-1.275-5.57-1.631-8.625-1.541c-2.658,0.078-4.197,1.813-4.93,4.203c-0.965,3.143-1.336,6.643-1.602,9.902
				c-0.561,6.824-0.666,13.883-0.414,20.727c0.096,2.576,0.287,5.857,1.105,8.842c0.272,1.561,0.65,3.104,1.176,4.629
				c1.4,4.064,4.193,8.168,7.514,10.875c3.746,3.049,8.559,4.885,13.422,4.24c5.764-0.766,12.393-3.951,15.244-9.279
				c1.375-2.568,1.719-5.57,2.121-8.41C304.469,211.741,304.109,205.03,303.377,198.472z"/>
			<path style="fill:#C85241;" d="M280.697,190.144c-0.033-5.266-0.113-9.986,2.289-14.789c0.086-0.172-0.162-0.287-0.275-0.158
				c-1.5,1.738-2.266,3.303-2.783,5.617c-0.664,2.975-0.473,6.156-0.486,9.18c-0.029,5.578,0.752,11.004,3.365,15.994
				c0.103,0.197,0.383,0.072,0.314-0.137C281.471,200.778,280.73,195.468,280.697,190.144z"/>
			<path style="opacity:0.3;fill:#E8828A;" d="M303.377,198.472c-0.447-4-1.01-7.953-2.074-11.842
				c-0.789-2.889-1.479-6.615-3.428-8.977c-1.469-1.779-3.713-2.199-5.813-2.832c-3.664-1.104-7.576-2.506-10.336,1.268
				c-0.922-0.768-1.945-1.41-3.199-1.979c-2.811-1.275-5.57-1.631-8.625-1.541c-2.658,0.078-4.197,1.813-4.93,4.203
				c-0.965,3.143-1.336,6.643-1.602,9.902c-0.561,6.824-0.666,13.883-0.414,20.727c0.096,2.576,0.287,5.857,1.105,8.842
				c0.272,1.561,0.65,3.104,1.176,4.629c1.4,4.064,4.193,8.168,7.514,10.875c1.898,1.545,4.07,2.775,6.383,3.533
				c-4.332-3.158-7.873-7.32-10.033-12.359c-2.709-6.324-4.074-13.844-3-20.691c0.924-5.9,5.674-14.455,12.27-8.344
				c1.025,0.949,1.854,2,2.547,3.113c0.959-4.725,3.648-9.674,9.318-6.933c6.238,3.016,9.375,9.158,10.406,15.758
				c1.047,6.686,0.56,15.217-2.152,21.494c-0.969,2.24-2.377,4.402-4.215,6.068c2.99-1.582,5.613-3.818,7.143-6.678
				c1.375-2.568,1.719-5.57,2.121-8.41C304.469,211.741,304.109,205.03,303.377,198.472z"/>
			<path style="opacity:0.3;fill:#E8828A;" d="M270.201,176.044c3.064-0.076,5.182,1.223,7.457,3.119
				c1.406,1.174,3.168,2.494,5.072,1.375c0.561-0.328,1.084-0.699,1.633-1.045c0.984-0.617,2.012-1.104,3.158-1.348
				c4.451-0.945,8.834,0.494,12.305,3.24c-0.486-1.383-1.092-2.691-1.951-3.732c-1.469-1.779-3.713-2.199-5.813-2.832
				c-3.664-1.104-7.576-2.506-10.336,1.268c-0.922-0.768-1.945-1.41-3.199-1.979c-2.811-1.275-5.57-1.631-8.625-1.541
				c-2.658,0.078-4.197,1.813-4.93,4.203c-0.146,0.476-0.256,0.976-0.377,1.469C266.23,176.935,268.211,176.095,270.201,176.044z"/>
		</g>
		<path style="opacity:0.3;fill:#424143;" d="M292.57,118.519c-3.516,1.021-5.854,4.445-7.393,7.58
			c-1.928,3.932-5.643,10.301-10.693,6.746c-2.645-1.861-3.887-5.162-5.801-7.654c-2.23-2.906-6.52-6.193-10.375-3.969
			c-2.922,1.686-2.906,5.404-2.002,8.887c1.043,1.033,2.131,2.025,3.172,3.07c2.252,2.262,5.037,4.52,7.715,6.264
			c4.779,3.113,10.793,3.869,15.938,1.27c5.725-2.895,10.563-7.756,13.801-13.299c0.832-1.426,1.426-2.848,1.771-4.25
			C298.029,120.167,296.09,117.497,292.57,118.519z"/>
		<g style="opacity:0.2;">
			<path style="fill:#FFFFFF;" d="M289.416,112.96c-1.863-1.656-4.451-2.088-6.945-2.527c-5.67-0.998-12.148-0.338-17.682,1.221
				c-3.057,0.859-5.619,2.365-8.271,3.936c-0.299,0.18-0.068,0.58,0.26,0.439c2.52-1.09,4.895-2.244,7.551-3.063
				c5.205-1.604,11.441-2.168,16.844-1.392c2.803,0.404,5.092,1.211,7.641,2.24C289.35,114.03,289.799,113.302,289.416,112.96z"/>
			<path style="fill:#FFFFFF;" d="M293.035,115.382c-0.205-0.334-0.603-0.549-0.867-0.848c-0.324-0.367-0.803-0.617-1.227-0.889
				c-0.404-0.26-0.912,0.301-0.561,0.607c0.375,0.332,0.762,0.639,1.076,1.014c0.285,0.342,0.664,0.697,1.174,0.697
				C292.955,115.964,293.195,115.647,293.035,115.382z"/>
		</g>
	</g>
</g>
</svg>
