<?xml version="1.0" encoding="utf-8"?>
<!-- Generator: Adobe Illustrator 27.5.0, SVG Export Plug-In . SVG Version: 6.00 Build 0)  -->
<svg version="1.1" id="Layer_1" xmlns="http://www.w3.org/2000/svg" xmlns:xlink="http://www.w3.org/1999/xlink" x="0px" y="0px"
	 viewBox="0 0 427.24 300.579" style="enable-background:new 0 0 427.24 300.579;" xml:space="preserve">
<g>
	<g>
		<path style="fill:#606E74;" d="M342.164,113.147c6.911,6.136,15.414,9.705,23.638,13.157c5.488,2.303,11.163,4.685,16.174,7.781
			c9.9,6.116,18.018,15.608,22.858,26.727c4.171,9.582,5.957,20.257,5.242,31.098c0.102,0.389,0.218,0.775,0.359,1.155
			c0.227,0.611,0.532,1.234,1.01,1.689c0.388,0.369,0.981,0.533,1.487,0.544c0.45,0.01,0.809-0.102,1.192-0.385
			c0.323-0.239,0.63-0.652,0.857-1.054c0.174-0.309,0.313-0.636,0.438-0.97c0.883-11.913-1.037-23.676-5.632-34.234
			c-5.276-12.119-14.144-22.478-24.972-29.167c-5.37-3.318-11.243-5.783-16.922-8.166c-8.177-3.432-15.901-6.674-22.142-12.215
			c-6.133-5.445-10.358-12.881-11.896-20.939l-5.306,1.013C330.309,98.404,335.145,106.915,342.164,113.147z"/>
		<path style="fill:#3C484D;" d="M414.599,195.429c0.495,1.493,0.94,3.002,1.272,4.54c0.652,3.027,0.921,6.105,0.518,9.187
			c-0.042,0.317,0.452,0.145,0.517-0.051c0.992-3.005,0.898-6.24,0.329-9.324c-0.293-1.591-0.71-3.165-1.203-4.705
			c-0.241-0.754-0.508-1.501-0.785-2.242c-0.269-0.721-0.513-1.457-1.042-2.028c-0.273-0.295-0.92-0.009-0.9,0.398
			C413.376,192.646,414.148,194.067,414.599,195.429z"/>
		<path style="fill:#3C484D;" d="M412.92,188.184c0.326,0.504,0.961,0.832,1.403,1.23c0.526,0.472,0.996,1.005,1.434,1.558
			c0.978,1.238,1.796,2.616,2.474,4.039c0.676,1.418,1.227,2.93,1.586,4.461c0.318,1.356,0.636,2.882,0.321,4.265
			c-0.049,0.213,0.264,0.165,0.308,0.006c0.855-3.137,0.195-6.324-1.07-9.262c-0.669-1.554-1.492-3.042-2.528-4.384
			c-0.775-1.004-1.943-2.543-3.282-2.733C413.194,187.31,412.686,187.822,412.92,188.184z"/>
		<path style="fill:#3C484D;" d="M409.993,208.52c-0.148,0.474,0.557,0.342,0.686,0.013c1.066-2.722,1.782-5.54,2.074-8.454
			c0.148-1.473,0.216-2.968,0.118-4.446c-0.047-0.706-0.125-1.411-0.248-2.108c-0.108-0.606-0.189-1.358-0.584-1.852
			c-0.353-0.441-1.162,0.03-1.175,0.52c-0.017,0.624,0.224,1.239,0.336,1.85c0.122,0.661,0.199,1.33,0.247,2
			c0.103,1.438,0.084,2.881-0.028,4.319C411.206,203.089,410.809,205.9,409.993,208.52z"/>
		<path style="fill:#3C484D;" d="M404.764,202.214c0.659-2.557,1.653-5.137,2.813-7.507c0.578-1.182,1.226-2.338,1.958-3.432
			c0.358-0.534,0.735-1.054,1.146-1.549c0.36-0.434,0.868-0.838,0.956-1.417c0.041-0.269-0.28-0.423-0.504-0.355
			c-0.642,0.194-1.028,0.721-1.437,1.227c-0.414,0.512-0.807,1.041-1.174,1.587c-0.785,1.165-1.451,2.399-2.042,3.672
			c-1.176,2.533-1.9,5.125-2.459,7.849C403.934,202.71,404.683,202.528,404.764,202.214z"/>
		<path style="fill:#3C484D;" d="M403.068,193.075c1.312-1.825,2.798-3.546,4.316-5.203c0.731-0.798,1.49-1.566,2.262-2.325
			c0.376-0.369,0.755-0.735,1.141-1.094c0.404-0.375,0.948-0.746,1.194-1.248c0.233-0.475-0.14-0.798-0.614-0.61
			c-0.543,0.215-0.97,0.703-1.381,1.105c-0.395,0.387-0.785,0.78-1.167,1.18c-0.781,0.817-1.518,1.679-2.233,2.554
			c-1.435,1.757-2.677,3.628-3.916,5.525C402.484,193.246,402.922,193.279,403.068,193.075z"/>
		<g>
			<path style="fill:#3C484D;" d="M412.739,184.903c-0.091,0.168-0.051,0.342,0.082,0.455c-0.026-0.038-0.053-0.075-0.079-0.113
				c0.025,0.051,0.057,0.089,0.091,0.122c0.029,0.023,0.054,0.048,0.09,0.065c-0.02-0.008-0.039-0.016-0.059-0.024
				c0.071,0.051,0.158,0.081,0.267,0.093c0.065,0.009,0.13,0.005,0.195-0.012c-0.096,0.008-0.11,0.011-0.043,0.008
				c0.052,0.009,0.11,0.002,0.163,0.004c0.043,0.001,0.087,0.005,0.13,0.005c0.019,0.002,0.019,0.002,0.025,0.002
				c0.017,0.003,0.033,0.006,0.05,0.009c0.221,0.052,0.45,0.136,0.594,0.209c0.527,0.266,1.011,0.626,1.47,0.995
				c0.482,0.388,0.939,0.806,1.39,1.229c0.354,0.332,0.677,0.689,1.021,1.031c0.211,0.21,0.706-0.145,0.502-0.352
				c-0.656-0.667-1.184-1.439-1.786-2.153c-0.655-0.776-1.382-1.582-2.332-1.993c-0.221-0.096-0.478-0.169-0.721-0.166
				c-0.159,0.002-0.322,0.032-0.472,0.083c-0.153,0.052-0.301,0.135-0.414,0.253c-0.059,0.062-0.095,0.133-0.138,0.204
				c-0.017,0.028-0.017,0.029-0.024,0.041c0.023-0.04,0.053-0.092,0.023-0.052C412.751,184.865,412.75,184.884,412.739,184.903
				C412.723,184.932,412.723,184.931,412.739,184.903z"/>
			<path style="fill:#3C484D;" d="M412.822,185.359c0.011,0.015,0.021,0.03,0.032,0.045c0.004,0.001,0.008,0.003,0.011,0.004
				c-0.013-0.009-0.019-0.03-0.031-0.041C412.83,185.364,412.825,185.362,412.822,185.359z"/>
		</g>
	</g>
	<g>
		<g>
			<path style="fill:#97AAB3;" d="M317.904,127.047c-1.051-1.38-2.235-2.654-3.57-3.797c-14.276-12.219-38.221-3.092-47.347,11.138
				c-8.819,13.751-8.808,34.034-4.99,49.457c0.742,2.999,1.415,6.012,2.012,9.036c1.981,10.035,3.269,20.304,3.613,30.532
				c0.295,8.771,1.121,17.886-0.745,26.544c-1.01,4.688-2.436,9.759-2.48,14.692c0.238,0.873,0.554,1.72,1.007,2.513
				c2.158,3.779,6.887,4.722,10.882,5.13c5.079,0.519,10.31,0.381,15.393-0.003c2.853-0.215,5.699-0.536,8.527-0.968
				c2.735-0.418,5.538-0.843,8.205-1.592c1.848-0.519,3.609-1.261,5.272-2.208c1.347-1.333,2.43-2.892,3.191-4.637
				c0.197-1.81,0.352-3.624,0.573-5.408c0.737-5.938,1.747-11.835,2.765-17.73c1.923-11.135,3.684-22.298,4.863-33.54
				c1.383-13.185,2.359-27.154,1.693-40.682C326.177,153.535,325.736,137.334,317.904,127.047z"/>
			<path style="opacity:0.54;fill:#A7BBC5;" d="M264.009,192.882c1.981,10.035,3.269,20.304,3.613,30.531
				c0.109,3.248,0.291,6.544,0.382,9.846c6.237,0.991,12.604,1.132,18.902,0.812c6.77-0.344,13.51-1.247,20.153-2.588
				c5.116-1.032,10.182-2.338,15.155-3.929c1.112-7.093,2.111-14.203,2.86-21.347c1.383-13.185,2.359-27.153,1.693-40.681
				c-0.59-11.99-1.031-28.192-8.863-38.479c-1.051-1.38-2.235-2.654-3.57-3.797c-14.276-12.219-38.221-3.092-47.347,11.138
				c-8.819,13.752-8.808,34.034-4.99,49.457C262.74,186.844,263.412,189.857,264.009,192.882z"/>
			<path style="opacity:0.34;fill:#83949C;" d="M272.801,192.304c2.024-0.807,4.213-1.212,6.378-1.391
				c1.82-0.151,3.708-0.187,5.514,0.131c2.708,0.476,5.232,1.687,7.547,3.142c0.981,0.617,1.934,1.292,2.85,2.015
				c-0.741-0.307-1.487-0.599-2.247-0.857c-3.839-1.303-7.891-1.89-11.94-1.785c-2.178,0.057-4.273,0.34-6.387,0.866
				c-1.883,0.469-3.786,1.051-5.734,1.167C269.504,193.966,271.19,192.946,272.801,192.304z"/>
			<path style="opacity:0.34;fill:#83949C;" d="M285.081,200.877c1.981,0.104,3.998,0.46,5.829,1.236
				c-6.249,1.492-12.885,2.291-19.086,0.482c1.11-0.28,2.224-0.548,3.345-0.779C278.42,201.149,281.756,200.703,285.081,200.877z"/>
			<path style="opacity:0.34;fill:#83949C;" d="M290.331,211.891c-0.391,0.496-0.837,0.953-1.359,1.335
				c-2.452,1.793-5.76,2.364-8.731,1.981c-2.531-0.326-5.17-1.508-6.435-3.796c3.217,0.508,6.354,1.483,9.611,1.746
				C285.881,213.355,288.254,212.991,290.331,211.891z"/>
		</g>
		<g>
			<path style="fill:#FFFCD9;" d="M283.399,264.493c1.102-2.416,2.846-4.781,5.555-5.446c2.406-0.59,4.904,0.136,6.512,2.038
				c1.583,1.873,2.291,4.377,2.634,6.762c0.218,1.516,0.281,3.061,0.205,4.597c-1.91,0.326-3.835,0.566-5.765,0.722
				c-3.895,0.316-7.811,0.3-11.708,0.034C281.513,270.251,282.137,267.26,283.399,264.493z"/>
			<path style="fill:#FFFCD9;" d="M267.6,270.295c-0.019-0.936,0.023-1.865,0.101-2.742c0.213-2.408,0.765-5.155,2.453-6.993
				c1.45-1.579,4.061-1.986,5.697-0.444c1.693,1.596,2.131,4.332,2.441,6.522c0.303,2.142,0.334,4.334,0.711,6.464
				c-2.59-0.192-5.242-0.379-7.747-1.051C269.916,271.692,268.647,271.125,267.6,270.295z"/>
		</g>
	</g>
	<g>
		<g>
			<path style="fill:#97AAB3;" d="M147.082,289.096c-1.386,1.731-3.112,3.131-5.11,4.101c-2.807,1.363-5.998,1.93-9.063,2.354
				c-3.98,0.551-8.022,0.635-12.029,0.383c-3.994-0.251-7.962-0.845-11.871-1.698c-2.782-0.607-5.678-1.164-8.312-2.279
				c-2.322-0.983-4.352-2.582-5.02-5.117c-2.208-8.38,2.86-16.184,6.515-23.269c4.06-7.871,5.641-16.886,7.645-25.43
				c2.336-9.963,3.773-20.212,4.479-30.417c1.225-17.711,0.116-35.72-4.497-53.162c-2.222-8.405-5.564-16.659-7.032-25.166
				c-0.348-2.016-0.607-4.092-0.711-6.183c0.195-0.438,0.376-0.881,0.585-1.313c0.837-4.602,2.903-9.154,5.965-13.129
				c2.167-2.812,5.021-5.435,8.741-7.247c4.135-2.013,9.19-2.802,14.125-2.785c11.363,0.039,21.713,4.535,29.538,10.213
				c8.049,5.841,13.489,13.151,16.953,20.965c2.094,4.725,3.525,9.577,4.452,14.491c1.907,8.198,2.554,16.647,2.409,25.066
				c-0.397,23.05-6.807,45.68-15.056,67.047c-4.072,10.545-8.684,20.862-13.446,31.11c-2.521,5.424-5.034,10.854-7.295,16.394
				C148.367,285.69,147.744,287.401,147.082,289.096z"/>
			<path style="opacity:0.54;fill:#A7BBC5;" d="M106.424,143.309c3.773,8.211,8.282,16.085,13.269,23.614
				c5.439,8.213,11.468,16.055,18.093,23.347c7.167,7.89,15.225,15.002,23.734,21.412c4.443,3.347,9.037,6.498,13.769,9.424
				c5.447-16.717,9.252-34.051,9.555-51.631c0.145-8.42-0.502-16.869-2.409-25.066c-0.927-4.915-2.358-9.767-4.452-14.491
				c-3.464-7.814-8.903-15.124-16.953-20.965c-7.825-5.678-18.176-10.174-29.538-10.213c-4.935-0.017-9.99,0.772-14.125,2.785
				c-3.72,1.811-6.574,4.435-8.741,7.247c-3.062,3.975-5.128,8.527-5.965,13.129c-0.209,0.432-0.39,0.875-0.585,1.313
				c0.103,2.09,0.363,4.167,0.711,6.183C103.595,134.089,104.977,138.703,106.424,143.309z"/>
			<path style="opacity:0.34;fill:#83949C;" d="M122.952,209.462c2.164-0.251,4.384-0.07,6.52,0.321
				c1.797,0.329,3.628,0.787,5.289,1.565c2.49,1.166,4.611,2.993,6.466,5.002c0.786,0.851,1.53,1.752,2.226,2.689
				c-0.635-0.489-1.28-0.966-1.946-1.414c-3.366-2.26-7.124-3.883-11.061-4.838c-2.118-0.514-4.214-0.787-6.392-0.83
				c-1.941-0.038-3.93,0.027-5.84-0.369C119.336,210.206,121.23,209.661,122.952,209.462z"/>
			<path style="opacity:0.34;fill:#83949C;" d="M132.57,220.941c1.886,0.617,3.74,1.487,5.305,2.714
				c-6.422-0.19-13.037-1.151-18.551-4.514c1.145,0.019,2.29,0.051,3.433,0.121C126.068,219.466,129.405,219.906,132.57,220.941z"/>
			<path style="opacity:0.34;fill:#83949C;" d="M134.764,232.944c-0.507,0.377-1.057,0.702-1.66,0.934
				c-2.835,1.091-6.177,0.779-8.945-0.366c-2.358-0.975-4.597-2.804-5.222-5.344c2.973,1.33,5.747,3.089,8.823,4.193
				C130.086,233.196,132.472,233.464,134.764,232.944z"/>
		</g>
		<g>
			<path style="fill:#FFFCD9;" d="M113.074,286.043c1.437-2.234,3.501-4.324,6.277-4.595c2.465-0.24,4.834,0.837,6.153,2.949
				c1.299,2.08,1.641,4.66,1.639,7.069c-0.001,1.532-0.16,3.07-0.455,4.579c-1.937,0.049-3.877,0.011-5.809-0.111
				c-3.9-0.245-7.773-0.821-11.592-1.642C110.383,291.472,111.429,288.601,113.074,286.043z"/>
			<path style="fill:#FFFCD9;" d="M97.317,289.714c0.11-0.93,0.28-1.844,0.478-2.702c0.543-2.355,1.469-5,3.394-6.588
				c1.654-1.364,4.296-1.407,5.703,0.345c1.457,1.815,1.513,4.584,1.518,6.796c0.005,2.163-0.266,4.338-0.187,6.501
				c-2.539-0.547-5.14-1.098-7.528-2.109C99.418,291.417,98.239,290.681,97.317,289.714z"/>
		</g>
	</g>
	<path style="fill:#A7BBC5;" d="M116.892,147.119c0,0,20.637,63.271,99.076,76.536c78.439,13.265,139.843-8.415,161.515-41.37
		c14.543-22.115,16.223-51.162,9.476-76.221c-7.713-28.645-26.021-49.526-53.824-60.13c-4.146-1.581-8.38-2.933-12.663-4.089
		c-27.664-7.463-57.702-9.558-86.123-6.226c-21.747,2.549-43.188,6.505-65.195,4.493c-8.929-0.816-18.218-4.077-27.237-3.115
		c-9.633,1.028-15.838,8.538-20.789,16.22C101.009,84.43,103.721,129.557,116.892,147.119z"/>
	<path style="opacity:0.54;fill:#A7BBC5;" d="M386.959,106.064c-3.362-12.488-8.74-23.499-16.038-32.827
		c1.737,3.795,3.22,7.707,4.435,11.691c2.222,7.289,3.629,14.98,3.398,22.624c-0.192,6.343-1.476,13.637-6.936,17.623
		c-4.934,3.601-11.702,4.073-17.496,5.282c-4.236,0.884-8.317,2.013-12.182,4.006c-3.81,1.965-7.283,4.541-10.307,7.576
		c-5.908,5.927-10.223,13.639-12.286,21.749c-1.889,7.423-1.874,15.202-2.867,22.765c-0.942,7.178-2.679,14.794-7.888,20.157
		c-5.314,5.471-13.785,8.446-21.349,7.656c-3.796-0.396-7.485-1.896-10.133-4.712c-2.43-2.585-3.624-6.098-4.397-9.492
		c-0.894-3.924-1.264-7.941-1.811-11.922c-0.535-3.894-1.443-7.559-2.86-11.23c-3.014-7.807-7.557-15.12-13.792-20.759
		c-6.324-5.719-14.167-9.236-22.583-10.462c-7.53-1.096-15.712-0.786-22.759,2.32c-3.374,1.487-6.433,3.659-8.767,6.531
		c-2.843,3.499-4.519,7.991-5.219,12.408c-1.613,10.184,2.014,20.256,3.043,30.305c0.439,4.279,0.572,8.968-0.738,13.122
		c-0.795,2.522-2.356,4.745-4.69,6.051c-0.518,0.29-1.055,0.524-1.603,0.726c7.554,2.679,15.808,4.875,24.838,6.402
		c78.439,13.265,139.843-8.415,161.515-41.37C392.026,160.17,393.706,131.123,386.959,106.064z"/>
	<path style="opacity:0.54;fill:#A7BBC5;" d="M147.018,190.803c8.364-4.553,14.961-12.295,20.066-20.132
		c1.242-1.906,2.384-3.817,3.206-5.939c0.693-1.788,1.33-3.639,2.259-5.322c0.291-0.527,0.645-1.166,1.176-1.491
		c0.779-0.477,1.906-0.412,2.77-0.311c1.071,0.125,2.118,0.396,3.153,0.688c0.498,0.141,1.014,0.346,1.525,0.431
		c0.698,0.116,1.497,0.012,2.2-0.012c10.715-0.367,21.526-3.825,30.135-10.303c3.997-3.007,7.429-6.807,9.635-11.32
		c0.915-1.872,1.654-3.827,2.288-5.81c0.314-0.982,0.572-2.057,1.175-2.911c0.607-0.86,1.541-1.376,2.479-1.805
		c2.081-0.951,4.27-1.63,6.442-2.339c5.788-1.888,11.602-3.743,17.203-6.145c7.174-3.077,13.839-7.187,19.989-11.983
		c3.081-2.403,6.04-4.99,8.7-7.858c2.414-2.603,4.694-5.508,6.055-8.815c1.116-2.711,1.51-5.769,0.289-8.517
		c-1.823-4.105-6.394-5.564-9.885-7.9c-2.254-1.51-4.166-3.611-6.049-5.547c-2.179-2.24-4.269-4.565-6.293-6.945
		c-3.694-4.344-7.302-8.769-10.592-13.429c-2.83-4.007-5.458-8.205-7.711-12.586c-4.322,0.255-8.624,0.618-12.888,1.118
		c-21.747,2.549-43.188,6.505-65.195,4.493c-8.929-0.817-18.218-4.078-27.237-3.115c-9.633,1.028-15.838,8.538-20.789,16.22
		c-20.119,31.213-17.407,76.34-4.236,93.902C116.892,147.119,124.285,169.766,147.018,190.803z"/>
	<g>
		<g>
			<path style="fill:#97AAB3;" d="M263.051,164.935c-3.998-9.7-10.625-17.906-21.257-23.088c-2.67-1.301-5.474-2.313-8.343-3.074
				c-3.172-0.841-6.377-1.404-9.667-1.37c-9.009,0.091-17.918,3.632-23.913,10.473c-5.84,6.664-8.471,15.873-7.054,24.613
				c0.997,6.144,4.352,11.74,6.371,17.594c2.7,7.831,4.807,15.862,6.411,23.987c1.981,10.035,3.269,20.304,3.613,30.531
				c0.295,8.771,1.121,17.886-0.745,26.544c-1.01,4.688-2.436,9.759-2.48,14.692c0.238,0.873,0.554,1.72,1.006,2.513
				c2.158,3.779,6.887,4.722,10.882,5.131c5.079,0.519,10.31,0.381,15.393-0.003c2.853-0.215,5.699-0.536,8.527-0.968
				c2.735-0.418,5.538-0.843,8.205-1.592c1.848-0.52,3.609-1.262,5.272-2.208c1.347-1.333,2.43-2.892,3.191-4.637
				c0.197-1.81,0.351-3.624,0.573-5.408c0.737-5.938,1.747-11.835,2.765-17.729c1.923-11.135,3.684-22.298,4.863-33.54
				C268.795,207.072,271.044,184.327,263.051,164.935z"/>
			<path style="opacity:0.34;fill:#83949C;" d="M214.39,213.492c2.024-0.807,4.213-1.212,6.378-1.391
				c1.82-0.151,3.708-0.187,5.514,0.131c2.709,0.476,5.232,1.687,7.547,3.142c0.981,0.617,1.934,1.292,2.85,2.015
				c-0.741-0.307-1.488-0.599-2.247-0.857c-3.839-1.303-7.891-1.89-11.94-1.785c-2.179,0.057-4.273,0.34-6.387,0.866
				c-1.883,0.469-3.786,1.051-5.734,1.167C211.093,215.154,212.779,214.134,214.39,213.492z"/>
			<path style="opacity:0.34;fill:#83949C;" d="M226.67,222.065c1.981,0.104,3.998,0.46,5.829,1.236
				c-6.249,1.492-12.885,2.291-19.086,0.482c1.11-0.28,2.224-0.548,3.346-0.778C220.009,222.337,223.345,221.891,226.67,222.065z"/>
			<path style="opacity:0.34;fill:#83949C;" d="M231.92,233.079c-0.392,0.496-0.837,0.953-1.359,1.335
				c-2.452,1.793-5.76,2.364-8.731,1.981c-2.531-0.326-5.17-1.508-6.435-3.796c3.217,0.508,6.354,1.483,9.611,1.746
				C227.47,234.543,229.843,234.179,231.92,233.079z"/>
		</g>
		<g>
			<path style="fill:#FFFCD9;" d="M224.988,285.681c1.102-2.416,2.846-4.781,5.555-5.446c2.406-0.591,4.904,0.136,6.512,2.038
				c1.584,1.873,2.291,4.377,2.634,6.762c0.218,1.516,0.281,3.061,0.205,4.597c-1.91,0.326-3.836,0.566-5.765,0.722
				c-3.895,0.316-7.811,0.3-11.708,0.034C223.102,291.439,223.726,288.448,224.988,285.681z"/>
			<path style="fill:#FFFCD9;" d="M209.189,291.483c-0.019-0.936,0.023-1.865,0.101-2.742c0.213-2.407,0.765-5.155,2.453-6.993
				c1.45-1.579,4.061-1.986,5.697-0.444c1.693,1.596,2.131,4.332,2.441,6.522c0.303,2.142,0.334,4.334,0.711,6.464
				c-2.59-0.191-5.242-0.379-7.747-1.051C211.505,292.88,210.236,292.314,209.189,291.483z"/>
		</g>
	</g>
	<g>
		<g>
			<path style="fill:#97AAB3;" d="M381.523,142.985c-1.051-1.38-2.235-2.654-3.57-3.797c-14.276-12.219-38.221-3.092-47.347,11.138
				c-8.819,13.752-8.807,34.034-4.99,49.457c0.742,2.999,1.415,6.012,2.012,9.036c1.981,10.035,3.269,20.304,3.613,30.532
				c0.295,8.771,1.121,17.886-0.745,26.544c-1.01,4.688-2.435,9.759-2.48,14.692c0.238,0.873,0.554,1.72,1.006,2.513
				c2.158,3.779,6.887,4.722,10.882,5.13c5.079,0.519,10.31,0.381,15.393-0.003c2.853-0.215,5.699-0.536,8.527-0.968
				c2.735-0.418,5.538-0.843,8.205-1.592c1.848-0.52,3.609-1.262,5.272-2.208c1.347-1.333,2.43-2.892,3.191-4.637
				c0.197-1.81,0.351-3.624,0.573-5.408c0.737-5.938,1.747-11.835,2.765-17.73c1.923-11.135,3.684-22.298,4.863-33.54
				c1.383-13.185,2.359-27.154,1.693-40.682C389.796,169.474,389.355,153.272,381.523,142.985z"/>
			<path style="opacity:0.34;fill:#83949C;" d="M336.42,208.243c2.024-0.807,4.213-1.212,6.378-1.391
				c1.82-0.151,3.708-0.187,5.514,0.131c2.708,0.476,5.232,1.687,7.547,3.142c0.981,0.617,1.934,1.292,2.85,2.015
				c-0.741-0.307-1.487-0.599-2.247-0.857c-3.839-1.303-7.891-1.89-11.94-1.785c-2.179,0.057-4.273,0.34-6.388,0.866
				c-1.883,0.469-3.786,1.051-5.734,1.167C333.123,209.905,334.809,208.885,336.42,208.243z"/>
			<path style="opacity:0.34;fill:#83949C;" d="M348.7,216.815c1.981,0.104,3.998,0.46,5.829,1.236
				c-6.249,1.492-12.885,2.291-19.087,0.483c1.11-0.281,2.224-0.548,3.346-0.779C342.039,217.088,345.375,216.641,348.7,216.815z"/>
			<path style="opacity:0.34;fill:#83949C;" d="M353.95,227.83c-0.392,0.496-0.837,0.953-1.359,1.335
				c-2.452,1.793-5.76,2.364-8.731,1.981c-2.531-0.326-5.17-1.508-6.435-3.796c3.217,0.508,6.354,1.483,9.611,1.746
				C349.5,229.294,351.873,228.93,353.95,227.83z"/>
		</g>
		<g>
			<path style="fill:#FFFCD9;" d="M347.018,280.431c1.102-2.416,2.846-4.781,5.555-5.446c2.406-0.59,4.904,0.136,6.512,2.038
				c1.583,1.873,2.291,4.377,2.634,6.762c0.218,1.516,0.281,3.061,0.205,4.597c-1.91,0.326-3.836,0.566-5.765,0.722
				c-3.895,0.316-7.811,0.3-11.708,0.034C345.132,286.19,345.756,283.198,347.018,280.431z"/>
			<path style="fill:#FFFCD9;" d="M331.219,286.234c-0.019-0.936,0.023-1.865,0.101-2.742c0.213-2.407,0.765-5.155,2.453-6.993
				c1.45-1.579,4.061-1.986,5.697-0.444c1.693,1.596,2.131,4.332,2.441,6.522c0.303,2.142,0.334,4.334,0.711,6.465
				c-2.59-0.192-5.242-0.379-7.747-1.051C333.535,287.631,332.266,287.064,331.219,286.234z"/>
		</g>
	</g>
	<g>
		<g>
			<path style="fill:#F8A8A0;" d="M118.467,44.238c0.089-4.695-0.239-9.416-1.168-14.023c-0.703-3.485-1.778-6.901-3.297-10.113
				c-3.093-2.991-6.177-6.001-9.671-8.52C99.277,7.94,93.386,5.635,87.211,4.83c-6.517-0.85-13.139,0.048-19.396,1.962
				C61.486,8.73,55.48,11.642,49.77,14.969c-6.198,3.612-11.908,7.928-17.566,12.326c-2.944,2.288-5.87,4.6-8.83,6.868
				c-1.278,0.98-2.552,1.923-3.927,2.762c-1.252,0.764-2.524,1.492-3.779,2.251c-2.444,1.478-4.951,3.078-6.783,5.311
				c-2.045,2.493-2.709,5.616-2.409,8.782c0.042,0.44,0.1,0.876,0.168,1.311c0.486,1.762,1.223,3.457,2.044,5.127
				c2.716,5.526,5.964,10.794,9.841,15.581c3.875,4.784,8.366,9.066,13.355,12.672c2.515,1.818,5.167,3.431,7.835,5.01
				c2.777,1.644,5.596,3.22,8.469,4.693c5.922,3.035,12.104,5.681,18.559,7.344c6.007,1.548,12.494,2.324,18.626,1.043
				c5.275-1.102,9.959-3.918,13.751-7.707c3.832-3.828,6.742-8.51,9.142-13.34c2.121-4.269,3.941-8.712,5.414-13.247
				c1.403-4.319,2.508-8.736,3.314-13.205C117.847,53.826,118.376,49.039,118.467,44.238z"/>
			<path style="fill:#A7BBC5;" d="M20.065,42.934c4.923-3.182,9.441-6.939,14.078-10.514c2.169-1.673,4.366-3.319,6.671-4.8
				c2.359-1.515,4.832-2.732,7.444-3.749c6.507-2.534,13.852-4.1,20.774-2.464c3.512,0.83,6.657,2.516,9.426,4.817
				c2.574,2.139,4.568,4.823,6.28,7.68c2.967,4.95,5.362,10.177,7.873,15.365c4.903,10.131,10.108,20.414,17.652,28.867
				c0.245,0.275,0.5,0.542,0.751,0.812c0.981-2.364,1.878-4.764,2.667-7.194c1.403-4.319,2.508-8.736,3.314-13.205
				c0.852-4.724,1.381-9.512,1.472-14.312c0.089-4.695-0.239-9.416-1.168-14.023c-0.703-3.485-1.778-6.901-3.297-10.113
				c-3.093-2.991-6.177-6.001-9.671-8.519C99.277,7.94,93.386,5.635,87.211,4.83c-6.517-0.849-13.139,0.048-19.396,1.963
				C61.486,8.73,55.48,11.642,49.77,14.969c-6.198,3.612-11.908,7.928-17.566,12.326c-2.944,2.288-5.87,4.6-8.83,6.868
				c-1.278,0.98-2.552,1.923-3.927,2.762c-1.252,0.764-2.524,1.492-3.779,2.251c-2.444,1.478-4.951,3.078-6.782,5.311
				c-0.994,1.211-1.655,2.573-2.045,4.014C11.613,47.88,16.075,45.513,20.065,42.934z"/>
			<path style="fill:#ABADB0;" d="M118.467,44.238c0.089-4.695-0.239-9.416-1.168-14.023c-0.703-3.485-1.778-6.901-3.297-10.113
				c-1.639-1.584-3.277-3.172-4.973-4.692c-2.801,0.767-5.623,1.463-8.4,2.316c-4.084,1.253-7.941,2.927-11.455,5.379
				c-6.922,4.829-12.651,11.224-17.604,18.014c-5.163,7.077-9.595,14.663-12.843,22.813c-3.113,7.81-5.105,16.026-6.051,24.377
				c-0.422,3.731-0.627,7.477-0.669,11.227c4.75,2.238,9.661,4.162,14.742,5.471c6.007,1.548,12.494,2.324,18.626,1.043
				c5.275-1.102,9.959-3.918,13.751-7.707c3.832-3.828,6.742-8.51,9.142-13.34c2.121-4.269,3.941-8.712,5.414-13.247
				c1.403-4.319,2.508-8.736,3.314-13.205C117.847,53.826,118.376,49.038,118.467,44.238z"/>
		</g>
		<g>
			<path style="fill:#F8A8A0;" d="M172.459,51.864c1.215-4.536,2.837-8.981,5.006-13.151c1.641-3.154,3.619-6.139,5.969-8.804
				c3.8-2.017,7.598-4.056,11.652-5.508c5.865-2.1,12.164-2.683,18.321-1.746c6.497,0.989,12.612,3.685,18.093,7.258
				c5.545,3.615,10.509,8.076,15.074,12.855c4.955,5.187,9.246,10.916,13.465,16.709c2.195,3.014,4.366,6.046,6.582,9.045
				c0.957,1.295,1.92,2.554,3.008,3.742c0.991,1.081,2.012,2.133,3.008,3.209c1.939,2.097,3.905,4.329,5.046,6.982
				c1.275,2.962,1.048,6.147-0.117,9.106c-0.162,0.411-0.338,0.814-0.525,1.213c-0.955,1.558-2.132,2.982-3.384,4.36
				c-4.14,4.557-8.721,8.72-13.772,12.246c-5.048,3.524-10.55,6.394-16.342,8.477c-2.92,1.05-5.915,1.865-8.916,2.644
				c-3.124,0.811-6.269,1.544-9.437,2.163c-6.53,1.276-13.204,2.106-19.867,1.916c-6.2-0.176-12.649-1.227-18.186-4.157
				c-4.763-2.52-8.484-6.523-11.079-11.214c-2.621-4.74-4.121-10.045-5.089-15.351c-0.855-4.69-1.374-9.462-1.533-14.228
				c-0.152-4.538,0.01-9.089,0.473-13.606C170.399,61.249,171.217,56.502,172.459,51.864z"/>
			<path style="fill:#A7BBC5;" d="M267.373,77.866c-3.849-4.421-7.15-9.282-10.615-14.002c-1.621-2.208-3.276-4.398-5.081-6.46
				c-1.847-2.109-3.886-3.964-6.115-5.664c-5.551-4.237-12.174-7.777-19.279-8.121c-3.605-0.175-7.093,0.574-10.391,2.018
				c-3.065,1.342-5.725,3.369-8.162,5.64c-4.222,3.935-7.971,8.294-11.821,12.584c-7.517,8.376-15.366,16.816-24.957,22.849
				c-0.312,0.196-0.63,0.382-0.946,0.572c-0.288-2.544-0.484-5.098-0.57-7.651c-0.152-4.538,0.01-9.089,0.473-13.606
				c0.49-4.775,1.308-9.522,2.55-14.16c1.215-4.536,2.837-8.981,5.006-13.151c1.641-3.154,3.619-6.139,5.969-8.804
				c3.8-2.017,7.598-4.055,11.652-5.508c5.865-2.1,12.164-2.683,18.321-1.746c6.497,0.989,12.612,3.685,18.093,7.258
				c5.545,3.614,10.509,8.076,15.074,12.855c4.955,5.187,9.246,10.916,13.465,16.708c2.195,3.014,4.366,6.046,6.582,9.045
				c0.957,1.295,1.92,2.554,3.008,3.742c0.991,1.081,2.012,2.133,3.008,3.209c1.939,2.097,3.905,4.329,5.046,6.982
				c0.619,1.439,0.878,2.93,0.853,4.423C274.124,84.96,270.492,81.449,267.373,77.866z"/>
			<path style="fill:#ABADB0;" d="M172.459,51.864c1.215-4.536,2.837-8.981,5.006-13.151c1.641-3.154,3.619-6.139,5.969-8.804
				c2.013-1.069,4.027-2.141,6.078-3.131c2.479,1.513,4.997,2.964,7.43,4.552c3.577,2.335,6.819,5.012,9.517,8.342
				c5.314,6.557,9.047,14.288,11.926,22.185c3.001,8.23,5.158,16.747,6.022,25.477c0.828,8.367,0.466,16.813-0.938,25.1
				c-0.627,3.702-1.468,7.358-2.466,10.973c-5.184,0.835-10.435,1.323-15.681,1.174c-6.2-0.176-12.649-1.227-18.186-4.157
				c-4.764-2.52-8.484-6.523-11.079-11.214c-2.621-4.74-4.121-10.045-5.089-15.351c-0.855-4.69-1.374-9.462-1.533-14.228
				c-0.152-4.538,0.01-9.089,0.473-13.606C170.399,61.249,171.217,56.502,172.459,51.864z"/>
		</g>
		<path style="fill:#A7BBC5;" d="M214.356,63.681c-6.781-25.723-26.883-34.026-26.883-34.026
			c-6.435-17.849-32.764-21.806-36.189-22.248c-3.413-0.524-29.808-4.014-40.935,11.354c0,0-21.615,2.41-35.256,25.248
			c-13.64,22.839-35.462,61.963-5.66,82.453c22.266,15.308,50.06,16.783,62.696,16.55c12.077,3.724,39.192,10.005,64.827,1.462
			C231.269,133.041,221.137,89.403,214.356,63.681z"/>
		<g>
			<path style="fill:#FFFFFF;" d="M106.048,126.079c0,0,1.98-7.795-8.074-9.204c-10.054-1.409-16.148,19.534-10.345,20.186
				C93.432,137.713,106.048,126.079,106.048,126.079z"/>
			<path style="fill:#FFFFFF;" d="M165.047,134.413c0,0,0.256-8.038,10.307-6.608c10.051,1.43,10.105,23.242,4.349,22.261
				C173.947,149.086,165.047,134.413,165.047,134.413z"/>
		</g>
		<path style="opacity:0.34;fill:#707F86;" d="M176.505,109.326c-0.447-0.063-0.885-0.231-1.277-0.512
			c-37.336-26.658-78.641-11.361-79.054-11.203c-1.498,0.571-3.176-0.179-3.748-1.679c-0.572-1.5,0.176-3.18,1.673-3.755
			c0.453-0.175,11.293-4.276,27.144-4.892c14.643-0.57,36.48,1.881,57.359,16.79c1.306,0.933,1.61,2.749,0.678,4.058
			C178.627,109.049,177.544,109.473,176.505,109.326z"/>
		<g>
			<g>
				<g>
					<g>
						<path style="fill:#FFFFFF;" d="M126.49,76.825c-1.172,8.295-8.835,14.071-17.116,12.902
							c-8.281-1.17-14.044-8.842-12.873-17.138s8.835-14.071,17.116-12.902C121.898,60.857,127.661,68.53,126.49,76.825z"/>
						<g>
							<path style="fill:#62493E;" d="M122.693,76.289c-0.875,6.195-6.598,10.509-12.783,9.635
								c-6.185-0.874-10.489-6.604-9.614-12.799c0.875-6.195,6.598-10.509,12.783-9.635
								C119.264,64.363,123.568,70.093,122.693,76.289z"/>
							<g>
								<path style="fill:#312017;" d="M120.781,75.995c-0.725,5.135-5.469,8.711-10.596,7.987
									c-5.126-0.724-8.694-5.474-7.969-10.609c0.725-5.135,5.469-8.711,10.595-7.987C117.938,66.11,121.506,70.86,120.781,75.995z
									"/>
								<path style="fill:#FFFFFF;" d="M110.387,69.9c-0.133,0.945-1.007,1.604-1.951,1.47c-0.944-0.133-1.601-1.008-1.467-1.953
									c0.133-0.945,1.007-1.604,1.951-1.47S110.52,68.955,110.387,69.9z"/>
								<path style="fill:#FFFFFF;" d="M106.055,73.535c-0.084,0.595-0.634,1.009-1.227,0.925c-0.594-0.084-1.007-0.634-0.923-1.229
									c0.084-0.595,0.634-1.009,1.228-0.925C105.725,72.39,106.139,72.94,106.055,73.535z"/>
							</g>
						</g>
					</g>
				</g>
				<g>
					<g>
						
							<ellipse transform="matrix(0.1404 -0.9901 0.9901 0.1404 64.6086 240.6077)" style="fill:#FFFFFF;" cx="170.876" cy="83.094" rx="15.169" ry="15.143"/>
						<g>
							<path style="fill:#62493E;" d="M182.074,84.676c-0.875,6.195-6.598,10.509-12.783,9.635
								c-6.184-0.874-10.489-6.604-9.614-12.799c0.875-6.195,6.598-10.509,12.783-9.635
								C178.645,72.751,182.949,78.481,182.074,84.676z"/>
							<g>
								<path style="fill:#312017;" d="M180.161,84.382c-0.725,5.135-5.469,8.711-10.595,7.987
									c-5.126-0.724-8.694-5.474-7.969-10.609c0.725-5.135,5.469-8.711,10.596-7.987
									C177.319,74.497,180.887,79.247,180.161,84.382z"/>
								<path style="fill:#FFFFFF;" d="M169.767,78.288c-0.133,0.945-1.007,1.604-1.951,1.47c-0.944-0.133-1.601-1.008-1.467-1.953
									c0.134-0.945,1.007-1.604,1.951-1.47C169.244,76.468,169.901,77.342,169.767,78.288z"/>
								<path style="fill:#FFFFFF;" d="M165.435,81.923c-0.084,0.595-0.634,1.009-1.228,0.925c-0.594-0.084-1.007-0.634-0.923-1.229
									c0.084-0.595,0.633-1.009,1.228-0.925C165.106,80.777,165.519,81.328,165.435,81.923z"/>
							</g>
						</g>
					</g>
				</g>
			</g>
			<g>
				<path style="fill:#C57A63;" d="M104.474,56.673c-0.235-0.033-0.463-0.134-0.653-0.304c-0.511-0.458-0.558-1.241-0.103-1.755
					c0.062-0.069,6.228-6.853,14.524-0.938c0.56,0.399,0.691,1.178,0.292,1.739c-0.399,0.561-1.175,0.694-1.736,0.293
					c-6.449-4.597-11.029,0.352-11.221,0.565C105.288,56.592,104.87,56.729,104.474,56.673z"/>
				<g>
					<g>
						<path style="fill:#6F5444;" d="M104.474,56.673c-0.235-0.033-0.463-0.134-0.653-0.304c-0.511-0.458-0.558-1.241-0.103-1.755
							c0.062-0.069,6.228-6.853,14.524-0.938c0.56,0.399,0.691,1.178,0.292,1.739c-0.399,0.561-1.175,0.694-1.736,0.293
							c-6.449-4.597-11.029,0.352-11.221,0.565C105.288,56.592,104.87,56.729,104.474,56.673z"/>
					</g>
					<g>
						<path style="fill:#6F5444;" d="M182.617,67.713c-0.397-0.056-0.761-0.304-0.948-0.693c-0.127-0.261-3.158-6.281-10.625-3.65
							c-0.649,0.228-1.359-0.113-1.587-0.763c-0.228-0.649,0.114-1.361,0.762-1.59c9.611-3.388,13.655,4.841,13.695,4.924
							c0.296,0.621,0.033,1.366-0.587,1.662C183.096,67.713,182.851,67.746,182.617,67.713z"/>
					</g>
				</g>
			</g>
		</g>
		<path style="fill:#A7BBC5;" d="M170.008,120.256c-0.974-6.478-3.437-12.661-8.007-18.082
			c-9.034-10.716-23.949-15.215-37.552-12.519c-12.021,2.383-22.3,10.837-25.977,22.691c-2.858,9.212-2.098,19.192,0.002,28.604
			c2.717,12.178,13.416,27.463,3.882,39.123c-8.317,10.171-29.42,16.483-40.549,7.593c-5.942-4.747-7.049-12.432-5.373-19.521
			c0.558-2.361,1.817-3.345,3.378-5.039c0.676-0.733,1.207-1.739,0.956-2.704c-0.134-0.515-0.474-0.951-0.85-1.326
			c-2.527-2.521-6.582-2.417-9.825-1.705c-2.399,0.526-4.958,1.571-6.676,3.41c-1.996-1.053-4.305-1.735-6.545-1.145
			c-2.106,0.554-4.36,2.279-4.353,4.642c0.01,3.12,3.461,6.01,4.308,9.102c1.371,5.008,1.351,10.122,3.643,14.878
			c6.612,13.719,22.884,17.977,36.864,18.667c18.77,0.927,38.078-2.853,54.4-12.42c18.286-10.719,30.178-28.403,35.937-48.673
			C170.043,137.48,171.266,128.621,170.008,120.256z"/>
		<g>
			<path style="opacity:0.34;fill:#83949C;" d="M106.908,120.169c1.696-0.957,3.489-1.719,5.313-2.411
				c4.073-1.546,8.349-2.662,12.7-3.008c3.393-0.27,6.849-0.264,10.249-0.151c2.638,0.088,5.288,0.294,7.895,0.738
				c-3.545-1.302-7.284-2.067-11.041-2.4c-3.679-0.326-7.434-0.248-11.069,0.442c-4.04,0.766-7.82,2.462-11.233,4.738
				C108.755,118.762,107.824,119.455,106.908,120.169z"/>
			<path style="opacity:0.34;fill:#83949C;" d="M95.147,186.154c-0.038,0.617,0.048,1.247,0.227,1.86
				c0.697,2.389,2.423,4.467,4.305,6.079c0.777,0.359,1.554,0.712,2.323,1.057c-0.903-2.148-2.11-4.179-3.56-5.994
				c-0.904-1.132-1.936-2.216-3.099-3.113C95.279,186.081,95.21,186.115,95.147,186.154z"/>
			<path style="opacity:0.34;fill:#83949C;" d="M104.55,184.498c3.926,2.215,8.003,4.588,12.388,5.784
				c-0.848-1.414-1.895-2.704-3.182-3.739c-1.405-1.131-3.047-1.909-4.759-2.455c-1.985-0.633-4.305-0.989-6.493-0.733
				C103.188,183.732,103.87,184.114,104.55,184.498z"/>
			<path style="opacity:0.34;fill:#83949C;" d="M113.608,172.105c4.579-0.852,9.379-0.604,13.894,0.494
				c2.302,0.56,4.569,1.353,6.707,2.4c-0.929-1.704-2.57-2.926-4.276-3.795c-1.17-0.596-2.403-1.072-3.67-1.461
				c-2.127-0.411-4.345-0.441-6.399-0.195c-2.794,0.333-5.821,1.253-8.158,2.986C112.335,172.368,112.969,172.224,113.608,172.105z"
				/>
			<path style="opacity:0.34;fill:#83949C;" d="M115.127,156.904c-1.111,0.466-2.137,1.025-3.176,1.622
				c2.109-0.415,4.219-0.823,6.344-1.15c3.138-0.482,6.304-0.757,9.481-0.676c3.028,0.077,6.075,0.44,9.065,0.914
				c2.412,0.382,4.861,0.884,7.24,1.596c-0.897-0.642-1.842-1.221-2.828-1.721c-5.138-2.611-11.048-3.558-16.757-2.974
				C121.273,154.844,118.116,155.65,115.127,156.904z"/>
			<path style="opacity:0.34;fill:#83949C;" d="M105.323,142.207c1.055-0.493,2.08-1.063,3.105-1.581
				c2.044-1.033,4.2-1.787,6.379-2.481c3.865-1.231,7.84-2.154,11.874-2.599c3.37-0.371,6.783-0.564,10.173-0.592
				c3.286-0.028,6.736,0.098,10.074,0.685c-1.121-0.57-2.284-1.059-3.464-1.472c-0.885-0.309-1.783-0.581-2.692-0.818
				c-1.1-0.183-2.208-0.324-3.313-0.427c-5.054-0.471-10.175-0.282-15.217,0.258c-0.577,0.062-1.161,0.123-1.746,0.188
				C114.763,134.769,109.006,137.506,105.323,142.207z"/>
		</g>
		<path style="opacity:0.34;fill:#83949C;" d="M170.008,120.256c-0.974-6.478-3.437-12.661-8.007-18.082
			c-9.034-10.716-23.949-15.215-37.552-12.519c-12.021,2.383-22.3,10.837-25.977,22.691c-0.987,3.181-1.534,6.455-1.752,9.764
			c1.396-4.607,3.572-8.99,6.543-12.778c3.484-4.441,8.091-8.03,13.436-9.913c6.317-2.226,13.107-2.89,19.654-1.292
			c6.34,1.547,12.031,5.067,16.397,9.906c4.404,4.88,7.388,11.007,9.214,17.291c1.784,6.139,2.462,12.551,2.268,18.933
			c-0.178,5.863-1.098,11.69-2.603,17.356c2.46-5.017,4.482-10.3,6.04-15.782C170.043,137.48,171.266,128.621,170.008,120.256z"/>
	</g>
</g>
</svg>
