<?xml version="1.0" encoding="utf-8"?>
<!-- Generator: Adobe Illustrator 27.5.0, SVG Export Plug-In . SVG Version: 6.00 Build 0)  -->
<svg version="1.1" id="Layer_1" xmlns="http://www.w3.org/2000/svg" xmlns:xlink="http://www.w3.org/1999/xlink" x="0px" y="0px"
	 viewBox="0 0 189.574 139.862" style="enable-background:new 0 0 189.574 139.862;" xml:space="preserve">
<g>
	<g>
		<g>
			<path style="fill:#344A1C;" d="M102.142,97.31c-1.162-0.854-2.626-1.347-4.012-1.685c-3.476-0.848-7.141-0.77-10.685-0.521
				c-1.698,0.119-3.402,0.264-5.091,0.475c-1.864,0.233-3.902,0.556-5.547,1.513c-0.214,0.125-0.424,0.256-0.634,0.389
				c0.052-0.074,0.111-0.141,0.159-0.219c0.118-0.188-0.155-0.259-0.265-0.123c-0.341,0.421-0.749,0.779-1.193,1.094
				c-0.134,0.066-0.267,0.134-0.408,0.19c-0.094,0.037-0.164,0.117-0.208,0.205c-0.961,0.556-2.043,0.941-3.068,1.231
				c-1.843,0.521-3.74,0.812-5.622,1.155c-1.072,0.195-2.121,0.447-3.168,0.752c-1.363,0.397-2.746,0.837-4.176,0.885
				c-2.392,0.08-4.747-0.579-7.144-0.502c-1.477,0.047-3.443,0.36-4.03,1.952c-0.619,1.68,0.704,2.91,2.188,3.392
				c2.032,0.66,4.316,0.071,6.3-0.493c0.028-0.008,0.054-0.017,0.082-0.025c0.021,0.032,0.055,0.052,0.122,0.032
				c2.274-0.674,4.987-0.785,6.684,1.089c-0.345,0.098-0.682,0.218-1.005,0.375c-1.501,0.729-2.775,2.789-1.704,4.368
				c0.546,0.805,1.647,1.278,2.575,1.442c0.894,0.158,1.796,0.018,2.631-0.325c1.807-0.742,3.142-2.271,4.577-3.535
				c0.026-0.023,0.054-0.041,0.081-0.064c0.908-0.229,1.934-0.192,2.811-0.118c0.665,0.056,1.378,0.178,1.969,0.505
				c0.236,0.13,0.462,0.286,0.621,0.507c0.144,0.2,0.188,0.397,0.355,0.567c-0.312,0.42-0.562,0.876-0.696,1.371
				c-0.303,1.112,0.3,2.429,1.47,2.711c1.143,0.275,2.364-0.395,3.228-1.082c0.474-0.377,0.909-0.799,1.276-1.282
				c0.394-0.518,0.66-1.12,1.016-1.665c0.747-1.144,1.738-2,2.957-2.612c3.088-1.55,6.516-2.167,9.761-3.282
				c2.009-0.691,3.99-1.56,5.8-2.678c1.327-0.82,3.33-2.176,3.278-3.963C103.398,98.474,102.805,97.797,102.142,97.31z"/>
			<path style="fill:#BCB49B;" d="M58.712,105.998c1.522-0.498,3.048-0.978,4.628-1.254c3.121-0.547,6.277-0.92,9.417-1.336
				c0.895-0.118,1.825-0.309,2.764-0.471c-0.679,0.362-1.366,0.71-2.06,1.041c-2.561,1.221-5.172,2.439-7.857,3.364
				c-0.758,0.261-1.565,0.387-2.356,0.555c-0.004-0.006-0.001-0.015-0.005-0.021C62.101,106.383,60.423,105.895,58.712,105.998z"/>
			<path style="fill:#FFFFFF;" d="M75.264,110.483c-0.411-0.351-0.963-0.534-1.482-0.649c-1.158-0.256-2.394-0.225-3.559,0.01
				c1.943-1.417,4.324-2.163,6.513-3.113c1.412-0.613,2.823-1.23,4.266-1.768c1.181-0.44,2.382-0.769,3.588-1.108
				c-0.096,0.141-0.195,0.274-0.272,0.384c-0.719,1.018-1.575,1.686-2.59,2.406c-1.536,1.089-3.076,2.174-4.54,3.359
				c-0.469,0.38-0.966,0.806-1.404,1.28C75.741,110.98,75.518,110.7,75.264,110.483z"/>
			<path style="fill:#99AB36;" d="M99.98,102.532c-1.717,1.104-3.632,1.931-5.552,2.612c-3.019,1.071-6.172,1.693-9.129,2.959
				c-1.19,0.51-2.336,1.137-3.274,2.04c-0.463,0.445-0.865,0.955-1.221,1.488c-0.349,0.522-0.596,1.115-0.98,1.612
				c-0.641,0.829-1.711,1.75-2.794,1.861c-0.607,0.062-1.064-0.245-1.379-0.744c-0.403-0.638-0.345-1.307,0.028-1.954
				c0.688-1.194,1.947-2.056,3.052-2.832c1.602-1.125,3.308-2.132,4.812-3.39c0.326-0.272,1.128-1.099,1.626-1.93
				c0-0.011-0.006-0.021-0.005-0.031c0.01-0.098,0.012-0.197,0.008-0.296c-0.002-0.053-0.006-0.105-0.011-0.157
				c-0.002-0.025-0.006-0.05-0.008-0.075c0.001,0.012,0.001,0.013,0.002,0.022c0.006,0.039,0.009,0.117,0,0c0-0.001,0-0.003,0-0.004
				c-0.036-0.226-0.099-0.444-0.179-0.658c-0.009-0.02-0.019-0.04-0.028-0.06c-0.008-0.017-0.018-0.033-0.027-0.05
				c-0.008-0.003-0.017-0.006-0.026-0.009c0.012,0.04,0.025,0.078,0.026,0.126c0,0.025-0.012,0.052-0.015,0.077
				c-2.262,0.337-4.498,1.317-6.57,2.194c-1.179,0.499-2.347,1.025-3.532,1.51c-1.102,0.451-2.217,0.878-3.278,1.42
				c-1.879,0.959-3.235,2.451-4.867,3.741c-1.632,1.289-3.519,2.056-5.444,0.839c-0.884-0.559-1.204-1.541-0.763-2.502
				c0.482-1.051,1.425-1.5,2.492-1.768c1.133-0.285,2.237-0.502,3.339-0.893c2.749-0.973,5.46-2.021,8.07-3.329
				c0.99-0.496,2.009-1.011,2.926-1.651c0.937-0.085,1.867-0.07,2.768,0.13c-0.98-0.414-2.013-0.687-3.074-0.731
				c-0.8,0.097-1.593,0.242-2.354,0.37c-2.532,0.428-5.089,0.688-7.627,1.09c-1.343,0.213-2.706,0.349-4.039,0.615
				c-1.271,0.254-2.512,0.631-3.744,1.027c-2.464,0.793-4.97,1.75-7.58,1.897c-1.394,0.079-3.799-0.425-3.987-2.143
				c-0.228-2.088,2.54-2.172,3.963-2.143c2.38,0.049,4.774,0.684,7.154,0.416c2.326-0.262,4.537-1.195,6.84-1.614
				c2.074-0.377,4.163-0.702,6.175-1.351c0.982-0.317,1.961-0.714,2.817-1.278c0.733-0.21,1.369-0.581,2.026-0.965
				c0.847-0.495,1.703-0.826,2.654-1.071c1.77-0.456,3.587-0.633,5.402-0.804c3.387-0.318,6.823-0.548,10.216-0.184
				c1.643,0.176,3.289,0.508,4.823,1.133c0.932,0.379,2.14,0.93,2.622,1.886C103.093,100.493,101.02,101.863,99.98,102.532z"/>
			<path style="fill:#99AB36;" d="M49.411,103.979c1.746-1.119,4.176-0.027,6.052,0.031c2.2,0.068,4.436-0.475,6.522-1.125
				c1.196-0.373,2.372-0.806,3.543-1.255c-2.277,0.425-4.466,1.34-6.768,1.599c-2.38,0.268-4.774-0.367-7.154-0.416
				c-1.423-0.029-4.19,0.055-3.963,2.143c0.036,0.328,0.171,0.599,0.346,0.842C48.251,105.06,48.787,104.379,49.411,103.979z"/>
			<path style="fill:#99AB36;" d="M61.197,111.61c0.642-1.522,2.106-2.61,3.564-3.48c-0.6,0.152-1.204,0.289-1.817,0.443
				c-1.067,0.268-2.01,0.718-2.492,1.768c-0.397,0.866-0.172,1.746,0.523,2.321C60.993,112.311,61.05,111.958,61.197,111.61z"/>
			<path style="fill:#99AB36;" d="M102.334,98.982c-0.481-0.956-1.69-1.507-2.622-1.886c-1.535-0.625-3.18-0.957-4.823-1.133
				c-3.393-0.364-6.829-0.134-10.216,0.184c-1.815,0.17-3.632,0.348-5.402,0.804c-0.951,0.245-1.807,0.576-2.654,1.071
				c-0.656,0.384-1.293,0.755-2.026,0.965c-0.856,0.564-1.835,0.961-2.817,1.278c-0.149,0.048-0.301,0.083-0.45,0.128
				c0.105,0.349,0.026,0.724-0.399,1.085c-0.78,0.663-1.947,0.918-2.915,1.158c-1.515,0.375-3.062,0.613-4.587,0.948
				c-1.23,0.27-2.437,0.62-3.661,0.91c-1.665,0.394-3.347,0.726-5.042,0.962c-1.359,0.189-5.537,0.718-7.078-0.542
				c0.001,0.015-0.001,0.029,0.001,0.044c0.187,1.719,2.593,2.222,3.987,2.143c2.61-0.147,5.116-1.104,7.58-1.897
				c1.232-0.396,2.474-0.774,3.744-1.027c1.334-0.266,2.696-0.402,4.039-0.615c2.538-0.402,5.095-0.662,7.627-1.09
				c0.761-0.129,1.554-0.273,2.354-0.37c1.061,0.044,2.094,0.317,3.074,0.731c-0.901-0.2-1.83-0.215-2.768-0.13
				c-0.917,0.641-1.937,1.156-2.926,1.651c-0.976,0.489-1.97,0.933-2.972,1.359c0.188,0.179,0.229,0.502,0.033,0.716
				c-1.887,2.062-4.38,3.586-6.948,4.646c-1.229,0.507-2.555,0.923-3.902,1.134c0.16,0.243,0.374,0.462,0.65,0.637
				c1.925,1.217,3.812,0.45,5.444-0.839c1.632-1.29,2.988-2.782,4.867-3.741c1.062-0.542,2.177-0.969,3.278-1.42
				c1.185-0.485,2.353-1.011,3.532-1.51c2.071-0.877,4.307-1.857,6.57-2.194c0.003-0.025,0.015-0.052,0.015-0.077
				c-0.001-0.048-0.014-0.087-0.026-0.126c0.009,0.003,0.017,0.006,0.026,0.009c0.009,0.017,0.019,0.033,0.027,0.05
				c0.01,0.02,0.019,0.04,0.028,0.06c0.08,0.214,0.143,0.432,0.179,0.658c0,0.001,0,0.003,0,0.004
				c-0.001-0.009-0.001-0.01-0.002-0.022c0.002,0.025,0.006,0.05,0.008,0.075c0.005,0.052,0.009,0.104,0.011,0.157
				c0.004,0.099,0.002,0.198-0.008,0.296c-0.001,0.011,0.005,0.021,0.005,0.031c-0.497,0.831-1.3,1.658-1.626,1.93
				c-1.505,1.258-3.211,2.265-4.812,3.39c-1.105,0.776-2.364,1.638-3.052,2.832c-0.372,0.646-0.431,1.315-0.028,1.954
				c0.315,0.499,0.773,0.806,1.379,0.744c1.084-0.111,2.154-1.032,2.794-1.86c0.384-0.497,0.631-1.09,0.98-1.612
				c0.356-0.533,0.758-1.043,1.221-1.488c0.938-0.903,2.084-1.53,3.274-2.04c2.957-1.267,6.109-1.888,9.129-2.959
				c1.92-0.681,3.835-1.509,5.552-2.612C101.02,101.863,103.093,100.493,102.334,98.982z"/>
		</g>
		<g>
			<path style="fill:#344A1C;" d="M63.137,79.193c0.106-0.185,0.213-0.37,0.302-0.566c0.268-0.588,0.356-1.218,0.395-1.857
				c-0.067-0.32-0.15-0.634-0.262-0.924c-0.565-1.455-1.63-2.639-3.027-3.339c-2.638-1.322-6.239-1.193-8.866,0.181
				c-1.163,0.834-2.285,1.778-3.543,2.471c-0.245,0.344-0.463,0.703-0.668,1.062c-0.132,0.145-0.269,0.288-0.399,0.433
				c-0.088,0.097-0.044,0.185,0.037,0.211c-0.037,0.067-0.075,0.136-0.112,0.202c-1.29,2.321-2.32,4.735-3.326,7.137
				c-0.5,1.193-1.023,2.384-1.443,3.596c-0.429,1.239-0.757,2.496-1.098,3.75c-0.335,1.234-0.702,2.459-1.039,3.687
				c-0.813,1.537-2.808,2.328-4.742,2.86c-1.124,0.309-2.283,0.534-3.428,0.787c-1.649,0.364-3.294,0.739-4.941,1.109
				c-1.648,0.37-3.297,0.735-4.955,1.078c-0.753,0.156-1.507,0.307-2.263,0.452c-0.913,0.175-1.859,0.405-2.802,0.444
				c-2.467,0.102-5.158-0.988-7.545-0.091c-1.595,0.599-2.616,2.16-1.871,3.471c0.633,1.113,2.198,1.805,3.681,2.04
				c1.541,0.244,3.289,0.039,4.386-0.905c0.261-0.225,0.429-0.486,0.641-0.736c0.305-0.359,0.761-0.615,1.246-0.813
				c0.975-0.397,2.059-0.591,3.134-0.746c1.153-0.166,2.298-0.347,3.445-0.528c0.206-0.005,0.412-0.016,0.617-0.011
				c0.633,0.015,1.309,0.115,1.747,0.502c0.418,0.37,0.448,0.878,0.26,1.33c-0.111,0.266-0.286,0.51-0.509,0.729
				c-0.225,0.221-0.51,0.36-0.765,0.552c-0.028,0.021-0.044,0.047-0.05,0.073c-0.53,0.277-1.063,0.547-1.585,0.837
				c-0.895,0.497-1.808,0.986-2.795,1.37c-0.96,0.373-1.941,0.568-2.99,0.722c-1.836,0.268-3.773,0.967-4.214,2.528
				c-0.356,1.261,0.692,2.643,2.144,3.201c1.428,0.55,3.233,0.364,4.665-0.085c1.371-0.43,2.292-1.278,2.583-2.404
				c0.188-0.728,0.205-1.327,0.901-1.895c0.799-0.651,1.747-1.203,2.679-1.733c1.087-0.618,2.192-1.222,3.311-1.81
				c0.531-0.187,1.089-0.335,1.624-0.483c1.188-0.33,2.54-0.762,3.821-0.528c0.965,0.176,1.549,0.838,1.81,1.546
				c0.118,0.32,0.166,0.653,0.133,0.986c-0.405,0.498-0.827,0.986-1.284,1.451c-0.727,0.742-1.548,1.318-2.518,1.864
				c-0.838,0.471-1.687,0.947-2.337,1.58c-1.11,1.081-1.493,2.624-0.171,3.708c1.115,0.914,2.993,1.238,4.499,0.777
				c1.426-0.437,2.421-1.467,3.103-2.49c0.736-1.104,1.166-2.279,1.52-3.485c0.499-1.702,1.796-3.156,3.192-4.491
				c1.556-1.487,3.317-2.89,4.456-4.607c0.607-0.915,1.108-1.9,1.423-2.9c0.154-0.49,0.234-0.997,0.321-1.502
				c0.276-0.417,0.568-0.828,0.864-1.237c0.63-0.871,1.232-1.754,1.84-2.634c1.296-1.881,2.594-3.76,3.879-5.645
				c2.35-3.445,4.547-6.954,6.92-10.389C63.162,79.121,63.147,79.156,63.137,79.193z"/>
			<path style="fill:#BCB49B;" d="M27.006,105.787c0.29-0.479,0.412-1.057,0.119-1.553c-0.291-0.493-0.845-0.726-1.48-0.823
				c1.429-0.234,2.857-0.477,4.284-0.734c0.665-0.12,1.338-0.235,2.019-0.285c0.303-0.022,0.736-0.077,1.025,0.018
				c0.343,0.113,0.088,0.292-0.109,0.466c-0.027,0.023-0.04,0.045-0.056,0.068c-0.121,0.075-0.235,0.153-0.364,0.223
				c-1.011,0.548-2.039,1.081-3.067,1.61c-0.864,0.445-1.731,0.879-2.595,1.318C26.863,105.995,26.941,105.894,27.006,105.787z"/>
			<path style="fill:#BCB49B;" d="M37.241,106.658c-1.32-1.105-3.392-0.653-5.066-0.155c0.433-0.217,0.859-0.443,1.294-0.654
				c1.141-0.555,2.305-1.08,3.469-1.606c0.646-0.292,1.287-0.55,1.958-0.749c0.324-0.054,0.643-0.137,0.968-0.214
				c0.039,0.03,0.096,0.051,0.196,0.049c0.775-0.019-0.271,2.126-0.423,2.434c-0.415,0.839-0.918,1.658-1.49,2.448
				C38.032,107.643,37.743,107.078,37.241,106.658z"/>
			<path style="fill:#99AB36;" d="M59.724,83.346c-2.478,3.775-5.053,7.51-7.629,11.244c-0.686,0.995-1.366,1.993-2.077,2.978
				c0.035-0.099,0.057-0.202,0.099-0.3c0.035-0.081-0.118-0.067-0.154-0.017c-0.355,0.479-0.58,0.974-0.763,1.482
				c-0.07,0.104-0.132,0.211-0.2,0.315c-0.145,0.65-0.171,1.328-0.468,1.949c-0.108,0.226-0.235,0.442-0.378,0.652
				c-0.123,0.268-0.255,0.534-0.402,0.795c-0.936,1.661-2.387,3.019-3.878,4.394c-1.331,1.227-2.674,2.479-3.571,3.936
				c-0.746,1.211-0.942,2.542-1.524,3.798c-0.515,1.111-1.244,2.339-2.5,3.062c-1.379,0.795-3.456,0.564-4.563-0.46
				c-1.512-1.399,0.005-3.022,1.522-3.923c0.807-0.479,1.667-0.907,2.403-1.456c0.601-0.449,1.122-0.978,1.604-1.515
				c0.071-0.001,0.144-0.012,0.203-0.04c0.448-0.209,0.654-0.639,0.73-1.068c0.98-1.216,1.826-2.507,2.434-3.859
				c0.153-0.339,0.608-1.331,0.498-1.963c0.047,0.027,0.095,0.054,0.137,0.085c0.16,0.116,0.267,0.276,0.437,0.377
				c-0.001-0.039-0.004-0.078-0.008-0.117c-0.001-0.007-0.001-0.01-0.003-0.021c-0.005-0.021-0.01-0.041-0.016-0.061
				c-0.013-0.046-0.029-0.092-0.047-0.137c-0.01-0.025-0.021-0.05-0.033-0.075c-0.001-0.002-0.006-0.013-0.011-0.023
				c-0.007-0.013-0.025-0.045-0.028-0.051c-0.012-0.019-0.024-0.039-0.037-0.058c-0.029-0.043-0.059-0.086-0.092-0.127
				c-0.033-0.042-0.067-0.084-0.103-0.124c-0.02-0.023-0.042-0.045-0.062-0.067c-0.004-0.004-0.001-0.002-0.003-0.004
				c-0.005-0.004-0.005-0.004-0.014-0.012c-0.008-0.007-0.017-0.014-0.025-0.021c-0.091-0.027-0.182-0.051-0.276-0.063
				c-0.01-0.057-0.06-0.103-0.183-0.109c-2.019-0.097-3.973,1.07-5.629,1.829c-2.061,0.944-4.045,1.972-6.019,3.02
				c-1.806,0.958-3.664,1.903-5.246,3.085c-0.563,0.421-1.006,0.887-1.179,1.488c-0.183,0.635-0.172,1.263-0.627,1.837
				c-0.831,1.048-2.816,1.412-4.299,1.322c-1.786-0.107-3.483-1.377-3.307-2.836c0.105-0.865,0.947-1.551,1.952-1.874
				c0.984-0.316,2.076-0.344,3.092-0.575c1.905-0.434,3.56-1.346,5.147-2.241c2.026-1.142,4.168-2.137,6.235-3.234
				c1.199-0.637,2.964-1.377,3.544-2.496c-0.013-0.031-0.026-0.062-0.04-0.093c-0.007-0.016-0.015-0.031-0.023-0.047
				c-0.039-0.066-0.079-0.131-0.125-0.193c-0.027-0.037-0.059-0.07-0.089-0.105c-0.097,0.184-0.213,0.358-0.352,0.519
				c-0.039-0.044-0.092-0.085-0.162-0.123c-0.48-0.259-1.305-0.145-1.838-0.094c-2.251,0.216-4.471,0.744-6.682,1.119
				c-2.253,0.383-4.632,0.533-6.821,1.11c-0.926,0.244-1.843,0.613-2.466,1.214c-0.545,0.525-0.8,1.059-1.651,1.347
				c-1.53,0.517-3.491,0.122-4.769-0.639c-1.435-0.855-1.832-2.39-0.395-3.418c0.936-0.669,2.34-0.617,3.52-0.525
				c1.471,0.114,2.924,0.456,4.413,0.364c1.619-0.1,3.262-0.532,4.826-0.853c1.658-0.34,3.308-0.704,4.956-1.073
				c1.871-0.419,3.74-0.847,5.615-1.257c1.207-0.265,2.421-0.517,3.592-0.868c1.281-0.383,2.993-1.014,3.858-1.979
				c-0.056,0.222-0.104,0.445-0.156,0.668c0.289-0.452,0.594-0.897,0.92-1.333c0.238-0.924,0.551-1.838,0.821-2.756
				c0.696-2.364,1.26-4.732,2.211-7.047c0.929-2.263,1.882-4.519,2.947-6.747c0.513-1.074,1.06-2.139,1.696-3.173
				c1.125-0.936,2.194-1.954,3.495-2.637c1.662-0.872,3.561-1.105,5.416-0.938c1.755,0.158,3.499,0.833,4.643,2.22
				c0.681,0.826,1.372,2.124,1.475,3.353C62.036,79.825,60.882,81.583,59.724,83.346z"/>
			<path style="fill:#99AB36;" d="M33.32,114.72c0.751-0.992,1.819-1.795,2.723-2.645c1.013-0.953,2.015-1.943,2.843-3.065
				c0.632-0.855,1.18-1.785,1.677-2.723c0.386-0.729,0.913-1.655,1.043-2.541c-0.125-0.098-0.227-0.217-0.359-0.313
				c-0.042-0.031-0.09-0.057-0.137-0.085c0.11,0.632-0.346,1.624-0.498,1.963c-0.608,1.353-1.454,2.643-2.434,3.859
				c-0.076,0.43-0.282,0.859-0.73,1.068c-0.059,0.027-0.132,0.038-0.203,0.04c-0.482,0.537-1.003,1.066-1.604,1.515
				c-0.735,0.549-1.595,0.977-2.403,1.456c-1.517,0.9-3.034,2.524-1.522,3.923c0.238,0.22,0.526,0.395,0.837,0.54
				C32.377,116.711,32.661,115.591,33.32,114.72z"/>
			<path style="fill:#99AB36;" d="M16.277,111.795c0.654-0.455,1.463-0.58,2.217-0.777c1.131-0.296,2.218-0.741,3.27-1.245
				c2.11-1.01,4.158-2.15,6.246-3.203c1.078-0.544,2.163-1.076,3.218-1.662c0.916-0.509,1.892-1.041,2.647-1.779
				c0.098-0.096,0.265-0.264,0.318-0.389c-0.004-0.002-0.004-0.003-0.008-0.004c-0.077-0.024-0.153-0.053-0.231-0.079
				c-0.783,0.799-2.118,1.388-3.09,1.904c-2.066,1.097-4.208,2.092-6.235,3.234c-1.587,0.895-3.243,1.807-5.147,2.241
				c-1.016,0.231-2.107,0.258-3.092,0.575c-1.005,0.323-1.847,1.008-1.952,1.874c-0.088,0.725,0.289,1.403,0.908,1.915
				C15.168,113.428,15.446,112.373,16.277,111.795z"/>
			<path style="fill:#99AB36;" d="M9.429,103.391c1.892-1.269,4.059-0.304,6.141-0.313c1.234-0.005,2.496-0.342,3.706-0.563
				c1.227-0.224,2.453-0.456,3.678-0.697c2.404-0.473,4.802-0.979,7.193-1.516c2.26-0.508,4.532-1.006,6.776-1.578
				c1.553-0.396,2.965-1.065,3.807-2.493c0.563-0.955,0.884-2.066,1.199-3.121c0.34-1.136,0.625-2.286,0.924-3.434
				c0.582-2.233,1.312-4.379,2.245-6.491c1.122-2.539,2.411-5.003,3.598-7.512c-0.161,0.137-0.321,0.275-0.483,0.41
				c-0.636,1.034-1.183,2.099-1.696,3.173c-1.064,2.228-2.017,4.484-2.947,6.747c-0.951,2.315-1.515,4.682-2.211,7.046
				c-0.27,0.918-0.583,1.832-0.821,2.756c-0.326,0.437-0.632,0.881-0.92,1.333c0.051-0.223,0.1-0.446,0.156-0.668
				c-0.865,0.965-2.577,1.596-3.858,1.979c-1.172,0.351-2.385,0.604-3.592,0.868c-1.875,0.411-3.743,0.838-5.614,1.257
				c-1.648,0.369-3.298,0.733-4.956,1.073c-1.565,0.321-3.208,0.753-4.826,0.853c-1.489,0.092-2.942-0.25-4.413-0.364
				c-1.18-0.092-2.584-0.144-3.52,0.525c-0.826,0.591-1.031,1.348-0.796,2.048C8.477,104.204,8.903,103.744,9.429,103.391z"/>
			<path style="fill:#99AB36;" d="M61.769,74.729c-1.144-1.387-2.888-2.062-4.643-2.22c-1.855-0.167-3.754,0.066-5.416,0.938
				c-1.302,0.682-2.371,1.701-3.495,2.637c-0.636,1.034-1.183,2.099-1.696,3.173c-0.046,0.096-0.086,0.194-0.132,0.29
				c0.642,0.824,1.398,1.562,2.239,2.216c1.283,0.998,3.178,1.759,3.952,3.279c0.697,1.37,0.068,3.053-0.39,4.395
				c-0.674,1.977-1.634,3.844-2.689,5.642c-1.053,1.795-2.217,3.522-3.272,5.315c-1.121,1.906-2.341,3.793-3.66,5.569
				c-1.15,1.549-2.563,2.886-3.684,4.458c-0.53,0.743-1.036,1.559-1.258,2.453c-0.223,0.897-0.117,1.842-0.465,2.715
				c-0.429,1.075-1.386,1.968-2.51,2.505c0.581-0.037,1.149-0.183,1.63-0.46c1.256-0.724,1.985-1.951,2.5-3.062
				c0.581-1.255,0.778-2.587,1.524-3.798c0.897-1.456,2.24-2.709,3.571-3.936c1.491-1.374,2.942-2.732,3.878-4.394
				c0.147-0.261,0.279-0.527,0.402-0.795c0.143-0.209,0.27-0.426,0.378-0.652c0.297-0.621,0.323-1.298,0.468-1.949
				c0.068-0.104,0.13-0.211,0.2-0.315c0.183-0.509,0.407-1.003,0.763-1.482c0.037-0.05,0.19-0.063,0.154,0.017
				c-0.042,0.098-0.065,0.2-0.099,0.3c0.711-0.985,1.391-1.983,2.077-2.978c2.576-3.735,5.152-7.47,7.629-11.244
				c1.157-1.763,2.312-3.521,3.519-5.264C63.141,76.854,62.45,75.555,61.769,74.729z"/>
			<path style="fill:#99AB36;" d="M36.046,104.124c-3.476,1.074-6.664,2.845-9.966,4.335c-1.527,0.689-3.06,1.43-4.332,2.54
				c-1.056,0.921-1.739,2.116-3.107,2.61c-1.282,0.463-2.89,0.376-4.086-0.298c0.394,1.082,1.755,1.923,3.19,2.009
				c1.483,0.089,3.468-0.274,4.299-1.322c0.455-0.574,0.444-1.202,0.627-1.837c0.174-0.601,0.616-1.067,1.179-1.488
				c1.582-1.182,3.44-2.127,5.246-3.085c1.975-1.048,3.958-2.076,6.019-3.02C35.416,104.43,35.728,104.279,36.046,104.124z"/>
			<path style="fill:#99AB36;" d="M15.809,105.371c0.623-0.601,1.54-0.97,2.466-1.214c2.188-0.577,4.568-0.727,6.821-1.11
				c2.211-0.376,4.431-0.903,6.682-1.119c0.417-0.04,1.006-0.112,1.475-0.021c0.039-0.039,0.086-0.073,0.122-0.114
				c-2.071-0.388-4.321,0.277-6.381,0.399c-2.534,0.151-5.081,0.137-7.603,0.455c-1.251,0.158-2.488,0.415-3.695,0.778
				c-1.058,0.318-2.052,0.731-2.854,1.502c-0.61,0.587-1.285,0.998-2.16,0.971c-0.773-0.023-1.496-0.358-2.077-0.856
				c-0.161-0.138-0.308-0.291-0.443-0.453c0.145,0.563,0.57,1.099,1.228,1.49c1.278,0.761,3.24,1.156,4.769,0.639
				C15.009,106.43,15.265,105.896,15.809,105.371z"/>
		</g>
		<g>
			<path style="fill:#344A1C;" d="M179.507,88.561c-1.647,0.036-3.281,0.206-4.911,0.42c1.274-0.969,2.521-1.975,3.675-3.084
				c2.622-2.521,5.228-5.696,4.325-9.568c-0.24-1.028-0.679-2.016-1.082-2.989c-0.401-0.966-0.828-1.922-1.294-2.859
				c-0.997-2.003-2.198-3.853-3.619-5.58c-2.926-3.556-6.155-6.851-9.529-9.982c-2.965-2.751-6.052-5.778-9.705-7.636
				c-1.005-2.201-2.186-4.33-3.687-6.23c-1.87-2.368-4.258-4.264-6.797-5.869c-2.717-1.718-5.584-3.284-8.561-4.501
				c-3.05-1.248-6.223-2.166-9.413-2.98c-3.388-0.864-6.751-1.716-10.073-2.818c-3.318-1.1-6.604-2.293-9.938-3.346
				c-3.489-1.103-7.009-2.103-10.519-3.135c-1.849-0.543-3.687-1.127-5.553-1.612c-1.771-0.461-3.556-0.861-5.337-1.278
				c-2.545-0.596-5.119-1.205-7.625-1.992c-0.279-1.006-0.63-1.984-1.047-2.899c-1.488-3.262-4.257-5.731-7.565-7.072
				c-3.425-1.388-7.286-1.784-10.927-1.171c-3.715,0.625-7.727,1.989-10.509,4.628c-0.15,0.142-0.294,0.293-0.441,0.44
				c-0.877,0.007-1.746,0.076-2.612,0.17c-0.579-1.482-1.831-2.811-3.096-3.612c-1.65-1.046-3.623-1.449-5.558-1.439
				c-2.262,0.011-4.491,0.521-6.418,1.735c-1.807,1.138-3.038,2.761-4.069,4.596c-0.468,0.833-1.063,1.898-1.388,2.983
				c-0.574,0.19-1.147,0.385-1.711,0.607c-2.42,0.951-4.757,2.18-7.007,3.48c-4.316,2.494-8.344,5.611-11.318,9.651
				c-1.361,1.848-2.704,3.967-3.174,6.244c-0.412,1.997-0.099,4.03,0.736,5.877c1.786,3.949,5.445,6.925,9.072,9.123
				c2.072,1.256,4.269,2.255,6.54,3.094c2.793,1.032,5.657,1.871,8.399,3.04c2.18,0.93,4.272,2.097,5.963,3.782
				c1.572,1.567,2.751,3.46,3.903,5.343c2.147,3.509,4.157,7.104,6.465,10.513c2.229,3.291,4.758,6.452,7.912,8.906
				c2.992,2.328,6.5,3.843,10.249,4.353c1.07,1.866,2.255,3.673,3.505,5.411c1.874,2.605,3.983,5.053,6.378,7.194
				c4.806,4.295,10.782,7.451,16.842,9.57c3.844,1.344,7.827,2.256,11.86,2.805c0,0,0,0,0,0.001c1.338,2.919,4.295,4.573,7.38,5.478
				c-0.751-0.077-1.497-0.179-2.255-0.254c-2.236-0.222-4.838,0.01-6.089,2.158c-0.518,0.89-0.687,1.981-0.072,2.87
				c0.608,0.879,1.717,1.28,2.743,1.368c2.991,0.256,5.972-1.305,8.644-2.425c0.732-0.306,1.478-0.589,2.228-0.864
				c0.085,0.009,0.168,0.009,0.254,0.008c0.161-0.001,0.321-0.005,0.482-0.01c0.337-0.01,0.673-0.025,1.01-0.027
				c0.643-0.002,1.295,0.021,1.903,0.252c0.374,0.142,0.784,0.373,1.049,0.678c0.102,0.117,0.207,0.265,0.188,0.43
				c-0.025,0.207-0.231,0.312-0.315,0.489c-0.001,0.003,0.002,0.004,0.001,0.006c-1.149,0.39-2.315,0.725-3.494,0.926
				c-1.921,0.328-3.899,0.412-5.764,1.015c-1.619,0.524-3.351,1.637-3.816,3.383c-0.429,1.606,0.615,3.065,1.987,3.805
				c1.654,0.892,3.706,0.871,5.498,0.46c0.951-0.218,1.892-0.579,2.69-1.149c0.828-0.592,1.464-1.39,2.068-2.199
				c0.7-0.936,1.378-1.835,2.288-2.58c0.128-0.105,0.267-0.194,0.397-0.296c1.453-0.046,2.878-0.326,4.333-0.407
				c1.363-0.076,2.728,0.057,4.019,0.508c0.975,0.34,1.955,0.799,2.748,1.473c0.348,0.296,0.683,0.665,0.835,1.103
				c0.187,0.54,0,0.985-0.24,1.469c-0.011,0.022-0.002,0.035-0.008,0.055c-0.316,0.186-0.625,0.383-0.952,0.55
				c-1.886,0.966-3.695,2.36-3.561,4.705c0.112,1.958,1.643,2.999,3.507,3.004c2.085,0.005,4.174-0.963,5.489-2.581
				c0.663-0.816,1.11-1.742,1.519-2.703c0.547-1.285,1.226-2.503,2.05-3.631c2.014-2.757,4.596-5.152,6.972-7.59
				c0.864-0.887,1.755-1.75,2.7-2.552c-0.029,0.041-0.053,0.085-0.082,0.126c1.219-1.186,2.741-2.031,4.349-2.727
				c0.051-0.029,0.098-0.063,0.15-0.092c2.519-1.386,5.258-2.389,7.862-3.602c5.664-2.637,11.429-5.464,16.436-9.237
				c2.068-1.558,3.885-3.351,5.657-5.229c1.292-1.369,3.235-3.325,3.09-5.38C186.501,88.511,181.732,88.511,179.507,88.561z"/>
			<path style="fill:#738D15;" d="M113.113,118.591c-2.618,0.89-5.059,2.299-7.775,2.898c-1.187,0.262-2.538,0.446-3.689-0.056
				c-0.913-0.399-1.579-1.254-1.33-2.284c0.579-2.404,3.429-2.455,5.389-2.279c1.224,0.109,2.425,0.319,3.659,0.315
				c0.809-0.003,1.618-0.052,2.427-0.09c0.092,0.013,0.186,0.027,0.277,0.039c1.918,0.238,3.855,0.296,5.795,0.245
				c-0.231,0.013-0.461,0.033-0.682,0.07C115.814,117.684,114.427,118.144,113.113,118.591z"/>
			<path style="fill:#BCB49B;" d="M129.123,124.187c-2.905-1.192-5.862-0.649-8.831-0.122c0.64-0.465,1.298-0.906,1.984-1.3
				c2.319-1.333,4.829-2.328,7.278-3.39c1.271-0.551,2.561-1.062,3.875-1.499c0.835-0.278,1.683-0.504,2.533-0.727
				c-0.234,0.132-0.468,0.263-0.7,0.39c-0.104,0.056-0.089,0.224,0.04,0.158c0.658-0.332,1.334-0.624,2.012-0.91
				c0.159-0.044,0.32-0.085,0.479-0.131c0.066-0.019,0.138-0.081,0.194-0.154c1.019-0.426,2.09-0.815,3.195-0.926
				c0.713-0.071,2.14-0.021,2.159,0.98c0.016,0.817-0.798,1.646-1.302,2.207c-2.944,3.277-5.951,6.912-9.696,9.352
				C133.155,126.332,130.57,124.781,129.123,124.187z"/>
			<path style="fill:#99AB36;" d="M185.316,90.923c-0.808-1.03-2.414-1.275-3.627-1.401c-1.745-0.181-3.515-0.098-5.258,0.054
				c-0.477,0.041-0.952,0.093-1.428,0.149c-1.625,0.091-3.238,0.288-4.821,0.654c0.001-0.005,0.001-0.01,0.001-0.015
				c-1.669,0.22-3.339,0.424-5.006,0.659c-6.566,0.926-13.102,2.058-19.62,3.271c-4.671,0.87-9.332,1.798-13.996,2.707
				c-2.626,0.512-5.241,1.093-7.821,1.805c-2.872,0.792-5.883,1.682-8.446,3.241c-0.86,0.523-1.805,1.188-2.289,2.101
				c-0.462,0.871-0.204,1.782,0.341,2.547c0.103,0.144-0.178,0.332-0.292,0.205c-0.321-0.36-0.599-0.771-0.733-1.239
				c-0.631-2.215,1.966-3.79,3.575-4.647c2.837-1.51,5.997-2.428,9.094-3.233c2.425-0.631,4.875-1.154,7.336-1.628
				c5.795-1.116,11.578-2.287,17.386-3.334c6.685-1.205,13.393-2.287,20.127-3.174c0.243-0.032,0.485-0.069,0.727-0.102
				c0.15-0.226,0.305-0.447,0.453-0.675c0.344-0.53,0.666-1.076,0.94-1.645c0.28-0.582,0.534-1.186,0.719-1.805
				c0.145-0.488,0.317-1.021,0.392-1.542c0.065-0.096,0.13-0.192,0.192-0.289c0.012,0.289,0.042,0.576,0.035,0.867
				c-0.009,0.328-0.047,0.645-0.112,0.966c-0.126,0.625-0.314,1.225-0.58,1.804c-0.281,0.611-0.608,1.199-0.965,1.769
				c-0.094,0.149-0.196,0.293-0.293,0.441c0.627-0.089,1.255-0.175,1.882-0.264c0.097-0.07,0.198-0.135,0.293-0.206
				c1.846-1.364,3.628-2.827,5.202-4.504c1.271-1.354,2.542-2.887,3.03-4.717c0.505-1.894-0.128-3.688-0.814-5.443
				c-0.77-1.968-1.642-3.902-2.728-5.718c-1.112-1.859-2.502-3.514-3.922-5.143c-2.913-3.345-6.073-6.47-9.349-9.458
				c-1.392-1.27-2.783-2.547-4.233-3.751c-1.005-0.835-2.026-1.673-3.105-2.422c0.1,0.228,0.21,0.452,0.307,0.681
				c0.929,2.194,1.735,4.475,2.34,6.791c-1.919-3.907-3.575-7.943-5.672-11.762c-0.075-0.137-0.184-0.209-0.3-0.234
				c-0.782-1.197-1.666-2.334-2.694-3.385c-2.212-2.26-4.894-3.996-7.632-5.545c-2.887-1.633-5.832-3.045-8.975-4.116
				c-3.123-1.064-6.324-1.852-9.525-2.637c-3.363-0.825-6.648-1.924-9.92-3.05c-3.381-1.164-6.765-2.303-10.189-3.333
				c-3.422-1.029-6.863-1.997-10.283-3.034c-4.961-1.503-10.243-2.223-15.062-4.158c0.28,1.133,0.453,2.298,0.489,3.457
				c-0.371-1.749-0.861-3.458-1.622-5.051c-0.317-0.839-0.673-1.656-1.115-2.403c-1.744-2.952-4.807-4.852-7.988-5.948
				c-3.312-1.141-6.886-1.354-10.315-0.665c-2.8,0.562-5.679,1.564-8.037,3.249c-0.011,0.006-0.022,0.005-0.033,0.012
				c-1.696,1.055-3.108,2.579-4.506,4c0.047-0.142,0.092-0.284,0.139-0.426c0.634-0.896,1.335-1.752,2.102-2.541
				c-0.515,0.049-1.737,0.146-1.845,0.179c-0.362,0.11-1.574,0.16-1.81,0.124c-0.511-0.076-1.03-0.144-1.545-0.18
				c-1.101-0.076-2.212,0.063-3.314,0.08c-2.085,0.031-3.988,0.415-5.963,1.073c-2,0.667-3.876,1.549-5.744,2.518
				c-0.246,0.127-0.491,0.258-0.737,0.388c-1.129,0.308-2.301,0.573-3.287,1.203c-3.617,1.384-7.069,3.269-10.237,5.448
				c-4.053,2.787-7.626,6.318-9.886,10.729c-1.003,1.958-1.364,4.101-0.835,6.254c0.497,2.022,1.642,3.822,2.995,5.38
				c2.818,3.243,6.642,5.714,10.565,7.409c4.931,2.129,10.535,3.1,14.982,6.245c3.41,2.412,5.419,6.187,7.51,9.696
				c2.055,3.449,4.087,6.927,6.493,10.147c2.293,3.069,4.958,5.92,8.241,7.943c1.666,1.027,3.454,1.776,5.309,2.286
				c1.091,0.567,2.367,0.843,3.55,1.069c0.74,0.141,1.486,0.259,2.234,0.356c-0.879,0.025-1.759,0.02-2.635-0.059
				c1.296,1.891,2.559,3.807,3.958,5.625c2.189,2.845,4.633,5.483,7.486,7.676c7.57,5.821,16.555,9.185,25.887,10.579
				c-0.537-1.757-0.501-3.67-0.221-5.47c0.369-2.372,1.132-4.673,2.051-6.885c1.834-4.41,4.239-8.604,7.386-12.211
				c6.806-7.8,16.531-12.453,26.59-14.366c0.495-0.094,0.994-0.173,1.492-0.256c0.058-0.097,0.121-0.188,0.167-0.251
				c0.165-0.226,0.345-0.443,0.538-0.646c0.4-0.422,0.858-0.792,1.336-1.121c0.929-0.642,1.956-1.07,3.048-1.343
				c0.129-0.032,0.1,0.129,0.014,0.167c-0.956,0.423-1.873,0.987-2.722,1.596c-0.429,0.307-0.831,0.648-1.194,1.03
				c-0.128,0.135-0.244,0.28-0.357,0.427c5.416-0.828,10.962-0.959,16.38-0.125c3.685,0.567,8.143,1.518,11.209,3.983
				c0.272,0.358,0.513,0.736,0.746,1.119c-0.215-0.2-0.437-0.395-0.676-0.578c-2.005-1.538-4.503-2.371-6.923-2.996
				c-3.094-0.798-6.276-1.217-9.467-1.338c-5.827-0.22-11.69,0.48-17.326,1.96c-9.595,2.52-18.535,7.764-24.379,15.917
				c-2.609,3.641-4.715,7.823-6.076,12.093c-0.691,2.169-1.198,4.467-1.063,6.757c0.056,0.96,0.264,1.86,0.611,2.695
				c0.006,0.001,0.012,0.001,0.017,0.002c0.099,0.351,0.22,0.695,0.401,1.019c0.317,0.57,0.764,1.038,1.265,1.444
				c0.114,0.113,0.213,0.234,0.336,0.342c3.454,3.028,8.385,3.656,12.807,3.684c5.021,0.032,10.138-0.598,15.044-1.626
				c3.216-0.674,6.388-1.546,9.525-2.523c3.098-0.965,6.205-1.97,9.197-3.231c2.943-1.241,5.805-2.665,8.733-3.942
				c2.536-1.106,5.164-2.235,7.162-4.208c0.377-0.373,1.026-0.056,0.592,0.403c-0.95,1.007-2.063,1.804-3.262,2.489
				c-2.626,1.499-5.497,2.577-8.236,3.849c-3.05,1.416-6.104,2.756-9.287,3.848c-6.382,2.188-12.896,4.14-19.599,5.035
				c-1.864,0.249-3.752,0.47-5.646,0.614c-0.014,0.022-0.025,0.045-0.052,0.061c-1.216,0.748-2.766,0.48-4.101,0.87
				c-0.642,0.188-1.279,0.407-1.917,0.623c0.174-0.017,0.348-0.034,0.522-0.048c0.782-0.064,1.613-0.052,2.353,0.243
				c0.479,0.191,1.032,0.493,1.282,0.968c0.119,0.225,0.149,0.493,0.021,0.723c-0.017,0.03-0.043,0.061-0.065,0.092
				c0.829-0.298,1.652-0.61,2.46-0.921c1.196-0.461,2.375-0.955,3.554-1.457c1.16-0.494,2.359-0.929,3.486-1.493
				c0.111-0.056,0.123,0.087,0.035,0.135c-1.206,0.658-2.354,1.383-3.602,1.966c-1.233,0.577-2.49,1.107-3.759,1.599
				c-2.163,0.838-4.408,1.737-6.708,2.11c-1.834,0.298-3.742,0.373-5.514,0.976c-1.567,0.533-3.51,1.944-2.973,3.847
				c0.498,1.765,2.551,2.549,4.209,2.615c1.996,0.08,4.153-0.387,5.578-1.872c0.703-0.733,1.256-1.592,1.883-2.387
				c0.642-0.814,1.389-1.49,2.213-2.116c1.7-1.29,3.606-2.28,5.542-3.164c2.032-0.927,4.086-1.842,6.167-2.652
				c2.043-0.795,4.238-1.612,6.442-1.778c1.219-0.628,2.487-1.148,3.859-1.254c0.814-0.063,1.954,0.061,2.381,0.876
				c0.394,0.752-0.141,1.672-0.573,2.281c-0.476,0.672-1.053,1.257-1.608,1.863c-0.873,0.953-1.73,1.92-2.615,2.862
				c-1.881,2.003-3.877,3.937-6.147,5.499c-1.04,0.716-2.173,1.231-3.24,1.893c-0.977,0.605-1.841,1.449-2.042,2.627
				c-0.181,1.06,0.092,2.259,1.023,2.887c0.843,0.568,1.963,0.598,2.934,0.431c2.417-0.414,4.05-2.023,4.994-4.218
				c0.522-1.212,1.081-2.389,1.812-3.491c0.782-1.178,1.713-2.24,2.663-3.283c1.992-2.189,4.061-4.333,6.18-6.399
				c1.369-1.334,2.868-2.6,4.566-3.49c1.002-0.693,2.085-1.276,3.187-1.786c2.709-1.254,5.462-2.405,8.153-3.701
				c5.483-2.64,11.082-5.452,15.776-9.378c1.755-1.468,3.414-3.175,4.896-4.92C184.904,94.344,186.477,92.403,185.316,90.923z"/>
			<path style="fill:#99AB36;" d="M171.347,89.434c0.627-0.089,1.255-0.175,1.882-0.264c0.097-0.07,0.198-0.135,0.293-0.206
				c0.908-0.671,1.801-1.367,2.661-2.1c-1.096-0.131-2.193-0.257-3.288-0.392c-0.086,0.254-0.178,0.505-0.291,0.751
				c-0.281,0.611-0.608,1.199-0.965,1.769C171.546,89.143,171.444,89.286,171.347,89.434z"/>
			<path style="fill:#FFFBD0;" d="M101.925,71.872c-8.961-3.92-17.453-9.213-24.991-15.446c-3.295-2.725-6.245-5.845-9.62-8.477
				c-1.747-1.362-3.633-2.633-5.702-3.452c-1.254-0.496-2.475-0.717-3.732-0.801c-2.836,0.714-5.73,1.194-8.653,1.442
				c-4.898,0.414-9.842,0.187-14.692-0.599c-2.445-0.396-4.866-0.939-7.244-1.63c-2.488-0.722-4.9-1.673-7.369-2.456
				c-2.487-0.788-5.034-1.412-7.646-1.574c-1.953-0.121-3.79-0.444-5.509-1.436C5.54,36.735,4.53,35.789,3.75,34.688
				c0.038,0.279,0.087,0.558,0.156,0.838c0.497,2.022,1.642,3.822,2.995,5.38c2.818,3.243,6.642,5.714,10.565,7.409
				c4.931,2.129,10.535,3.1,14.982,6.245c3.41,2.412,5.419,6.187,7.51,9.696c2.055,3.449,4.087,6.927,6.493,10.147
				c2.293,3.069,4.958,5.92,8.241,7.943c1.666,1.027,3.454,1.776,5.309,2.286c1.091,0.566,2.367,0.843,3.55,1.068
				c0.74,0.141,1.486,0.259,2.234,0.356c-0.879,0.025-1.759,0.02-2.635-0.059c1.296,1.891,2.559,3.807,3.958,5.625
				c2.189,2.845,4.633,5.483,7.486,7.676c7.57,5.821,16.555,9.185,25.887,10.579c-0.537-1.757-0.501-3.67-0.221-5.471
				c0.369-2.372,1.132-4.673,2.051-6.885c1.834-4.41,4.239-8.604,7.386-12.211c2.64-3.025,5.722-5.572,9.09-7.674
				C113.031,76.103,107.362,74.25,101.925,71.872z"/>
			<path style="fill:#FFFBD0;" d="M48.697,74.739c-3.646-4.458-6.656-9.324-9.658-14.224c-0.713-1.164-1.383-2.385-2.195-3.483
				c-0.775-1.049-1.736-1.967-2.762-2.766c-1.994-1.554-4.266-2.672-6.58-3.659c-4.257-1.815-8.703-3.154-12.917-5.076
				c-2.991-1.365-5.777-3.084-8.2-5.246c0.168,0.211,0.341,0.419,0.517,0.622c2.818,3.243,6.642,5.714,10.565,7.409
				c4.931,2.129,10.535,3.1,14.982,6.245c3.41,2.412,5.419,6.187,7.51,9.696c2.055,3.449,4.087,6.927,6.493,10.147
				c2.293,3.069,4.958,5.92,8.241,7.943c1.179,0.727,2.422,1.308,3.705,1.771C54.699,81.545,51.535,78.209,48.697,74.739z"/>
			<path style="fill:#FFFBD0;" d="M85.779,101.729c-3.636-2.52-7.099-5.262-11.02-7.336c-1.31-0.693-2.649-1.357-3.968-2.055
				c0.402,0.406,0.812,0.804,1.232,1.192c4.49,4.147,9.875,6.965,15.447,9.349C86.902,102.5,86.339,102.117,85.779,101.729z"/>
			<path style="fill:#DDDBB9;" d="M82.045,74.399c-4.189,0.498-8.486,0.962-12.684,0.311c-2.575-0.399-4.981-1.379-6.743-3.104
				c1.775,3.518,5.168,6.184,8.696,7.84c0.278,0.131,0.329,0.583,0.101,0.78c-2.903,2.507-6.905,3.097-10.62,2.805
				c-5.724-0.45-10.336-4.268-13.956-8.428c-0.587-0.675-1.153-1.368-1.711-2.068c0.433,0.628,0.866,1.257,1.323,1.869
				c2.293,3.069,4.958,5.92,8.241,7.943c1.666,1.027,3.454,1.776,5.309,2.286c1.091,0.566,2.367,0.843,3.55,1.068
				c0.74,0.141,1.486,0.259,2.234,0.356c-0.879,0.025-1.759,0.02-2.635-0.059c0.108,0.157,0.215,0.314,0.322,0.472
				c0.878,0.056,1.759,0.06,2.623,0.032c2.572-0.085,5.124-0.474,7.638-1.009c0.421-0.089,0.779,0.337,0.561,0.73
				c-1.586,2.856-2.324,6.154-2.64,9.383c-0.034,0.349-0.045,0.702-0.07,1.053c0.957,0.928,1.947,1.823,3.009,2.64
				c0.591,0.454,1.194,0.889,1.801,1.313c0.977-4.98,2.582-9.838,4.756-14.422c1.085-2.287,2.359-4.423,3.688-6.572
				c1.058-1.711,2.412-3.724,2.65-5.801C85.669,73.934,83.856,74.184,82.045,74.399z"/>
			<path style="fill:#DDDBB9;" d="M101.925,71.872c-3.495-1.529-6.916-3.273-10.239-5.194c-1.214,2.44-2.305,4.943-3.235,7.503
				c-0.346,2.217-1.75,4.326-2.893,6.162c-1.365,2.193-2.642,4.395-3.734,6.741c-1.306,2.805-2.387,5.715-3.245,8.688
				c-0.518,1.796-0.943,3.617-1.29,5.452c2.924,1.95,6.033,3.551,9.258,4.866c0.234-1.155,0.661-2.284,1.113-3.34
				c1.662-3.884,4.088-7.442,6.566-10.845c1.112-1.526,2.237-3.057,3.439-4.514c1.394-1.688,3.088-3.033,5.367-3.071
				c0.291-0.005,0.47,0.233,0.497,0.497c0.11,1.069-0.344,2.007-0.785,2.949c-0.482,1.03-0.893,2.097-1.321,3.151
				c-0.753,1.854-1.463,3.729-1.976,5.665c-0.501,1.892-0.809,3.845-1.031,5.788c-0.267,2.346-0.381,4.76-0.133,7.124
				c0.731,0.135,1.462,0.272,2.198,0.382c-0.537-1.757-0.501-3.67-0.221-5.471c0.369-2.372,1.132-4.673,2.051-6.885
				c1.834-4.41,4.239-8.604,7.386-12.211c2.64-3.025,5.722-5.572,9.09-7.674C113.031,76.103,107.362,74.25,101.925,71.872z"/>
			<path style="fill:#BCB49B;" d="M120.692,117.232c-0.015,0.022-0.025,0.045-0.052,0.061c-1.216,0.748-2.766,0.48-4.101,0.87
				c-0.642,0.188-1.279,0.407-1.917,0.623c0.174-0.018,0.348-0.034,0.522-0.048c0.782-0.064,1.613-0.053,2.353,0.243
				c0.479,0.191,1.032,0.493,1.282,0.968c0.119,0.225,0.149,0.493,0.021,0.723c-0.017,0.03-0.043,0.061-0.065,0.092
				c0.829-0.298,1.652-0.61,2.46-0.921c1.196-0.461,2.375-0.955,3.554-1.457c0.803-0.342,1.617-0.67,2.421-1.018
				c0.02-0.037,0.037-0.075,0.065-0.108c0.162-0.196,0.32-0.417,0.459-0.657c0.045-0.079,0.075-0.142,0.108-0.208
				c-0.487,0.076-0.973,0.159-1.462,0.224C124.474,116.866,122.586,117.087,120.692,117.232z"/>
			<path style="opacity:0.51;fill:#99AB36;" d="M120.374,37.417c2.693,1.745,5.478,3.356,8.389,4.71
				c2.491,1.159,5.077,2.109,7.609,3.173c4.302,1.809,8.62,3.82,12.169,6.911c3.76,3.275,6.114,7.656,7.042,12.536
				c0.066,0.346-0.224,0.741-0.611,0.611c-3.043-1.022-6.512-0.104-9.47,0.79c-2.741,0.828-5.39,1.918-8.106,2.817
				c-3.299,1.092-6.5,2.54-9.57,4.163c-0.246,0.13-0.485,0.271-0.73,0.404c2.98-1.134,6.069-1.992,9.19-2.586
				c0.495-0.094,0.994-0.173,1.492-0.256c0.058-0.097,0.121-0.188,0.167-0.251c0.165-0.226,0.345-0.443,0.538-0.646
				c0.4-0.422,0.858-0.791,1.336-1.121c0.93-0.642,1.956-1.07,3.048-1.343c0.129-0.032,0.1,0.129,0.014,0.166
				c-0.956,0.423-1.874,0.987-2.722,1.596c-0.429,0.307-0.831,0.648-1.194,1.03c-0.128,0.135-0.244,0.28-0.357,0.427
				c5.416-0.828,10.962-0.959,16.38-0.125c3.685,0.567,8.143,1.518,11.209,3.983c0.272,0.358,0.513,0.736,0.746,1.119
				c-0.215-0.2-0.437-0.395-0.676-0.578c-2.005-1.538-4.503-2.371-6.923-2.996c-3.094-0.798-6.276-1.217-9.467-1.338
				c-5.827-0.22-11.69,0.48-17.326,1.96c-3.772,0.991-7.433,2.418-10.854,4.262c3.066-1.209,6.245-2.119,9.379-2.785
				c4.174-0.888,8.459-1.372,12.729-1.304c3.818,0.06,7.581,0.61,11.124,2.086c2.445,1.018,6.452,3.052,6.048,6.294
				c-0.213,1.71-1.637,2.975-2.978,3.895c-2.242,1.536-4.884,2.587-7.41,3.556c-5.213,2.001-10.646,3.326-16.035,4.75
				c-2.683,0.708-5.36,1.442-8.001,2.295c-1.355,0.438-2.699,0.906-4.028,1.419c-1.163,0.448-2.396,0.877-3.488,1.481
				c-0.793,0.438-1.504,1.092-2.19,1.674c-0.301,0.256-0.591,0.526-0.885,0.79c2.821-1.49,5.956-2.403,9.029-3.203
				c2.425-0.631,4.875-1.154,7.336-1.628c5.795-1.116,11.578-2.287,17.386-3.334c6.685-1.205,13.393-2.287,20.128-3.174
				c0.243-0.032,0.485-0.069,0.727-0.102c0.15-0.225,0.305-0.447,0.453-0.674c0.344-0.53,0.666-1.076,0.94-1.646
				c0.28-0.582,0.534-1.186,0.719-1.805c0.146-0.488,0.317-1.021,0.392-1.542c0.065-0.096,0.13-0.192,0.192-0.289
				c0.012,0.289,0.042,0.576,0.035,0.867c-0.009,0.328-0.047,0.645-0.112,0.966c-0.126,0.625-0.314,1.225-0.58,1.804
				c-0.281,0.611-0.608,1.199-0.965,1.769c-0.094,0.149-0.196,0.293-0.293,0.441c0.627-0.089,1.255-0.175,1.882-0.264
				c0.097-0.07,0.198-0.135,0.293-0.206c1.846-1.364,3.628-2.827,5.202-4.504c1.271-1.354,2.542-2.887,3.03-4.717
				c0.505-1.894-0.128-3.688-0.814-5.443c-0.77-1.968-1.642-3.902-2.728-5.718c-1.112-1.859-2.502-3.514-3.922-5.143
				c-2.913-3.345-6.073-6.47-9.349-9.458c-1.392-1.27-2.783-2.547-4.233-3.751c-1.005-0.835-2.026-1.673-3.105-2.422
				c0.1,0.228,0.21,0.452,0.307,0.68c0.929,2.194,1.735,4.475,2.34,6.791c-1.919-3.907-3.575-7.943-5.672-11.763
				c-0.075-0.137-0.184-0.209-0.3-0.234c-0.782-1.197-1.666-2.334-2.694-3.385c-2.212-2.26-4.894-3.995-7.632-5.545
				c-2.887-1.634-5.832-3.045-8.975-4.116c-3.123-1.064-6.324-1.852-9.525-2.637c-3.363-0.825-6.648-1.924-9.92-3.05
				c-3.381-1.164-6.765-2.304-10.189-3.334c-3.422-1.029-6.863-1.997-10.283-3.034c-4.961-1.504-10.243-2.223-15.062-4.158
				c0.28,1.133,0.453,2.298,0.488,3.457c-0.371-1.748-0.861-3.458-1.622-5.051c-0.317-0.839-0.673-1.656-1.115-2.403
				c-0.331-0.56-0.721-1.07-1.139-1.555c0.484,1.582,0.613,3.269,0.389,4.994c-0.069,0.536-0.795,0.699-0.976,0.132
				c-0.866-2.718-2.412-5.177-4.673-6.946c-3.346-2.618-7.697-3.433-11.881-3.242c-0.007,0.002-0.015,0.002-0.023,0.004
				c-2.286,0.459-4.619,1.218-6.684,2.395c-0.549,0.609-1.075,1.238-1.543,1.912c-2.326,3.348-3.552,7.384-3.353,11.465
				c0.207,4.233,1.975,8.232,4.764,11.396c0.274,0.31,0.102,0.856-0.351,0.848c-2.371-0.042-4.368-1.276-6.47-2.211
				c1.15,2.263,3.072,3.981,5.538,4.792c5.377,1.769,11.599-0.192,16.279-2.962c4.462-2.641,9.196-7.087,9.367-12.64
				c0.012-0.388,0.41-0.603,0.747-0.429c2.383,1.228,5.179,1.385,7.787,1.756c2.382,0.339,4.704,1.002,6.991,1.742
				c0.428,0.139,0.846,0.305,1.271,0.453c0.236,0.042,0.472,0.079,0.707,0.125c3.53,0.69,6.731,2.132,9.764,4.043
				C109.813,29.601,114.863,33.847,120.374,37.417z"/>
			<path style="opacity:0.51;fill:#99AB36;" d="M180.939,74.301c-0.77-1.968-1.642-3.902-2.728-5.718
				c-1.112-1.859-2.502-3.514-3.922-5.143c-2.913-3.345-6.073-6.47-9.349-9.458c-1.392-1.27-2.783-2.547-4.233-3.751
				c-1.005-0.835-2.026-1.673-3.105-2.422c0.1,0.228,0.21,0.452,0.307,0.68c0.929,2.194,1.735,4.475,2.34,6.791
				c-1.919-3.907-3.575-7.943-5.672-11.763c-0.075-0.137-0.184-0.209-0.3-0.234c-0.782-1.197-1.666-2.334-2.694-3.385
				c-2.212-2.26-4.894-3.995-7.632-5.545c-0.512-0.29-1.029-0.563-1.545-0.838c2.106,1.376,4.104,2.907,5.902,4.656
				c6.672,6.491,9.798,15.638,12.717,24.305c0.167-2.316-0.273-4.663-0.156-6.99c0.021-0.419,0.533-0.67,0.848-0.351
				c1.567,1.589,2.707,3.748,3.639,5.75c0.922,1.982,1.861,4.307,1.658,6.54c-0.08,0.883-0.369,1.766-1.028,2.39
				c-0.765,0.725-1.726,0.896-2.747,0.84c-1.369-0.076-2.722-0.388-4.06-0.668c-1.505-0.315-3.014-0.503-4.551-0.587
				c-2.24-0.123-4.436,0.045-6.59,0.472c2.326,0.027,4.65,0.197,6.949,0.551c3.685,0.567,8.143,1.518,11.209,3.983
				c0.272,0.358,0.513,0.736,0.746,1.119c-0.215-0.2-0.437-0.395-0.676-0.578c-2.005-1.538-4.503-2.371-6.923-2.996
				c-3.094-0.798-6.276-1.217-9.467-1.338c-0.069-0.003-0.139-0.001-0.208-0.003c2.18,0.377,4.337,0.8,6.46,1.496
				c3.592,1.178,7.71,2.844,10.137,5.884c1.14,1.428,1.863,3.238,1.651,5.087c-0.213,1.857-1.325,3.282-2.872,4.264
				c-1.813,1.15-3.94,1.792-5.96,2.465c-2.526,0.841-5.069,1.628-7.606,2.437c-0.616,0.197-1.232,0.394-1.848,0.594
				c0.027-0.005,0.054-0.01,0.081-0.015c6.685-1.205,13.393-2.287,20.128-3.174c0.243-0.032,0.485-0.069,0.727-0.102
				c0.15-0.225,0.305-0.447,0.453-0.674c0.344-0.53,0.666-1.076,0.94-1.646c0.28-0.582,0.534-1.186,0.719-1.805
				c0.146-0.488,0.317-1.021,0.392-1.542c0.065-0.096,0.13-0.192,0.192-0.289c0.012,0.289,0.042,0.576,0.035,0.867
				c-0.009,0.328-0.047,0.645-0.112,0.966c-0.126,0.625-0.314,1.225-0.58,1.804c-0.281,0.611-0.608,1.199-0.965,1.769
				c-0.094,0.149-0.196,0.293-0.293,0.441c0.627-0.089,1.255-0.175,1.882-0.264c0.097-0.07,0.198-0.135,0.293-0.206
				c1.846-1.364,3.628-2.827,5.202-4.504c1.271-1.354,2.542-2.887,3.03-4.717C182.258,77.851,181.626,76.056,180.939,74.301z"/>
			<path style="fill:#99AB36;" d="M185.316,90.923c-0.808-1.03-2.414-1.275-3.627-1.401c-1.745-0.181-3.515-0.098-5.258,0.054
				c-0.477,0.041-0.952,0.093-1.428,0.149c-1.625,0.091-3.238,0.288-4.821,0.654c0.001-0.005,0.001-0.01,0.001-0.015
				c-1.669,0.22-3.339,0.424-5.006,0.659c-6.566,0.926-13.102,2.057-19.62,3.271c-4.671,0.87-9.332,1.798-13.996,2.707
				c-2.626,0.512-5.241,1.093-7.821,1.805c-2.872,0.792-5.883,1.682-8.446,3.241c-0.86,0.523-1.805,1.188-2.289,2.101
				c-0.093,0.176-0.15,0.353-0.188,0.53c1.005-1.121,2.512-1.879,3.833-2.41c2.886-1.161,6.016-1.714,9.084-2.141
				c2.721-0.38,5.457-0.611,8.193-0.843c1.715-0.146,3.405-0.455,5.103-0.733c2.895-0.474,5.792-0.942,8.706-1.285
				c2.93-0.345,5.882-0.565,8.834-0.5c1.265,0.028,2.571,0.05,3.813,0.323c0.672,0.147,1.416,0.392,1.878,0.932
				c0.87,1.017-0.008,2.265-0.81,2.991c-1.544,1.398-3.538,2.152-5.43,2.945c-10.746,4.506-22.038,7.753-33.586,9.365
				c-4.212,0.588-8.578,1.18-12.833,0.805c-2.348-0.207-4.603-0.807-6.576-1.909c0.101,0.093,0.192,0.195,0.299,0.282
				c0.114,0.113,0.213,0.234,0.336,0.342c3.454,3.028,8.385,3.656,12.807,3.684c5.021,0.032,10.138-0.598,15.044-1.627
				c3.216-0.674,6.388-1.546,9.525-2.523c3.098-0.965,6.205-1.97,9.197-3.231c2.943-1.241,5.805-2.665,8.732-3.942
				c2.536-1.106,5.164-2.235,7.162-4.208c0.377-0.373,1.026-0.056,0.592,0.403c-0.95,1.007-2.063,1.804-3.262,2.489
				c-2.626,1.499-5.497,2.577-8.236,3.849c-3.05,1.416-6.104,2.756-9.287,3.848c-6.382,2.188-12.896,4.14-19.599,5.035
				c-1.864,0.249-3.752,0.47-5.646,0.614c-0.015,0.022-0.025,0.045-0.052,0.061c-1.216,0.748-2.766,0.48-4.101,0.87
				c-0.642,0.188-1.279,0.407-1.917,0.623c0.174-0.018,0.348-0.034,0.522-0.048c0.782-0.064,1.613-0.053,2.353,0.243
				c0.479,0.191,1.032,0.493,1.282,0.968c0.119,0.225,0.149,0.493,0.021,0.723c-0.017,0.03-0.043,0.061-0.065,0.092
				c0.829-0.298,1.652-0.61,2.46-0.921c1.196-0.461,2.375-0.955,3.554-1.457c1.16-0.494,2.359-0.929,3.486-1.493
				c0.111-0.056,0.123,0.087,0.035,0.136c-1.206,0.658-2.354,1.382-3.602,1.966c-1.233,0.577-2.49,1.107-3.759,1.599
				c-2.163,0.838-4.408,1.737-6.708,2.11c-0.921,0.15-1.861,0.243-2.793,0.376c0.662,0.047,1.311,0.204,1.904,0.538
				c0.675,0.381,1.359,0.956,1.679,1.678c0.585,1.322-0.363,2.499-1.378,3.26c-0.922,0.691-1.997,1.194-3.098,1.589
				c1.821-0.029,3.7-0.536,4.985-1.875c0.703-0.733,1.256-1.592,1.883-2.387c0.642-0.814,1.389-1.49,2.213-2.116
				c1.7-1.29,3.606-2.28,5.542-3.164c2.032-0.927,4.086-1.842,6.167-2.652c2.043-0.795,4.238-1.612,6.442-1.778
				c1.219-0.628,2.487-1.148,3.859-1.254c0.814-0.063,1.954,0.061,2.381,0.876c0.394,0.752-0.141,1.672-0.573,2.281
				c-0.476,0.672-1.053,1.257-1.608,1.863c-0.873,0.953-1.73,1.92-2.615,2.862c-1.881,2.003-3.877,3.937-6.147,5.499
				c-0.731,0.503-1.508,0.909-2.276,1.334c0.448,0.051,0.889,0.162,1.307,0.363c1.263,0.607,2.021,1.912,1.702,3.299
				c-0.256,1.111-1.033,2.056-1.902,2.804c2.329-0.457,3.915-2.035,4.838-4.18c0.522-1.212,1.081-2.389,1.812-3.491
				c0.782-1.178,1.713-2.24,2.663-3.283c1.992-2.189,4.061-4.333,6.18-6.399c1.368-1.334,2.867-2.6,4.566-3.49
				c1.002-0.693,2.085-1.276,3.187-1.786c2.709-1.254,5.462-2.405,8.153-3.701c5.482-2.64,11.082-5.452,15.775-9.378
				c1.755-1.468,3.414-3.175,4.896-4.92C184.904,94.344,186.477,92.403,185.316,90.923z M169.846,103.46
				c-2.422,2.136-5.188,3.828-8.037,5.33c-2.564,1.351-5.201,2.553-7.815,3.803c-1.133,0.542-2.246,1.101-3.342,1.711
				c-0.916,0.511-1.957,1.082-3.034,1.098c-0.745,0.011-1.696-0.41-1.964-1.163c-0.221-0.622,0.15-1.189,0.61-1.584
				c0.638-0.549,1.419-0.938,2.225-1.262c6.641-3.602,13.728-6.343,20.873-8.763C169.826,102.473,170.214,103.135,169.846,103.46z"
				/>
			<path style="fill:#99AB36;" d="M5.256,34.266c0.027-4.663,2.894-8.8,5.952-12.097c1.96-2.114,4.186-3.971,6.561-5.61
				c-1.071,0.632-2.125,1.286-3.142,1.985c-4.053,2.787-7.626,6.318-9.886,10.729c-1.003,1.958-1.364,4.101-0.835,6.254
				c0.497,2.022,1.642,3.822,2.995,5.38c0.003,0.003,0.006,0.006,0.008,0.009C5.907,38.826,5.242,36.619,5.256,34.266z"/>
			<path style="fill:#99AB36;" d="M141.915,100.255c-4.185,0.281-8.344,0.671-12.487,1.335c-1.731,0.278-3.479,0.435-5.208,0.733
				c-2.187,0.376-4.43,0.844-6.464,1.756c-0.247,0.111-0.503,0.238-0.759,0.374c2.483,0.51,5.042,0.528,7.568,0.337
				c5.423-0.41,10.821-1.568,16.129-2.704c2.78-0.595,5.553-1.294,8.355-1.776c1.43-0.246,2.959-0.38,4.404-0.738
				c-1.596-0.053-3.2,0.039-4.789,0.171C146.415,99.929,144.168,100.104,141.915,100.255z"/>
			<path style="fill:#99AB36;" d="M102.246,110.246c-0.787-4.987,0.726-10.142,2.915-14.591c2.552-5.187,6.593-9.575,11.06-13.189
				c6.527-5.281,14.191-8.813,22.213-11.131c-1.98,0.319-3.946,0.728-5.884,1.237c-9.595,2.52-18.535,7.764-24.379,15.917
				c-2.609,3.641-4.715,7.824-6.076,12.093c-0.691,2.169-1.198,4.467-1.063,6.757c0.056,0.96,0.264,1.86,0.611,2.695
				c0.006,0.001,0.012,0.001,0.017,0.002c0.099,0.351,0.22,0.695,0.401,1.019c0.146,0.262,0.325,0.497,0.518,0.72
				C102.44,111.271,102.328,110.76,102.246,110.246z"/>
		</g>
		<path style="fill:#516119;" d="M60.617,42.979c-0.151-0.158-0.342-0.282-0.559-0.326c-0.228-0.046-0.459-0.062-0.691-0.057
			c-0.241,0.005-0.499,0.026-0.718,0.13c-0.18,0.085-0.35,0.313-0.233,0.496c-0.09,0.089-0.155,0.201-0.157,0.319
			c-0.002,0.095,0.002,0.196,0.06,0.276c0.026,0.036,0.068,0.068,0.107,0.101c-0.943,0.536-2.114,0.734-3.136,0.958
			c-1.876,0.41-3.749,0.761-5.664,0.941c-3.939,0.37-7.951,0.234-11.881-0.179c-3.932-0.413-7.826-1.179-11.623-2.282
			c-1.902-0.553-3.76-1.242-5.659-1.801c-1.836-0.54-3.709-0.961-5.602-1.244c-1.82-0.272-3.659-0.315-5.479-0.567
			C7.612,39.5,5.817,38.852,4.728,37.36c-0.043-0.058-0.157,0.023-0.121,0.085c0.794,1.339,1.867,2.161,3.373,2.56
			c1.485,0.394,3.042,0.417,4.561,0.584c2.098,0.231,4.187,0.62,6.221,1.187c1.971,0.55,3.862,1.325,5.811,1.939
			c7.828,2.465,16.356,3.632,24.552,2.909c2.179-0.192,4.3-0.597,6.435-1.058c1.22-0.264,2.481-0.55,3.468-1.279
			c0.239,0.114,0.486,0.212,0.753,0.219c0.508,0.014,1.069-0.388,1.04-0.937C60.811,43.358,60.768,43.138,60.617,42.979z"/>
		<path style="fill:#738D15;" d="M28.276,9.155c0.967-1.631,2.056-3.172,3.644-4.256c3.076-2.1,7.806-2.526,11.096-0.647
			c0.851,0.486,1.601,1.128,2.206,1.898c0.334,0.426,0.597,0.885,0.848,1.35c-1.324,0.183-2.644,0.437-3.969,0.723
			c-2.956,0.639-5.92,1.188-8.889,1.757c-2.072,0.398-4.135,0.863-6.148,1.495C27.404,10.627,27.884,9.816,28.276,9.155z"/>
		<circle cx="60.823" cy="17.198" r="13.436"/>
		<circle style="fill:#D1BA90;" cx="60.823" cy="17.198" r="12.692"/>
		<path style="fill:#463F2D;" d="M83.775,34.501c-0.074-1.754-0.536-3.386-1.395-4.92c-0.869-1.553-2.084-3.047-3.627-3.972
			c-1.105-0.662-2.817-1.083-3.772-0.004c-1.063,0.674-1.65,2.5-1.866,3.564c-0.503,2.471,0.272,5.002,1.679,7.059
			c0.779,1.139,1.83,2.184,3.14,2.682c1.461,0.555,3.179,0.32,4.425-0.63C83.606,37.327,83.838,35.987,83.775,34.501z"/>
		<path style="fill:#736850;" d="M81.267,33.808c-0.053-1.253-0.383-2.419-0.997-3.516c-0.621-1.11-1.489-2.177-2.592-2.838
			c-0.789-0.473-2.013-0.773-2.695-0.003c-0.76,0.482-1.179,1.786-1.334,2.546c-0.36,1.765,0.194,3.574,1.2,5.044
			c0.557,0.814,1.308,1.561,2.244,1.916c1.044,0.396,2.272,0.229,3.162-0.45C81.147,35.828,81.312,34.87,81.267,33.808z"/>
		<path style="fill:#100000;" d="M73.301,19.871c-0.388,2.523-6.565,5.207-13.547,4.132c-6.982-1.075-12.125-5.503-11.736-8.026
			c0.389-2.523,6.909-5.015,13.891-3.939C68.89,13.113,73.689,17.348,73.301,19.871z"/>
		<path style="fill:#FFFFFF;" d="M56.051,16.601c0,0.781-0.633,1.413-1.413,1.413c-0.78,0-1.413-0.633-1.413-1.413
			c0-0.78,0.633-1.413,1.413-1.413C55.419,15.187,56.051,15.82,56.051,16.601z"/>
		<path style="fill:#2C4115;" d="M17.046,27.206c-0.404-0.456-1.022-0.652-1.608-0.737c-0.194-0.028-0.476-0.049-0.631,0.084
			c-0.095,0.082-0.196,0.214-0.153,0.346c0.025,0.079,0.11,0.116,0.136,0.163c0.04,0.073,0.157,0.06,0.218,0.034
			c0.009-0.004,0.017-0.014,0.026-0.02c-0.006,0.058,0.001,0.119,0.037,0.18c0.322,0.558,0.622,1.137,1.019,1.648
			c0.125,0.16,0.398,0.131,0.541,0.01c0.309-0.262,0.593-0.573,0.65-0.99C17.316,27.666,17.217,27.399,17.046,27.206z"/>
		<path style="fill:#2C4115;" d="M16.301,24.407c-0.319,0.041-0.614,0.171-0.913,0.283c-0.306,0.114-0.608,0.235-0.9,0.381
			c-0.56,0.28-1.2,0.686-1.375,1.331c-0.044,0.161-0.036,0.339-0.01,0.502c0.03,0.188,0.079,0.384,0.128,0.568
			c0.027,0.103,0.199,0.01,0.182-0.08c-0.034-0.179-0.045-0.332,0.002-0.51c0.034-0.131,0.084-0.256,0.153-0.373
			c0.032-0.055,0.062-0.111,0.095-0.165c0.018-0.029,0.037-0.057,0.057-0.084c0.028-0.039-0.011,0.009,0.032-0.039
			c0.043-0.047,0.085-0.092,0.131-0.136c0.025-0.024,0.05-0.047,0.075-0.07c0.059-0.056-0.017,0.01,0.03-0.027
			c0.108-0.086,0.22-0.163,0.339-0.235c0.016-0.01,0.022-0.013,0.026-0.016c0.002-0.001,0.004-0.001,0.014-0.007
			c0.028-0.015,0.056-0.03,0.084-0.045c0.067-0.035,0.135-0.067,0.204-0.099c0.271-0.124,0.55-0.228,0.828-0.335
			c0.323-0.124,0.654-0.23,0.923-0.455c0.077-0.065,0.166-0.165,0.135-0.277C16.507,24.413,16.397,24.394,16.301,24.407z"/>
		<g>
			<g>
				<path style="fill:#344A1C;" d="M98.799,74.166c-0.706-1.391-1.748-2.638-2.785-3.795c-2.029-2.265-4.391-4.216-6.942-5.865
					c-2.563-1.657-5.313-3.017-8.145-4.152c-1.519-0.609-3.072-1.238-4.693-1.507c-0.731-0.121-1.471-0.173-2.211-0.172
					c1.27,0.396,2.446,1.108,2.888,2.406c0.154,0.453-0.371,0.718-0.73,0.561c-2.817-1.238-6.281-0.129-8.261,2.13
					c-2.078,2.372-1.374,5.612-1.29,8.482c0.01,0.347-0.442,0.659-0.747,0.429c-1.529-1.156-2.285-2.887-2.494-4.719
					c-0.028,1.194,0.177,2.395,0.617,3.504c0.889,2.243,2.782,3.56,4.975,4.394c2.456,0.935,5.147,1.376,7.727,1.828
					c1.548,0.272,3.114,0.521,4.679,0.676c0.158,0.016,0.316,0.023,0.474,0.035c-0.877,1.094-1.437,2.497-1.988,3.775
					c-1.337,3.1-2.405,6.326-3.447,9.535c-0.518,1.594-1.061,3.186-1.496,4.805c-0.444,1.655-0.785,3.335-1.138,5.01
					c-0.348,1.649-0.728,3.285-1.077,4.926c-0.842,2.054-2.91,3.11-4.915,3.821c-1.165,0.412-2.366,0.714-3.553,1.051
					c-1.709,0.486-3.414,0.987-5.121,1.481c-1.708,0.494-3.418,0.982-5.136,1.44c-0.78,0.208-1.562,0.41-2.346,0.604
					c-0.946,0.234-1.927,0.541-2.904,0.593c-2.557,0.137-5.346-1.32-7.82-0.122c-1.653,0.8-2.711,2.886-1.939,4.637
					c0.656,1.487,2.278,2.411,3.815,2.725c1.597,0.326,3.409,0.052,4.546-1.209c0.271-0.3,0.444-0.649,0.664-0.983
					c0.316-0.48,0.789-0.822,1.291-1.086c1.01-0.531,2.134-0.789,3.249-0.996c1.195-0.222,2.382-0.464,3.57-0.706
					c0.213-0.007,0.427-0.021,0.639-0.015c0.656,0.02,1.357,0.153,1.811,0.671c0.433,0.494,0.464,1.173,0.269,1.777
					c-0.114,0.355-0.297,0.682-0.527,0.974c-0.233,0.295-0.529,0.481-0.793,0.738c-0.029,0.029-0.045,0.063-0.052,0.097
					c-0.549,0.37-1.102,0.731-1.643,1.118c-0.928,0.665-1.874,1.318-2.896,1.83c-0.995,0.498-2.011,0.759-3.099,0.964
					c-1.903,0.358-3.911,1.292-4.367,3.378c-0.369,1.685,0.717,3.53,2.222,4.277c1.48,0.734,3.351,0.486,4.836-0.114
					c1.421-0.575,2.376-1.708,2.678-3.212c0.195-0.972,0.212-1.774,0.934-2.531c0.828-0.87,1.81-1.607,2.777-2.315
					c1.126-0.825,2.272-1.632,3.432-2.418c0.55-0.249,1.128-0.447,1.683-0.646c1.231-0.44,2.633-1.018,3.96-0.705
					c1,0.236,1.605,1.12,1.876,2.065c0.123,0.428,0.172,0.873,0.138,1.317c-0.42,0.665-0.858,1.317-1.33,1.939
					c-0.753,0.991-1.605,1.761-2.61,2.49c-0.869,0.63-1.748,1.266-2.422,2.111c-1.151,1.444-1.547,3.506-0.178,4.954
					c1.155,1.221,3.102,1.654,4.663,1.038c1.478-0.583,2.509-1.959,3.216-3.326c0.763-1.475,1.209-3.045,1.575-4.657
					c0.517-2.274,1.861-4.216,3.309-6c1.612-1.987,3.438-3.861,4.619-6.155c0.629-1.222,1.148-2.539,1.475-3.875
					c0.16-0.655,0.243-1.332,0.332-2.007c0.286-0.557,0.589-1.106,0.895-1.653c0.653-1.164,1.277-2.343,1.907-3.52
					c1.344-2.512,2.688-5.024,4.021-7.543c2.612-4.938,5.035-9.979,7.705-14.884c0.684-1.255,1.355-2.533,1.813-3.891
					c0.211-0.624,0.412-1.309,0.454-1.971c0.004-0.07-0.011-0.133-0.015-0.2C99.552,76.561,99.365,75.281,98.799,74.166z"/>
				<path style="fill:#99AB36;" d="M98.464,79.661c-0.399,1.275-0.999,2.474-1.632,3.647c-1.295,2.401-2.528,4.825-3.766,7.257
					c-2.568,5.043-5.238,10.034-7.908,15.024c-0.712,1.33-1.416,2.663-2.153,3.979c0.036-0.133,0.059-0.269,0.103-0.4
					c0.036-0.108-0.122-0.09-0.16-0.023c-0.368,0.64-0.602,1.301-0.791,1.98c-0.073,0.139-0.137,0.281-0.207,0.421
					c-0.345,0.684-0.35,1.883-0.588,2.682c-0.266,0.894-0.632,1.759-1.053,2.59c-0.957,1.887-2.316,3.525-3.672,5.135
					c-1.38,1.639-2.772,3.313-3.702,5.258c-0.773,1.618-0.977,3.397-1.579,5.074c-0.533,1.484-1.289,3.125-2.591,4.092
					c-1.429,1.062-3.582,0.753-4.729-0.614c-1.567-1.869,0.005-4.038,1.578-5.241c0.837-0.64,1.728-1.212,2.49-1.945
					c1.546-1.489,2.539-3.1,3.406-5.026c0.174-0.387,1.328-3.634,1.747-3.634c0.158-0.453,0.631-1.778,0.517-2.623
					c0.049,0.036,0.098,0.072,0.142,0.113c0.166,0.155,0.276,0.369,0.452,0.503c-0.001-0.052-0.005-0.104-0.012-0.184
					c-0.005-0.027-0.01-0.055-0.016-0.082c-0.014-0.062-0.03-0.123-0.049-0.183c-0.01-0.034-0.022-0.067-0.034-0.1
					c-0.001-0.003-0.007-0.018-0.011-0.03c-0.007-0.017-0.026-0.06-0.029-0.068c-0.012-0.026-0.025-0.052-0.038-0.077
					c-0.03-0.058-0.062-0.115-0.095-0.17c-0.034-0.056-0.069-0.112-0.107-0.166c-0.021-0.03-0.043-0.059-0.082-0.111
					c-0.008-0.01-0.018-0.019-0.026-0.029c-0.094-0.037-0.189-0.068-0.286-0.084c-0.011-0.077-0.062-0.138-0.189-0.146
					c-2.093-0.129-4.118,1.43-5.834,2.443c-2.136,1.261-4.192,2.635-6.239,4.035c-1.872,1.28-3.798,2.542-5.437,4.122
					c-0.583,0.562-1.042,1.185-1.222,1.988c-0.19,0.848-0.178,1.688-0.65,2.454c-0.862,1.4-2.919,1.886-4.456,1.767
					c-1.851-0.144-3.61-1.84-3.427-3.789c0.109-1.156,0.982-2.072,2.023-2.503c1.02-0.423,2.151-0.459,3.205-0.768
					c1.974-0.579,3.69-1.798,5.335-2.994c2.1-1.527,4.32-2.855,6.462-4.321c1.243-0.851,3.072-1.84,3.674-3.335
					c-0.013-0.041-0.027-0.083-0.042-0.124c-0.008-0.021-0.016-0.042-0.024-0.063c-0.041-0.088-0.082-0.174-0.13-0.258
					c-0.028-0.049-0.061-0.094-0.092-0.14c-0.101,0.246-0.221,0.478-0.366,0.693c-0.04-0.059-0.095-0.114-0.168-0.164
					c-0.498-0.346-1.352-0.194-1.905-0.125c-2.333,0.289-4.634,0.993-6.926,1.495c-2.335,0.512-4.801,0.713-7.069,1.483
					c-0.96,0.326-1.91,0.819-2.556,1.622c-0.564,0.702-0.829,1.415-1.712,1.8c-1.585,0.691-3.619,0.163-4.943-0.854
					c-1.488-1.142-1.899-3.193-0.409-4.566c0.97-0.894,2.426-0.824,3.648-0.701c1.525,0.153,3.031,0.609,4.574,0.486
					c1.678-0.133,3.381-0.71,5.003-1.14c1.719-0.455,3.429-0.94,5.137-1.434c1.94-0.56,3.876-1.131,5.819-1.68
					c1.251-0.353,2.509-0.691,3.723-1.16c1.328-0.512,3.103-1.355,3.999-2.644c-0.058,0.297-0.108,0.595-0.161,0.893
					c0.299-0.604,0.616-1.198,0.954-1.781c0.296-0.51,0.324-1.459,0.464-2.053c0.865-3.683,1.528-7.436,2.679-11.044
					c0.964-3.024,1.951-6.038,3.054-9.014c0.546-1.474,1.126-2.938,1.809-4.355c0.392-0.812,0.794-1.588,1.346-2.257
					c0.753-1.119,1.899-1.953,3.206-2.47c-0.426,0.115-0.847,0.252-1.257,0.431c-0.78,0.341-1.508,0.81-2.119,1.403
					c-0.986-0.078-1.966-0.185-2.948-0.325c-2.468-0.35-4.936-0.81-7.362-1.385c-2.18-0.517-4.625-1.245-6.196-2.94
					c-1.46-1.574-2.026-3.856-1.881-5.963c0.127-1.834,0.855-3.637,2.131-4.973c1.216-1.273,3.594-2.757,5.391-2.757
					c1.614-0.318,3.3-0.305,4.909,0.037c1.423,0.302,2.798,0.866,4.144,1.407c5.287,2.123,10.35,5.093,14.285,9.264
					c1.065,1.129,2.094,2.339,2.913,3.661c0.463,0.748,0.831,1.535,0.946,2.415c0.09,0.694,0.032,1.409,0.126,2.1
					C98.728,78.826,98.592,79.253,98.464,79.661z"/>
				<path style="fill:#99AB36;" d="M41.682,116.123c1.42-0.645,2.939-0.267,4.325,0.246c0.836,0.31,1.676,0.525,2.576,0.446
					c0.987-0.087,1.949-0.43,2.904-0.673c0.189-0.048,0.339,0.013,0.446,0.118c4.613-1.172,9.065-2.95,13.668-4.167
					c2.069-0.547,4.238-1.127,5.97-2.446c1.844-1.404,2.648-3.501,3.133-5.696c0.462-2.089,0.777-4.185,1.349-6.25
					c0.503-1.817,1.01-3.633,1.571-5.434c1.972-6.324,4.837-13.347,10.576-17.069c-1.213,0.214-2.393,0.578-3.485,1.148
					c0,0.004,0.001,0.008,0.001,0.012c0.336-0.133,0.678-0.248,1.024-0.341c-0.38,0.15-0.74,0.335-1.086,0.538
					c-0.068,0.124-0.186,0.215-0.359,0.233c-0.693,0.462-1.305,1.021-1.761,1.699c-0.553,0.67-0.954,1.445-1.346,2.257
					c-0.683,1.417-1.263,2.881-1.809,4.355c-1.103,2.976-2.091,5.991-3.054,9.014c-1.151,3.608-1.814,7.361-2.679,11.044
					c-0.14,0.594-0.168,1.542-0.464,2.053c-0.338,0.583-0.655,1.178-0.954,1.781c0.053-0.298,0.104-0.596,0.161-0.893
					c-0.897,1.289-2.672,2.132-3.999,2.644c-1.215,0.468-2.472,0.806-3.723,1.159c-1.943,0.549-3.88,1.119-5.819,1.68
					c-1.708,0.493-3.418,0.979-5.137,1.434c-1.622,0.429-3.325,1.006-5.003,1.14c-1.543,0.122-3.05-0.334-4.574-0.486
					c-1.223-0.123-2.678-0.193-3.648,0.701c-1.1,1.014-1.158,2.396-0.517,3.51C40.008,118.364,40.206,116.793,41.682,116.123z"/>
				<path style="fill:#99AB36;" d="M47.406,132.25c-0.31-0.938-0.378-2.049,0.059-2.96c0.401-0.835,1.197-1.346,2.002-1.739
					c1.106-0.54,2.246-0.984,3.326-1.581c2.395-1.324,4.565-3.003,6.876-4.461c2.033-1.283,4.298-2.381,6.074-4.021
					c0.277-0.256,1.183-0.973,1.138-1.422c-0.013-0.128-0.023-0.109-0.228-0.159c-0.72,1.309-2.354,2.217-3.5,3.001
					c-2.142,1.466-4.362,2.795-6.462,4.321c-1.645,1.196-3.361,2.414-5.335,2.994c-1.053,0.309-2.184,0.346-3.205,0.768
					c-1.042,0.431-1.915,1.347-2.023,2.503c-0.108,1.15,0.469,2.203,1.334,2.91C47.443,132.354,47.423,132.301,47.406,132.25z"/>
				<path style="fill:#99AB36;" d="M64.771,134.738c0.274-1.541,1.264-2.952,2.183-4.179c1.007-1.344,2.124-2.596,3.229-3.859
					c1.367-1.562,2.603-3.295,3.473-5.183c0.514-1.117,0.929-2.324,0.51-3.536c-0.07-0.202-0.166-0.419-0.293-0.61
					c-0.033-0.027-0.066-0.054-0.1-0.079c0.114,0.845-0.358,2.17-0.517,2.623c-0.419,0-1.573,3.247-1.747,3.634
					c-0.867,1.926-1.859,3.537-3.406,5.026c-0.762,0.734-1.653,1.305-2.49,1.946c-1.573,1.203-3.145,3.372-1.578,5.241
					c0.278,0.331,0.616,0.598,0.988,0.8C64.753,136.053,64.646,135.446,64.771,134.738z"/>
				<path style="fill:#99AB36;" d="M72.054,76.143c2.426,0.575,4.894,1.035,7.362,1.385c0.982,0.139,1.962,0.247,2.948,0.325
					c0.436-0.423,0.944-0.76,1.476-1.055c-1.85,0.004-3.7-0.131-5.533-0.379c-3.797-0.516-7.793-1.485-11.004-3.667
					c-1.282-0.87-2.426-1.979-3.21-3.324c0.239,1.397,0.805,2.741,1.766,3.776C67.429,74.898,69.874,75.627,72.054,76.143z"/>
				<path style="fill:#99AB36;" d="M71.683,116.715c-0.642-0.012-1.336,0.191-1.901,0.36c-2.56,0.765-4.877,2.356-7.062,3.841
					c-2.582,1.755-5.333,3.433-7.458,5.752c-1.007,1.098-1.735,2.336-2.575,3.554c-0.617,0.896-1.49,1.575-2.516,1.939
					c-1.013,0.359-2.043,0.326-2.975,0.008c0.638,0.624,1.485,1.046,2.36,1.114c1.537,0.119,3.595-0.367,4.456-1.767
					c0.471-0.766,0.46-1.606,0.65-2.454c0.18-0.802,0.639-1.426,1.222-1.988c1.639-1.579,3.565-2.841,5.437-4.122
					c2.047-1.4,4.103-2.773,6.239-4.035C68.802,118.185,70.208,117.173,71.683,116.715z"/>
				<path style="fill:#99AB36;" d="M47.549,119.992c0.646-0.803,1.596-1.296,2.556-1.622c2.268-0.771,4.735-0.972,7.069-1.483
					c2.292-0.502,4.593-1.207,6.926-1.495c0.104-0.013,0.227-0.029,0.348-0.044c-0.598-0.054-1.201-0.04-1.799,0.006
					c-3.193,0.247-6.334,0.716-9.497,1.215c-1.4,0.221-2.802,0.437-4.212,0.588c-1.27,0.136-2.734,0.244-3.714,1.158
					c-0.758,0.707-1.36,1.554-2.369,1.922c-0.769,0.281-1.63,0.301-2.433,0.187c-0.028-0.004-0.057-0.012-0.085-0.017
					c0.164,0.191,0.345,0.371,0.553,0.531c1.325,1.017,3.358,1.544,4.943,0.854C46.72,121.408,46.984,120.694,47.549,119.992z"/>
				<path style="fill:#99AB36;" d="M98.697,76.295c-0.115-0.88-0.483-1.667-0.946-2.415c-0.819-1.322-1.848-2.532-2.913-3.661
					c-3.935-4.171-8.998-7.141-14.285-9.264c-1.346-0.541-2.722-1.105-4.144-1.407c-1.609-0.342-3.295-0.355-4.909-0.037
					c-1.797,0-4.175,1.484-5.391,2.757c-0.49,0.513-0.898,1.097-1.224,1.723c0.572-0.578,1.217-1.089,1.957-1.5
					c4.592-2.552,10.482-1.007,15.069,0.74c2.528,0.963,4.992,2.122,7.346,3.455c2.559,1.449,5.79,3.404,6.674,6.41
					c0.115,0.392-0.254,0.673-0.611,0.611c-3.151-0.545-6.49,0.527-9.323,2.168c0.38-0.09,0.762-0.169,1.15-0.227
					c1.356-0.204,2.919-0.244,4.077,0.612c2.12,1.568,1.186,4.898,0.508,6.968c-0.943,2.879-2.126,5.719-3.341,8.491
					c-2.909,6.64-6.507,13.077-11.13,18.685c1.355,2.253,0.865,4.99-0.11,7.313c-0.973,2.319-2.398,4.422-3.908,6.421
					c-0.755,0.999-1.666,2.048-2.137,3.222c-0.493,1.228-0.262,2.61-0.423,3.901c-0.233,1.862-0.861,3.693-2.017,5.173
					c0.032-0.022,0.068-0.035,0.099-0.059c1.302-0.967,2.058-2.607,2.591-4.091c0.603-1.677,0.806-3.456,1.579-5.074
					c0.93-1.946,2.322-3.619,3.702-5.258c1.355-1.61,2.715-3.247,3.672-5.135c0.421-0.831,0.788-1.697,1.053-2.59
					c0.238-0.798,0.243-1.998,0.588-2.682c0.071-0.14,0.135-0.282,0.207-0.421c0.189-0.68,0.422-1.34,0.791-1.98
					c0.038-0.066,0.196-0.085,0.16,0.023c-0.044,0.131-0.067,0.268-0.103,0.4c0.737-1.316,1.442-2.649,2.153-3.979
					c2.67-4.99,5.34-9.98,7.908-15.024c1.238-2.431,2.47-4.855,3.766-7.257c0.633-1.173,1.233-2.371,1.632-3.647
					c0.128-0.408,0.264-0.836,0.359-1.267C98.728,77.704,98.787,76.989,98.697,76.295z"/>
				<path style="fill:#BCB49B;" d="M59.153,120.548c0.3-0.64,0.427-1.412,0.123-2.075c-0.302-0.659-0.876-0.97-1.534-1.1
					c1.482-0.313,2.961-0.637,4.441-0.98c0.69-0.16,1.387-0.314,2.093-0.381c0.314-0.03,0.763-0.103,1.063,0.025
					c0.355,0.151,0.091,0.39-0.113,0.622c-0.028,0.031-0.041,0.061-0.058,0.09c-0.125,0.1-0.243,0.204-0.378,0.297
					c-1.048,0.732-2.113,1.444-3.178,2.151c-0.896,0.595-1.794,1.175-2.69,1.761C59.006,120.826,59.087,120.69,59.153,120.548z"/>
				<path style="fill:#BCB49B;" d="M69.763,121.712c-1.368-1.476-3.515-0.873-5.251-0.207c0.448-0.289,0.89-0.592,1.341-0.874
					c1.183-0.742,2.389-1.442,3.595-2.146c0.669-0.391,1.334-0.735,2.03-1c0.335-0.073,0.666-0.184,1.004-0.286
					c0.04,0.04,0.099,0.069,0.203,0.066c0.803-0.025-0.28,2.84-0.438,3.252c-0.43,1.121-0.951,2.216-1.544,3.271
					C70.582,123.027,70.283,122.273,69.763,121.712z"/>
			</g>
			<path style="fill:#344A1C;" d="M70.628,75.821c-0.332-0.11-0.704-0.078-1.051-0.098c-0.366-0.021-0.733-0.048-1.098-0.083
				c-0.778-0.076-1.54-0.216-2.297-0.411c-1.46-0.377-3.01-1.135-3.782-2.494c-0.033-0.059-0.146,0.02-0.114,0.08
				c0.367,0.7,0.8,1.328,1.417,1.831c0.604,0.492,1.308,0.835,2.04,1.092c0.76,0.267,1.57,0.399,2.367,0.497
				c0.729,0.09,1.623,0.253,2.346,0.089C70.649,76.28,70.938,75.924,70.628,75.821z"/>
			<path style="fill:#344A1C;" d="M80.411,59.666c-0.136-0.168-0.283-0.328-0.44-0.477c-0.344-0.325-0.726-0.61-1.122-0.867
				c-0.787-0.509-1.646-0.861-2.564-1.053c-0.075-0.016-0.186,0.099-0.089,0.142c0.795,0.35,1.567,0.807,2.282,1.299
				c0.362,0.249,0.709,0.524,1.025,0.83c0.158,0.153,0.314,0.31,0.457,0.478c0.129,0.151,0.232,0.351,0.388,0.474
				c0.162,0.128,0.455-0.103,0.41-0.288C80.711,60.007,80.537,59.821,80.411,59.666z"/>
		</g>
		<path style="fill:#D1BA90;" d="M60.823,4.506c-6.998,0-12.692,5.693-12.692,12.691s5.693,12.691,12.692,12.691
			s12.692-5.693,12.692-12.691S67.821,4.506,60.823,4.506z M68.427,21.903c-2.717,3.884-8.26,5.612-12.466,3.179
			c-3.449-1.995-5.788-6.075-5.631-10.067c0.34-8.642,10.593-12.342,16.33-5.897C69.692,12.525,71.235,17.889,68.427,21.903z"/>
	</g>
	<g style="opacity:0.51;">
		<polygon style="fill:#99AB36;" points="106.87,68.819 106.88,68.816 106.871,68.818 		"/>
		<polygon style="fill:#99AB36;" points="106.861,68.813 106.861,68.813 106.862,68.814 106.864,68.812 106.863,68.812 		"/>
		<polygon style="fill:#99AB36;" points="106.885,68.814 106.89,68.812 106.885,68.812 106.88,68.814 		"/>
		<path style="fill:#99AB36;" d="M110.935,70.703c-0.322-0.821-1.038-1.482-1.736-1.992c-0.604-0.44-1.471-0.986-2.259-0.814
			c-0.462,0.101-0.913,0.415-1.077,0.871c-0.135,0.378-0.032,0.763,0.132,1.111c0.361,0.768,1.031,1.421,1.696,1.932
			c0.645,0.496,1.477,0.873,2.311,0.694c0.333-0.071,0.67-0.302,0.808-0.62c0.025-0.036,0.056-0.067,0.077-0.106
			C111.072,71.442,111.075,71.059,110.935,70.703z"/>
	</g>
	<path style="opacity:0.51;fill:#99AB36;" d="M100.95,67.539c-0.023-0.041-0.052-0.078-0.076-0.118c0.004-0.039,0.012-0.077,0-0.115
		c-0.015-0.048-0.031-0.095-0.051-0.141c-0.023-0.052-0.047-0.108-0.075-0.158c-0.032-0.056-0.065-0.085-0.118-0.134
		c-0.037-0.034-0.076-0.064-0.121-0.087c-0.057-0.029-0.115-0.058-0.176-0.08c-0.063-0.023-0.141-0.025-0.21-0.028
		c-0.046,0.005-0.092,0.009-0.139,0.014c-0.077,0.014-0.148,0.043-0.213,0.085c-0.005,0.003-0.009,0.007-0.014,0.01
		c-0.08,0.025-0.159,0.072-0.214,0.131c-0.1,0.107-0.217,0.29-0.151,0.435c0.009,0.019,0.02,0.036,0.03,0.054
		c0.014,0.054,0.039,0.095,0.074,0.135c0.002,0.003,0.003,0.007,0.005,0.01c0.111,0.176,0.23,0.349,0.403,0.471
		c0.119,0.084,0.257,0.141,0.392,0.195c0.035,0.005,0.07,0.01,0.105,0.015c0.061,0.002,0.118-0.008,0.174-0.03
		c0.101-0.033,0.204-0.09,0.275-0.171c0.053-0.06,0.098-0.127,0.126-0.202c0.021-0.051,0.027-0.102,0.017-0.154
		C100.996,67.627,100.981,67.581,100.95,67.539z"/>
	<g style="opacity:0.51;">
		<g>
			<path style="fill:#99AB36;" d="M117.92,70.614c-0.035,0.01-0.07,0.02-0.082,0.022c-0.011,0.006-0.021,0.01-0.034,0.016
				c0.002,0.008,0.003,0.015,0.005,0.023c0.002,0.007,0.006,0.016,0.01,0.025c-0.004-0.006-0.004-0.008-0.01-0.017
				c0.004,0.007,0.008,0.014,0.012,0.021c0.004,0.008,0.007,0.013,0.011,0.019c0.004,0.008,0.008,0.015,0.013,0.022
				c0.037,0.052,0.07,0.105,0.111,0.155c0.002,0.003,0.012,0.013,0.017,0.018C117.933,70.821,117.914,70.719,117.92,70.614z"/>
			<path style="fill:#99AB36;" d="M121.72,71.282c-0.462-0.536-1.066-0.955-1.695-1.271c-0.569-0.286-1.194-0.55-1.843-0.446
				c-0.779,0.125-1.875,0.742-1.5,1.695c0.073,0.186,0.181,0.354,0.312,0.507c0.012,0.019,0.014,0.036,0.028,0.055
				c0.089,0.117,0.205,0.221,0.312,0.322c0.232,0.218,0.488,0.403,0.757,0.575c0.598,0.382,1.266,0.732,1.962,0.889
				c0.708,0.16,1.484,0.072,1.921-0.578C122.365,72.447,122.143,71.773,121.72,71.282z"/>
		</g>
		<path style="fill:#99AB36;" d="M117.819,70.7c0.001,0.001,0.001,0.003,0.002,0.004c0.003,0.006,0.007,0.013,0.011,0.019
			C117.84,70.737,117.84,70.735,117.819,70.7z"/>
		<path style="fill:#99AB36;" d="M121.095,72.739c-0.01,0.003-0.011,0.003-0.01,0.004C121.088,72.742,121.091,72.741,121.095,72.739
			l0,0.001c0.003-0.001,0.004-0.001,0.008-0.002c0,0,0,0,0,0c0,0,0.001,0,0.001,0c0,0,0-0.001,0-0.001c0,0-0.001,0-0.001,0
			C121.101,72.714,121.096,72.71,121.095,72.739z"/>
	</g>
	<path style="opacity:0.51;fill:#99AB36;" d="M111.696,77.248c-0.556-0.309-1.174-0.526-1.801-0.634
		c-0.152-0.026-0.33,0.015-0.486,0.095c-0.188,0.031-0.367,0.071-0.546,0.179c-0.099,0.06-0.214,0.225-0.17,0.349
		c0.212,0.601,0.764,1.066,1.319,1.374c0.014,0.009,0.027,0.021,0.042,0.029c0.023,0.013,0.048,0.023,0.071,0.036
		c0.02,0.01,0.039,0.024,0.058,0.034c0.019,0.009,0.038,0.016,0.056,0.024c0.236,0.122,0.484,0.224,0.743,0.286
		c0.414,0.127,0.838,0.212,1.276,0.261c0.325,0.037,0.637-0.309,0.598-0.617C112.774,78.015,112.238,77.549,111.696,77.248z"/>
	<path style="opacity:0.51;fill:#99AB36;" d="M104.292,74.485c0-0.003-0.001-0.006-0.001-0.009
		c-0.001-0.005-0.002-0.009-0.003-0.014c-0.006-0.019-0.018-0.036-0.026-0.055c-0.001-0.009-0.001-0.018-0.002-0.026
		c-0.01-0.051-0.035-0.091-0.074-0.121c-0.012-0.012-0.024-0.024-0.037-0.036c-0.007-0.007-0.014-0.013-0.021-0.019
		c-0.016-0.014-0.032-0.026-0.048-0.039c-0.02-0.015-0.039-0.029-0.06-0.042c-0.012-0.008-0.085-0.041-0.097-0.045
		c-0.004-0.001-0.007-0.002-0.011-0.003c-0.007-0.002-0.013-0.004-0.02-0.005l-0.02-0.005c-0.003-0.001-0.006-0.001-0.009-0.002
		l-0.006-0.001c-0.055-0.017-0.111-0.02-0.167-0.01c-0.02,0.002-0.039,0.004-0.059,0.006c-0.04,0.013-0.081,0.026-0.121,0.039
		c-0.002,0.001-0.003,0.001-0.005,0.002c-0.039,0.022-0.078,0.044-0.117,0.066c-0.003,0.002-0.006,0.005-0.01,0.007
		c-0.007,0.005-0.014,0.011-0.021,0.016c-0.03,0.023-0.063,0.047-0.087,0.074l-0.032,0.041c-0.024,0.024-0.041,0.053-0.053,0.085
		c-0.012,0.025-0.018,0.031-0.022,0.05c-0.001,0.006-0.003,0.011-0.004,0.016c-0.005,0.019-0.007,0.035-0.012,0.056
		c-0.004,0.018-0.007,0.035-0.011,0.053c0.003,0.034,0.006,0.067,0.009,0.101l0.001,0.004c0.014,0.03,0.028,0.061,0.042,0.091
		c0.006,0.008,0.066,0.067,0.074,0.072c0.011,0.007,0.023,0.015,0.035,0.022c0.006,0.004,0.012,0.008,0.018,0.011
		c0.015,0.009,0.081,0.04,0.097,0.045c0.003,0.001,0.006,0.001,0.008,0.002c0.014,0.004,0.027,0.008,0.041,0.012
		c0.024,0.007,0.048,0.015,0.071,0.024c0.002,0.001,0.004,0.001,0.005,0.002c0.007,0.024,0.02,0.044,0.041,0.058
		c0.015,0.021,0.035,0.034,0.06,0.041c0.022,0.014,0.047,0.021,0.074,0.021c0.042,0.009,0.084,0.008,0.126-0.003
		c0.039-0.011,0.08-0.022,0.117-0.04c0.083-0.04,0.124-0.07,0.191-0.133c0.03-0.028,0.054-0.063,0.077-0.097
		c0.002-0.003,0.004-0.006,0.006-0.009c0.001-0.002,0.002-0.004,0.004-0.006c0.014-0.026,0.033-0.063,0.043-0.091
		c0.014-0.036,0.024-0.076,0.025-0.113C104.3,74.549,104.296,74.512,104.292,74.485z"/>
	<path style="opacity:0.51;fill:#99AB36;" d="M94.168,63.775c-0.284-0.201-0.595-0.36-0.913-0.499
		c-0.252-0.11-0.504-0.191-0.777-0.224c-0.254-0.031-0.551,0.167-0.688,0.409c-0.213,0.003-0.392,0.139-0.436,0.357
		c0,0.002,0,0.005-0.001,0.008c0.004-0.055-0.01,0.081-0.008,0.103c0.001,0.022,0.003,0.035,0.006,0.054
		c0.007,0.044,0.019,0.087,0.032,0.129c0.035,0.115,0.086,0.224,0.144,0.329c0.122,0.221,0.27,0.427,0.431,0.621
		c0.352,0.424,0.793,0.854,1.331,1.025c0.662,0.21,1.414-0.179,1.636-0.84C95.135,64.625,94.634,64.105,94.168,63.775z"/>
	<path style="opacity:0.51;fill:#99AB36;" d="M111.386,63.556c-0.376,0-0.727,0.668-0.229,0.668
		C111.532,64.224,111.884,63.556,111.386,63.556z"/>
	<path style="opacity:0.51;fill:#99AB36;" d="M107.632,82.106c-0.023-0.085-0.036-0.172-0.046-0.26
		c-0.002-0.015-0.003-0.031-0.005-0.046c-0.012-0.091-0.075-0.167-0.145-0.222c-0.07-0.055-0.178-0.069-0.263-0.075
		c-0.05-0.003-0.099,0.006-0.15,0.014c-0.056,0.01-0.105,0.037-0.154,0.062c-0.015-0.067-0.029-0.134-0.051-0.198
		c-0.051-0.152-0.212-0.178-0.349-0.134c-0.074,0.024-0.148,0.065-0.2,0.124c-0.052,0.058-0.112,0.141-0.107,0.223
		c0.01,0.193-0.011,0.385,0.007,0.579c0.017,0.187,0.124,0.362,0.292,0.449c0.069,0.036,0.142,0.068,0.218,0.089
		c0.063,0.017,0.127,0.03,0.191,0.047c0.198,0.051,0.405-0.029,0.555-0.157c0.071-0.061,0.126-0.128,0.166-0.212
		C107.631,82.301,107.658,82.201,107.632,82.106z"/>
	<g style="opacity:0.51;">
		<path style="fill:#99AB36;" d="M125.814,69.654C125.831,69.566,125.814,69.646,125.814,69.654L125.814,69.654z"/>
		<path style="fill:#99AB36;" d="M127.038,69.465c-0.002-0.015-0.003-0.029-0.009-0.043c-0.016-0.042-0.034-0.09-0.061-0.127
			c-0.012-0.017-0.039-0.04-0.047-0.047c-0.006-0.006-0.031-0.034-0.047-0.046c-0.004-0.003-0.007-0.004-0.011-0.007
			c-0.032-0.019-0.077-0.041-0.112-0.051c-0.021-0.006-0.058-0.009-0.07-0.011c-0.013-0.002-0.048-0.009-0.07-0.01
			c-0.004,0-0.008,0-0.013,0c-0.005,0-0.011,0.001-0.017,0.002c-0.017-0.017-0.031-0.035-0.048-0.051
			c-0.058-0.06-0.118-0.119-0.188-0.164c-0.123-0.079-0.303-0.04-0.414,0.044c-0.052,0.039-0.098,0.086-0.135,0.14
			c-0.04,0.06-0.07,0.162-0.048,0.234c0.015,0.049,0.031,0.096,0.05,0.143c0.014,0.033,0.027,0.066,0.039,0.099
			c0.002,0.006,0.005,0.012,0.008,0.018c-0.011,0.023-0.022,0.047-0.034,0.07c-0.001,0.002,0.001-0.004,0.001-0.005
			c-0.004,0.018-0.006,0.029-0.013,0.065c-0.004,0.02-0.008,0.039-0.012,0.059c0.003,0.037,0.006,0.075,0.01,0.112
			c0,0.001,0.046,0.1,0.046,0.101c0.001,0.001,0.078,0.077,0.079,0.078c0.034,0.016,0.068,0.032,0.103,0.048
			c0.04,0.006,0.08,0.012,0.12,0.017c0.018,0.001,0.059-0.005,0.062-0.006c0.009,0.008,0.013,0.021,0.023,0.028
			c0.086,0.06,0.219,0.071,0.318,0.047c0.243-0.059,0.463-0.251,0.493-0.508C127.052,69.617,127.046,69.545,127.038,69.465z"/>
		<path style="fill:#99AB36;" d="M126.51,69.048c0.009,0.008,0.016,0.019,0.025,0.027c0.006,0.007,0.014,0.011,0.02,0.018
			C126.54,69.078,126.525,69.063,126.51,69.048z"/>
	</g>
	<path style="opacity:0.51;fill:#99AB36;" d="M127.512,78.789c-0.548-0.515-1.327-0.444-1.934-0.082
		c-0.476,0.115-0.882,0.471-1.105,0.899c-0.063,0.121-0.104,0.255-0.021,0.38c0.349,0.528,1.006,0.759,1.614,0.593
		c0.428-0.117,0.784-0.359,1.074-0.668c0.008-0.009,0.017-0.017,0.025-0.027c0.181-0.199,0.342-0.418,0.462-0.667
		C127.704,79.056,127.628,78.898,127.512,78.789z"/>
	<g style="opacity:0.51;">
		<path style="fill:#99AB36;" d="M134.955,75.039c-0.361-0.108-0.738-0.151-1.093,0.002c-0.352,0.152-0.582,0.456-0.807,0.752
			c-0.101,0.132-0.126,0.352-0.027,0.492c0.052,0.074,0.117,0.154,0.196,0.199c0.109,0.061,0.212,0.094,0.339,0.095
			c0.08,0.001,0.161-0.01,0.239-0.028c0.059-0.014,0.115-0.034,0.171-0.053c0.018-0.006,0.033-0.016,0.05-0.022
			c0.081-0.021,0.165-0.035,0.24-0.069c0.358-0.163,0.651-0.447,0.853-0.782c0.057-0.095,0.109-0.243,0.072-0.355
			C135.15,75.156,135.072,75.074,134.955,75.039z"/>
		<path style="fill:#99AB36;" d="M133.953,76.507c0.003-0.001,0.005-0.003,0.007-0.003c-0.012,0.004-0.024,0.008-0.036,0.012
			C133.934,76.512,133.943,76.509,133.953,76.507z"/>
		<path style="fill:#99AB36;" d="M134.057,76.472c-0.029,0.009-0.057,0.017-0.086,0.026c-0.004,0.001-0.007,0.004-0.011,0.005
			C133.993,76.493,134.025,76.482,134.057,76.472z"/>
	</g>
	<path style="opacity:0.51;fill:#99AB36;" d="M117.792,87.247c-0.768-0.658-1.879-0.406-2.679,0.045
		c-0.111,0.063-0.217,0.143-0.325,0.215c-0.51,0.075-1.007,0.257-1.452,0.517c-0.461,0.269-0.88,0.664-1.078,1.169
		c-0.201,0.512-0.074,1.063,0.237,1.502c0.577,0.813,1.739,0.79,2.614,0.6c0.987-0.215,2.05-0.703,2.72-1.481
		c0.313-0.364,0.581-0.814,0.587-1.309C118.422,88.001,118.165,87.567,117.792,87.247z"/>
	<path style="opacity:0.51;fill:#99AB36;" d="M122.282,82.775c-0.444,0-0.86,0.79-0.271,0.79
		C122.456,83.565,122.872,82.775,122.282,82.775z"/>
	<path style="opacity:0.51;fill:#99AB36;" d="M128.359,83.657c-0.379,0-0.734,0.674-0.231,0.674
		C128.508,84.331,128.863,83.657,128.359,83.657z"/>
	<path style="opacity:0.51;fill:#99AB36;" d="M136.24,66.093c-0.014-0.03-0.022-0.051-0.041-0.075
		c-0.013-0.017-0.028-0.032-0.045-0.046c-0.038-0.047-0.088-0.077-0.149-0.091c-0.045-0.014-0.093-0.017-0.141-0.022
		c-0.019-0.002-0.038-0.003-0.058-0.004c-0.122-0.007-0.245,0.025-0.366,0.039c-0.099,0.022-0.189,0.062-0.272,0.12
		c-0.083,0.058-0.152,0.129-0.206,0.215c-0.084,0.137-0.125,0.321-0.026,0.463c0.075,0.107,0.201,0.134,0.326,0.133
		c-0.006,0.005-0.011,0.009-0.017,0.014c0.039,0.005,0.078,0.008,0.117,0.011c0.019,0.002,0.038,0.004,0.058,0.005
		c0.047-0.005,0.093-0.009,0.14-0.014c0.007-0.001,0.015-0.002,0.022-0.003c0.011-0.001,0.022-0.002,0.033-0.004
		c-0.046,0.005-0.092,0.009-0.139,0.014c0.068-0.006,0.137-0.007,0.204-0.021c0.005-0.001,0.008-0.004,0.012-0.006
		c0.009,0.005,0.018,0.01,0.027,0.015c0.046,0.022,0.093,0.043,0.142,0.059c0.053,0.017,0.126,0.006,0.175-0.018
		c0.052-0.025,0.096-0.058,0.131-0.104c0.061-0.078,0.08-0.187-0.001-0.258c0.023-0.031,0.05-0.059,0.064-0.095
		c0.02-0.032,0.032-0.066,0.035-0.104c0.015-0.049,0.016-0.1,0.002-0.151C136.263,66.138,136.255,66.125,136.24,66.093z"/>
	<g style="opacity:0.51;">
		<path style="fill:#99AB36;" d="M146.324,75.999c-0.001-0.003-0.001-0.005-0.003-0.008
			C146.321,75.995,146.324,75.996,146.324,75.999z"/>
		<path style="fill:#99AB36;" d="M145.747,74.334c-0.092-0.015-0.186-0.011-0.279-0.021c-0.615-0.081-1.252-0.066-1.859-0.002
			c-0.908,0.096-1.835,0.332-2.607,0.835c-0.711,0.463-1.288,1.249-1.258,2.132c0,0.007,0.004,0.012,0.005,0.019
			c-0.008,0.023-0.02,0.045-0.028,0.068c-0.067,0.209-0.021,0.38,0.141,0.523c0.049,0.043,0.105,0.07,0.157,0.106
			c0.245,0.313,0.622,0.515,1.062,0.585c0.794,0.126,1.611,0.001,2.389-0.174c0.707-0.159,1.424-0.363,2.085-0.663
			c0.757-0.344,1.751-0.898,2.011-1.755C147.898,74.89,146.57,74.473,145.747,74.334z"/>
		<path style="fill:#99AB36;" d="M146.331,75.976c0.001-0.002,0-0.001,0.001-0.002c0-0.003,0-0.005,0-0.007
			c-0.001,0.001-0.001,0.002-0.002,0.004c0,0.003-0.001,0.004-0.001,0.01c0,0,0.001,0.001,0.001,0.001
			C146.331,75.982,146.331,75.977,146.331,75.976z"/>
		<path style="fill:#99AB36;" d="M146.33,75.984l-0.001-0.002c0,0.004-0.001,0.014-0.001,0.019
			C146.329,75.993,146.33,75.988,146.33,75.984z"/>
	</g>
</g>
</svg>
